<svg width="120" height="120" viewBox="0 0 120 120" fill="none" xmlns="http://www.w3.org/2000/svg">
<path d="M110 60C110 69.8891 107.068 79.556 101.573 87.7785C96.0794 96.0009 88.2705 102.41 79.1342 106.194C69.9979 109.978 59.9446 110.969 50.2455 109.039C40.5465 107.11 31.6373 102.348 24.6447 95.3554C17.6521 88.3628 12.89 79.4536 10.9608 69.7546C9.03148 60.0555 10.0216 50.0022 13.806 40.8659C17.5903 31.7296 23.999 23.9207 32.2214 18.4266C40.4438 12.9325 50.1108 10 59.9999 9.99999" stroke="#AAF2D8" stroke-width="20"/>
<path d="M60 10C70.1836 10 80.1243 13.1095 88.4927 18.9127C96.861 24.7158 103.258 32.9359 106.827 42.4733C110.397 52.0107 110.97 62.4107 108.468 72.2823C105.966 82.1538 100.51 91.0262 92.8293 97.7126" stroke="#40B491" stroke-width="20" stroke-linecap="round"/>
<path d="M34.58 66.22C33.9 66.22 33.22 66.1533 32.54 66.02C31.86 65.8867 31.2733 65.7 30.78 65.46C30.3533 65.26 30.0533 65.0133 29.88 64.72C29.72 64.4267 29.6533 64.1267 29.68 63.82C29.7067 63.5133 29.8133 63.24 30 63C30.2 62.76 30.4533 62.6 30.76 62.52C31.08 62.4267 31.44 62.4667 31.84 62.64C32.3333 62.8533 32.7867 63 33.2 63.08C33.6133 63.16 34.0267 63.2 34.44 63.2C34.92 63.2 35.32 63.1467 35.64 63.04C35.96 62.9333 36.2 62.7733 36.36 62.56C36.52 62.3333 36.6 62.0533 36.6 61.72C36.6 61.2533 36.4333 60.9133 36.1 60.7C35.78 60.4733 35.3067 60.36 34.68 60.36H33.6C33.0933 60.36 32.7067 60.2333 32.44 59.98C32.1733 59.7267 32.04 59.3667 32.04 58.9C32.04 58.4333 32.1733 58.0733 32.44 57.82C32.7067 57.5667 33.0933 57.44 33.6 57.44H34.32C34.7067 57.44 35.0333 57.3867 35.3 57.28C35.58 57.1733 35.7933 57.02 35.94 56.82C36.0867 56.6067 36.16 56.3467 36.16 56.04C36.16 55.6 36 55.2667 35.68 55.04C35.3733 54.8133 34.9133 54.7 34.3 54.7C33.9267 54.7 33.5467 54.74 33.16 54.82C32.7733 54.9 32.36 55.04 31.92 55.24C31.5733 55.3867 31.2533 55.42 30.96 55.34C30.68 55.26 30.4467 55.1067 30.26 54.88C30.0867 54.64 29.98 54.38 29.94 54.1C29.9 53.8067 29.9467 53.52 30.08 53.24C30.2133 52.96 30.4667 52.7267 30.84 52.54C31.4 52.26 32.0067 52.0467 32.66 51.9C33.3267 51.7533 33.9933 51.68 34.66 51.68C35.7133 51.68 36.6133 51.8333 37.36 52.14C38.1067 52.4467 38.6733 52.8933 39.06 53.48C39.46 54.0533 39.66 54.7467 39.66 55.56C39.66 56.0933 39.56 56.5867 39.36 57.04C39.16 57.4933 38.8667 57.8733 38.48 58.18C38.0933 58.4733 37.64 58.6867 37.12 58.82V58.54C38.0533 58.6867 38.78 59.08 39.3 59.72C39.8333 60.3467 40.1 61.1333 40.1 62.08C40.1 62.9333 39.88 63.6733 39.44 64.3C39 64.9267 38.3667 65.4067 37.54 65.74C36.7133 66.06 35.7267 66.22 34.58 66.22ZM46.9922 66.22C45.8589 66.22 44.8789 66.06 44.0522 65.74C43.2255 65.4067 42.5922 64.9333 42.1522 64.32C41.7122 63.7067 41.4922 62.98 41.4922 62.14C41.4922 61.46 41.6255 60.86 41.8922 60.34C42.1722 59.82 42.5522 59.4 43.0322 59.08C43.5122 58.7467 44.0589 58.5467 44.6722 58.48V59.06C43.8455 58.8867 43.1722 58.48 42.6522 57.84C42.1322 57.2 41.8722 56.4333 41.8722 55.54C41.8722 54.7267 42.0789 54.0333 42.4922 53.46C42.9055 52.8867 43.4989 52.4467 44.2722 52.14C45.0455 51.8333 45.9522 51.68 46.9922 51.68C48.0455 51.68 48.9522 51.8333 49.7122 52.14C50.4855 52.4467 51.0789 52.8867 51.4922 53.46C51.9055 54.0333 52.1122 54.7267 52.1122 55.54C52.1122 56.14 51.9922 56.6933 51.7522 57.2C51.5255 57.6933 51.2055 58.1 50.7922 58.42C50.3922 58.74 49.9255 58.9467 49.3922 59.04V58.48C50.2989 58.6133 51.0389 59.0133 51.6122 59.68C52.1989 60.3333 52.4922 61.1533 52.4922 62.14C52.4922 62.98 52.2722 63.7067 51.8322 64.32C51.3922 64.9333 50.7589 65.4067 49.9322 65.74C49.1189 66.06 48.1389 66.22 46.9922 66.22ZM46.9922 63.46C47.6989 63.46 48.2389 63.3267 48.6122 63.06C48.9855 62.78 49.1722 62.38 49.1722 61.86C49.1722 61.3267 48.9855 60.9267 48.6122 60.66C48.2389 60.3933 47.6989 60.26 46.9922 60.26C46.2855 60.26 45.7455 60.3933 45.3722 60.66C44.9989 60.9267 44.8122 61.3267 44.8122 61.86C44.8122 62.38 44.9989 62.78 45.3722 63.06C45.7455 63.3267 46.2855 63.46 46.9922 63.46ZM46.9922 57.48C47.3789 57.48 47.7055 57.42 47.9722 57.3C48.2389 57.18 48.4389 57.0067 48.5722 56.78C48.7189 56.54 48.7922 56.2667 48.7922 55.96C48.7922 55.4933 48.6322 55.1267 48.3122 54.86C47.9922 54.58 47.5522 54.44 46.9922 54.44C46.4322 54.44 45.9922 54.58 45.6722 54.86C45.3655 55.1267 45.2122 55.4933 45.2122 55.96C45.2122 56.4267 45.3655 56.8 45.6722 57.08C45.9922 57.3467 46.4322 57.48 46.9922 57.48ZM55.7044 66.12C55.1044 66.12 54.6244 65.94 54.2644 65.58C53.9177 65.22 53.7444 64.7467 53.7444 64.16C53.7444 63.5867 53.9177 63.1267 54.2644 62.78C54.6244 62.42 55.1044 62.24 55.7044 62.24C56.331 62.24 56.811 62.42 57.1444 62.78C57.491 63.1267 57.6644 63.5867 57.6644 64.16C57.6644 64.7467 57.491 65.22 57.1444 65.58C56.811 65.94 56.331 66.12 55.7044 66.12ZM64.9936 66.22C63.7536 66.22 62.7003 65.94 61.8336 65.38C60.9803 64.82 60.3269 64.0133 59.8736 62.96C59.4203 61.8933 59.1936 60.6 59.1936 59.08C59.1936 57.92 59.3403 56.88 59.6336 55.96C59.9269 55.04 60.3536 54.2667 60.9136 53.64C61.4736 53 62.1536 52.5133 62.9536 52.18C63.7536 51.8467 64.6603 51.68 65.6736 51.68C66.2203 51.68 66.7736 51.7467 67.3336 51.88C67.8936 52.0133 68.4269 52.2133 68.9336 52.48C69.2536 52.64 69.4736 52.86 69.5936 53.14C69.7136 53.4067 69.7536 53.6933 69.7136 54C69.6869 54.2933 69.5869 54.56 69.4136 54.8C69.2403 55.0267 69.0069 55.1867 68.7136 55.28C68.4336 55.3733 68.1136 55.34 67.7536 55.18C67.3536 54.9933 66.9803 54.8667 66.6336 54.8C66.2869 54.7333 65.9536 54.7 65.6336 54.7C64.9669 54.7 64.4136 54.84 63.9736 55.12C63.5336 55.3867 63.2003 55.8 62.9736 56.36C62.7469 56.9067 62.6336 57.5933 62.6336 58.42V59.46H62.3336C62.4536 58.8867 62.6736 58.4 62.9936 58C63.3136 57.5867 63.7069 57.2733 64.1736 57.06C64.6536 56.8467 65.1869 56.74 65.7736 56.74C66.5603 56.74 67.2603 56.94 67.8736 57.34C68.4869 57.7267 68.9736 58.2667 69.3336 58.96C69.6936 59.6533 69.8736 60.44 69.8736 61.32C69.8736 62.28 69.6669 63.1267 69.2536 63.86C68.8403 64.5933 68.2669 65.1733 67.5336 65.6C66.8003 66.0133 65.9536 66.22 64.9936 66.22ZM64.7936 63.42C65.1403 63.42 65.4403 63.34 65.6936 63.18C65.9603 63.02 66.1603 62.7933 66.2936 62.5C66.4403 62.2067 66.5136 61.8667 66.5136 61.48C66.5136 61.08 66.4403 60.74 66.2936 60.46C66.1603 60.1667 65.9603 59.94 65.6936 59.78C65.4403 59.6067 65.1403 59.52 64.7936 59.52C64.4603 59.52 64.1603 59.6067 63.8936 59.78C63.6403 59.94 63.4403 60.1667 63.2936 60.46C63.1469 60.74 63.0736 61.08 63.0736 61.48C63.0736 61.8667 63.1469 62.2067 63.2936 62.5C63.4403 62.7933 63.6403 63.02 63.8936 63.18C64.1603 63.34 64.4603 63.42 64.7936 63.42ZM77.6858 65.64C77.5124 65.9467 77.2924 66.1467 77.0258 66.24C76.7591 66.3467 76.4991 66.3667 76.2458 66.3C75.9924 66.2333 75.7724 66.1067 75.5858 65.92C75.3991 65.7333 75.2858 65.5 75.2458 65.22C75.2058 64.94 75.2724 64.6467 75.4458 64.34L82.4458 52.28C82.6324 51.96 82.8524 51.7533 83.1058 51.66C83.3591 51.5533 83.6124 51.5333 83.8658 51.6C84.1324 51.6667 84.3524 51.8 84.5258 52C84.7124 52.1867 84.8258 52.42 84.8658 52.7C84.9191 52.9667 84.8524 53.2533 84.6658 53.56L77.6858 65.64ZM74.7858 60.3C73.5858 60.3 72.6524 59.9067 71.9858 59.12C71.3324 58.32 71.0058 57.2667 71.0058 55.96C71.0058 55.08 71.1591 54.32 71.4658 53.68C71.7724 53.04 72.2058 52.5467 72.7658 52.2C73.3258 51.8533 73.9991 51.68 74.7858 51.68C75.9724 51.68 76.8924 52.0733 77.5458 52.86C78.2124 53.6333 78.5458 54.6667 78.5458 55.96C78.5458 56.8267 78.3924 57.5867 78.0858 58.24C77.7924 58.8933 77.3658 59.4 76.8058 59.76C76.2458 60.12 75.5724 60.3 74.7858 60.3ZM74.7858 58.1C74.9858 58.1 75.1524 58.0333 75.2858 57.9C75.4324 57.7533 75.5391 57.5267 75.6058 57.22C75.6858 56.9 75.7258 56.48 75.7258 55.96C75.7258 55.1733 75.6391 54.6267 75.4658 54.32C75.3058 54.0133 75.0791 53.86 74.7858 53.86C74.5724 53.86 74.3924 53.9267 74.2458 54.06C74.1124 54.18 74.0058 54.3933 73.9258 54.7C73.8591 55.0067 73.8258 55.4267 73.8258 55.96C73.8258 56.76 73.9058 57.32 74.0658 57.64C74.2258 57.9467 74.4658 58.1 74.7858 58.1ZM85.3458 66.22C84.1591 66.22 83.2324 65.8267 82.5658 65.04C81.9124 64.2533 81.5858 63.2067 81.5858 61.9C81.5858 61.0067 81.7324 60.24 82.0258 59.6C82.3324 58.96 82.7658 58.4667 83.3258 58.12C83.8991 57.7733 84.5724 57.6 85.3458 57.6C86.5324 57.6 87.4591 57.9933 88.1258 58.78C88.7924 59.5667 89.1258 60.6067 89.1258 61.9C89.1258 62.7667 88.9724 63.5267 88.6658 64.18C88.3724 64.82 87.9458 65.32 87.3858 65.68C86.8258 66.04 86.1458 66.22 85.3458 66.22ZM85.3458 64.04C85.5591 64.04 85.7324 63.9733 85.8658 63.84C86.0124 63.6933 86.1191 63.4667 86.1858 63.16C86.2658 62.84 86.3058 62.42 86.3058 61.9C86.3058 61.1133 86.2191 60.5667 86.0458 60.26C85.8858 59.9533 85.6524 59.8 85.3458 59.8C85.1458 59.8 84.9724 59.8667 84.8258 60C84.6924 60.12 84.5858 60.3333 84.5058 60.64C84.4391 60.9333 84.4058 61.3533 84.4058 61.9C84.4058 62.7 84.4858 63.26 84.6458 63.58C84.8058 63.8867 85.0391 64.04 85.3458 64.04Z" fill="#107859"/>
</svg>
