<?xml version="1.0" encoding="utf-8"?>
<!-- Uploaded to: SVG Repo, www.svgrepo.com, Generator: SVG Repo Mixer Tools -->
<svg version="1.1" id="Uploaded to svgrepo.com" xmlns="http://www.w3.org/2000/svg" xmlns:xlink="http://www.w3.org/1999/xlink" 
	 width="800px" height="800px" viewBox="0 0 32 32" xml:space="preserve">
<style type="text/css">
	.avocado_zestien{fill:#E598A3;}
	.avocado_vijftien{fill:#D36781;}
	.avocado_een{fill:#231F20;}
	.st0{fill:#EAD13F;}
	.st1{fill:#CC4121;}
	.st2{fill:#FFFAEE;}
	.st3{fill:#E0A838;}
	.st4{fill:#D1712A;}
	.st5{fill:#A3AEB5;}
	.st6{fill:#788287;}
	.st7{fill:#C3CC6A;}
	.st8{fill:#6F9B45;}
	.st9{fill:#248EBC;}
	.st10{fill:#8D3E93;}
	.st11{fill:#3D3935;}
	.st12{fill:#716558;}
	.st13{fill:#AF9480;}
	.st14{fill:#DBD2C1;}
	.st15{fill:#231F20;}
</style>
<g>
	<g>
		<path class="avocado_zestien" d="M15.499,3.063L15.5,11c0,0.276,0.224,0.5,0.5,0.5l0,11c-0.276,0-0.5,0.224-0.5,0.5
			l-0.001,5.947c0,0.879-0.776,1.581-1.673,1.497C6.947,29.79,2.5,24.708,2.5,17.5c0-8.099,5.088-15.296,11.339-15.936
			C14.676,1.478,15.499,2.178,15.499,3.063z"/>
	</g>
	<path class="avocado_vijftien" d="M16.501,3.063L16.5,11c0,0.276-0.224,0.5-0.5,0.5l0,11c0.276,0,0.5,0.224,0.5,0.5
		l0.001,5.947c0,0.879,0.776,1.581,1.673,1.497C25.053,29.79,29.5,24.708,29.5,17.5c0-8.099-5.088-15.296-11.339-15.936
		C17.324,1.478,16.501,2.178,16.501,3.063z"/>
	<path class="avocado_een" d="M21.01,13.125h1c0,1.318-0.86,2.428-2.045,2.83c0.64,0.84,1.035,1.876,1.035,3.011h-1
		c0-2.206-1.794-4-4-4v-1c1.198,0,2.283,0.441,3.145,1.145C20.184,15.041,21.01,14.182,21.01,13.125z M12.009,20.625h1
		c0-1.103,0.897-2,2-2h1v-1h-1C13.355,17.625,12.009,18.971,12.009,20.625z M30,17.5c0,7.485-4.625,12.761-11.782,13.442
		c-0.066,0.006-0.131,0.009-0.196,0.009c-1.115,0-2.023-0.897-2.023-2.004c0,1.108-0.907,2.004-2.022,2.004
		c-0.065,0-0.13-0.003-0.196-0.009C6.625,30.261,2,24.985,2,17.5C2,9.154,7.287,1.782,13.785,1.067
		c0.073-0.008,0.146-0.012,0.218-0.012c1.101,0,1.997,0.907,1.998,2.008c0-1.103,0.896-2.008,1.997-2.008
		c0.072,0,0.144,0.004,0.218,0.012C24.714,1.782,30,9.154,30,17.5z M26.134,26c1.773-2.063,2.854-4.891,2.864-8.449
		C27.307,17.797,26,19.242,26,21h-1c0-2.298,1.737-4.177,3.963-4.446c-0.204-3.889-1.639-7.614-3.847-10.321
		C24.533,6.945,24.2,7.818,24.2,8.75c0,1.068,0.416,2.073,1.172,2.828l-0.707,0.707c-0.72-0.72-1.189-1.621-1.373-2.599
		c-0.403,0.189-0.836,0.295-1.273,0.295c-0.768,0-1.536-0.292-2.121-0.877l0.707-0.707c0.712,0.712,1.83,0.766,2.613,0.175
		c0.041-1.152,0.474-2.227,1.229-3.092c-1.776-1.888-3.954-3.157-6.34-3.42c-0.036-0.004-0.073-0.006-0.108-0.006
		c-0.543,0-0.997,0.451-0.997,1.008V11c0,0.552-0.428,1-1.001,1s-1-0.448-1-1V3.063c0-0.557-0.454-1.008-0.997-1.008
		c-0.036,0-0.072,0.002-0.108,0.006c-1.187,0.131-2.321,0.514-3.383,1.092c0.016,1.09,0.904,1.972,1.997,1.972v1
		c-1.448,0-2.659-1.031-2.939-2.397c-2.107,1.447-3.846,3.709-5.008,6.369c1.511,0.141,2.856,0.847,3.833,1.901
		c0.848-0.225,1.623-0.656,2.251-1.283l0.707,0.707c-0.653,0.652-1.437,1.136-2.297,1.43C9.651,13.783,10,14.884,10,16.068H9
		c0-2.701-2.157-4.895-4.837-4.984C3.423,13.09,3,15.277,3,17.5c0,4.258,1.519,7.486,3.938,9.596
		c1.513-1.564,1.503-4.063-0.041-5.607l0.707-0.707c0.736,0.736,1.192,1.646,1.372,2.6c1.112-0.523,2.477-0.335,3.395,0.583
		l-0.707,0.707c-0.714-0.713-1.832-0.766-2.616-0.173c-0.042,1.163-0.485,2.307-1.331,3.216c1.741,1.259,3.855,2.013,6.16,2.232
		c0.034,0.003,0.068,0.005,0.101,0.005c0.555,0,1.022-0.437,1.022-1.004V23c0-0.552,0.448-1,1-1h0.001c0.552,0,1,0.448,1,1v5.948
		c0,0.567,0.467,1.004,1.022,1.004c0.033,0,0.067-0.002,0.101-0.005c2.74-0.261,5.207-1.281,7.1-3.003
		c-1.424-0.185-2.689-0.87-3.619-1.874c-0.848,0.225-1.624,0.657-2.251,1.283l-0.707-0.707c0.652-0.652,1.436-1.135,2.297-1.43
		C20.349,23.286,20,22.184,20,21h1c0,2.757,2.243,5,5,5H26.134z"/>
</g>
</svg>