<svg width="86" height="87" viewBox="0 0 86 87" fill="none" xmlns="http://www.w3.org/2000/svg">
<path d="M31.6923 25.2776L25.9747 26.2176L20.7562 28.5312L16.3252 31.3519L12.1085 36.557L9.72607 39.1099L7.42221 39.9683L6.81349 38.4621L7.87841 36.907L8.1176 34.713L8.83113 34.7422L9.61051 35.4613L9.40088 33.2272L8.53685 32.6406L8.56305 31.789L6.51585 32.9607L4.66147 35.1731L4.27515 37.151L5.06796 38.7347L5.80702 41.4249L7.31135 42.1454L8.89294 42.0665L10.3932 41.185L9.39215 46.318L10.3932 52.0301L9.29137 54.6672L5.68407 58.5999L6.32571 60.9489L8.03429 63.6711L11.2566 65.965L12.9658 66.2015L14.8659 66.2668L13.6807 71.1904L18.0412 72.9984L23.4726 73.7216L25.3304 72.492L25.4735 69.1663L27.5469 65.6958L27.69 62.9479L32.6934 63.3095L37.3388 62.8758L32.6934 65.6958L33.4795 69.0943L36.4096 73.7216L39.2684 74.9505L41.5555 74.0105L42.4847 72.1305L47.2738 68.4431L48.203 69.2384L55.7079 69.5279L57.2081 68.2984L57.3513 66.1295L56.8507 65.1895L56.4933 59.3333L53.9919 54.2717L54.4205 52.0301L55.9215 52.8253L60.1389 56.8021L62.2116 56.9469L64.4987 56.0069L66.7857 54.2717L67.9293 50.5116L74.648 50.9453L78.7216 49.3548L82.0091 46.2459L84.3673 41.7627L84.9398 36.4849L84.4392 30.3392L83.1526 24.8439L81.8653 23.1094L80.0788 22.5309L76.9344 26.0014L74.0749 27.0142L71.5735 22.8205L69.0721 20.5068L67.7143 19.6389L62.2821 15.0836L57.9217 12.6979L53.5626 12.3363L48.4879 13.2036L44.0569 14.8668L40.983 17.3973L38.5535 20.3621L36.0515 21.0846L31.6923 25.2776Z" fill="#FFFF00"/>
<path d="M54.9808 12.3887L52.1213 12.5042L45.9434 13.8921L41.1395 16.9004L38.3942 20.8358C44.7905 19.7585 45.6088 19.2229 48.9185 22.6873C47.5781 20.3084 47.1864 19.1788 47.4101 16.9303C47.7245 13.763 52.2543 13.4232 54.9808 12.3887ZM38.1658 20.7196L35.5347 21.4142L30.1987 26.7362L31.3026 25.4645L25.1247 26.274L19.8619 28.4728L15.058 32.5231L11.97 37.1517L9.91142 42.1284L9.68164 47.3348L10.4839 52.4277L12.6567 57.9821C11.2995 51.1152 10.2111 44.1056 15.109 38.3269C18.2823 34.5818 20.99 33.5677 25.5822 32.0602L26.6169 30.8673L23.4094 36.6895L22.2652 40.1614L24.6678 43.0541C24.9144 41.4338 24.9917 40.2559 25.816 38.8509C27.4453 36.0758 29.1842 33.3652 30.7342 30.5499C32.901 26.6152 34.7614 24.0807 38.1658 20.7196Z" fill="#FFFFCC"/>
<path d="M58.0044 12.6354C59.9777 14.4889 62.3998 16.1004 63.9774 18.3658C64.5888 19.2426 65.2674 19.6912 63.9673 20.9296C65.3406 20.5327 65.8506 20.5762 66.9504 20.7107C68.9499 20.9554 70.8251 23.8319 70.9447 25.8934C70.9212 26.0857 70.3884 26.5234 68.8418 26.955C68.8115 27.0155 67.9697 26.8381 67.9905 26.8952C68.1518 27.3404 68.3668 27.4097 68.694 27.6177C68.7652 28.1125 68.8109 28.8745 69.1441 29.4148C70.117 29.3978 71.0677 29.5059 72.0204 29.6962C72.3416 30.2345 72.2925 30.7722 72.2663 31.3105L73.3709 31.1249L73.0638 28.5788L74.0468 26.902L72.6345 23.6735L69.9329 21.0649L69.6729 21.0513L66.636 19.1665L61.6816 15.0659C60.4554 14.2558 59.2306 13.4449 58.0044 12.6354ZM81.209 22.688C82.0441 26.4888 83.1211 29.9953 83.021 33.8872C82.8987 38.662 81.9789 44.6942 77.6057 47.574C72.7077 50.7985 66.9592 49.2733 61.5855 47.8914L68.1538 50.6238L74.292 50.9344L78.4664 49.6926L81.7196 46.9596L84.1746 41.7437L85.0958 35.721L84.3587 29.8213L83.0083 23.9841L81.209 22.688ZM56.0069 23.1053L55.3001 23.3112L54.1882 23.857C51.9932 25.6378 51.7399 28.0738 52.4547 30.6525C52.2599 27.6748 53.8119 24.6196 56.0069 23.1053ZM46.0551 23.176L41.9426 23.6735C40.6533 23.9637 39.3646 24.2519 38.0753 24.5415L36.1725 27.3363L35.1278 30.0075C33.9896 33.1572 32.9966 35.8569 31.2725 38.7089C33.4817 36.3014 34.8207 34.2542 36.0858 31.5327C36.577 30.4751 36.6697 29.2354 38.0383 29.6962C38.1001 30.7524 38.3205 31.808 38.3823 32.8636C39.1214 27.5008 41.2069 25.2572 46.0551 23.176ZM81.1996 23.5145C80.6856 23.7544 80.185 23.8693 79.8639 24.345C79.1719 25.3693 78.5793 26.2312 77.4351 26.9496C76.8586 27.3119 76.2626 27.5477 75.6519 27.7401C75.1446 27.8991 74.8403 27.7564 74.4089 28.0704L75.1769 28.2057H76.87L78.9575 26.902L80.1844 25.5984L81.1996 23.5145ZM61.3289 27.9365C61.1078 28.0283 60.7363 28.2505 60.5159 28.3423L58.7804 28.9146L56.1286 30.9441L54.6289 32.523C54.3232 32.7133 54.1351 32.7908 53.8294 32.7881C54.3111 32.9669 54.8641 32.8167 55.4473 32.661C55.9351 33.7064 56.1931 34.1441 57.1612 34.6865C56.7825 35.4073 56.5876 36.2124 56.5942 37.0287C58.1059 33.9701 60.9372 32.3511 63.8934 30.7416C63.2551 30.8707 62.6081 31.0474 61.9692 31.2534L62.3871 31.044C62.0935 29.9314 61.6883 29.4053 60.8659 28.6182C61.0675 28.4143 61.2241 28.1207 61.3289 27.9365ZM44.5206 29.8824C44.4386 30.4826 44.3573 31.0835 44.2747 31.6836L44.3983 35.4103L45.4417 43.2954L44.0294 49.2576L39.6716 50.1269L34.085 53.418L30.9211 54.0474L26.4834 51.9308C31.1173 58.6876 35.0633 55.3347 41.9406 53.0544C43.668 52.4814 44.7759 52.2775 46.5624 52.3944C48.1964 49.5601 48.1494 47.9805 47.7247 44.6949C47.071 39.638 45.5667 34.8598 44.5206 29.8824ZM8.45432 32.6977L8.12241 34.0149C5.89851 35.479 5.02574 36.122 5.26963 38.8353L5.93344 41.2726L6.87541 41.9177L8.03776 42.3092L10.1448 41.8048L11.2245 38.4146L8.2326 39.8997H7.54057L6.76388 38.6946L7.70652 37.2944L8.20505 34.6321L8.84333 34.8272L9.61801 35.4443L9.50648 34.0428C9.33179 33.7437 9.15576 33.4454 8.9804 33.147L8.45432 32.6984V32.6977ZM22.6067 41.4956C22.5214 43.0623 22.4213 43.7154 23.1039 45.1C23.9726 46.859 25.0396 48.512 25.9835 50.2506L26.2892 46.7734L22.6067 41.4956ZM61.9692 45.2366C59.0774 46.0808 59.0996 46.3132 58.245 49.2162C59.373 47.3864 60.2082 46.4627 61.9692 45.2366ZM49.6618 48.9273C49.9856 50.7631 50.5493 51.1995 51.4033 52.9769C50.8349 55.8771 49.9218 59.3251 48.8233 61.8835C48.3597 62.9622 47.9854 63.5576 47.1684 64.3915C45.7891 65.7999 44.3943 67.0281 42.8301 68.2488C41.7047 69.1269 40.9193 68.6865 39.5299 68.488C38.9386 69.5714 38.776 70.1723 37.6889 70.7221C36.016 71.5677 34.5197 69.7454 33.2075 68.6736L36.0496 73.1649L38.0141 75.0286L39.6716 75.2767L41.8814 73.9106L43.0478 71.6751L45.5035 69.8114C46.506 68.9414 47.5084 68.0734 48.5108 67.2041L50.4136 64.4717L50.7106 63.9158L49.9231 65.651L47.4674 68.5703L49.0631 69.254H53.0541C53.173 68.9373 54.8345 69.5776 56.0439 69.0372C56.3819 68.8863 56.6842 68.3358 56.9079 68.019C57.6981 66.9023 55.7913 64.7273 56.3684 60.6832L54.6498 55.0322H54.1788C54.2325 54.8664 54.2883 54.7012 54.3427 54.5361L54.5261 51.9893C53.6057 51.5747 52.6852 51.1621 51.7641 50.7482C51.0888 50.1065 50.337 49.5689 49.6618 48.9273ZM66.4969 50.1269L60.7269 50.8719C60.5838 51.2647 60.4393 51.659 60.2969 52.0518L60.4198 53.7286L60.9721 54.7209L61.8321 55.1566L62.506 55.2192C63.4144 55.786 63.3956 56.1965 63.2437 56.5853L65.3917 55.7153L66.7825 53.8258L67.8172 51.1308L66.4969 50.1269ZM10.0057 53.3344L9.20884 55.0506C9.94051 57.543 10.5902 59.1206 11.983 61.2983C11.7405 62.1798 11.5584 62.5666 11.0001 63.285C9.77455 63.0947 8.68679 63.0403 7.44583 63.0437L11.5577 66.2722L13.5827 65.8991L15.6084 63.8505L12.7241 59.317L10.0057 53.3344ZM39.4264 57.0815C38.4435 58.1588 37.6506 59.1545 36.8478 60.3725C34.0098 61.6891 30.7391 61.8638 27.6411 61.8638L27.5792 62.7331L27.8245 62.9812L30.0961 63.2293L37.093 63.0437L38.0141 61.6776C38.2513 59.7568 38.5315 58.7902 39.4264 57.0815ZM26.9698 57.4852C26.4411 60.7083 26.5681 62.8684 25.102 65.7557C24.0069 67.0403 22.6584 68.208 21.1138 68.8326C21.2441 69.6245 21.2824 70.1193 21.2072 70.6997C20.9351 72.787 16.8064 71.8647 15.1086 71.7811C17.833 72.4907 20.5575 73.2016 23.2813 73.9106L25.1242 73.1649L25.737 69.5626L27.4556 66.3341L27.7627 64.3474L27.2104 59.6901C27.1298 58.9561 27.0498 58.2207 26.9698 57.4852Z" fill="#CCCC00"/>
<path d="M43.3528 10.9083C39.294 11.9143 38.0994 12.6307 36.7509 17.3905C38.4656 13.9037 39.7643 12.6205 43.3528 10.9083ZM53.791 11.1618C51.1317 11.2149 48.3065 12.0244 45.0446 13.413C43.2453 14.179 41.9083 15.0857 40.7446 16.1745C39.6326 17.2145 38.6873 18.4202 37.6499 19.8183C37.0486 19.8618 36.5111 19.9475 35.9662 20.1677C35.3649 20.411 34.7588 20.8046 34.0332 21.4523C33.5271 21.9036 33.0314 22.3666 32.5463 22.8409V22.8423C32.1038 23.2775 31.6691 23.7208 31.2422 24.1717C27.8493 24.7223 25.0818 25.3306 22.606 26.3005C20.0737 27.2929 17.841 28.659 15.5479 30.7158C14.6448 31.5225 13.8215 32.4162 13.0895 33.3842C12.403 34.2996 11.7971 35.2742 11.2788 36.2967C10.8179 36.8133 10.3563 37.3346 9.85645 37.7906C9.37136 38.2318 8.85402 38.6042 8.27486 38.8299C7.93892 38.9611 7.79917 39.0372 7.78439 39.0318C7.77364 39.0263 7.74273 38.906 7.73333 38.8673C8.55839 38.0646 8.69344 36.8921 8.77003 35.7251C8.87822 35.8599 8.97807 36.0013 9.06901 36.1485C9.17853 36.3205 9.29208 36.4965 9.42712 36.6685L9.9915 37.389L10.1897 36.4904C10.3563 35.7373 10.4806 34.7334 10.2871 33.8634C10.1615 33.3013 9.89744 32.8045 9.4493 32.4483C9.49095 32.3396 9.53664 32.2158 9.57561 32.1166C9.71737 31.7496 9.8625 31.373 9.98612 31.0176L10.232 30.3141L9.50372 30.4412C8.5342 30.6111 6.45072 31.77 4.98401 33.3095C4.4398 33.8818 3.9715 34.5125 3.66378 35.1766C3.34397 35.8665 3.20019 36.5896 3.32381 37.3121C3.43131 37.9422 3.74911 38.5587 4.31348 39.1419C4.41628 39.5619 4.51169 39.9385 4.61381 40.2674C4.73072 40.644 4.85703 40.9791 5.01425 41.3094C5.44089 42.2079 6.1215 42.7571 6.90894 43.0127C7.54722 43.22 8.2547 43.2281 8.94673 43.0725C8.80068 43.9004 8.71089 44.7375 8.67798 45.5778C8.63498 46.7503 8.67664 48.0451 8.8043 49.5479C8.86545 50.2464 8.96187 50.9412 9.0932 51.6298L8.70687 52.6928L8.10689 54.3417L6.78867 55.6637L5.55712 56.8973C5.52353 56.9313 5.38512 57.0659 5.25948 57.1882C4.42837 57.9971 4.26376 58.1588 4.50026 59.5828C4.65159 60.4941 4.94553 61.3751 5.37102 62.1928C5.80836 63.0277 6.36759 63.7912 7.02987 64.4575C7.90734 65.3472 9.34381 66.4517 10.8481 67.0301C11.7061 67.3598 12.5896 67.5195 13.4194 67.3876C13.3764 67.5181 13.3428 67.6446 13.2958 67.7764C13.1642 68.1454 13.0181 68.5089 12.8577 68.866C11.8365 71.13 12.8853 72.3127 14.5159 73.0651C15.3302 73.4403 16.2984 73.6965 17.1987 73.933C17.3821 73.9813 17.5662 74.0289 17.798 74.0928C18.8643 74.3843 20.7052 74.9193 22.3869 75.0273C24.2232 75.1449 25.88 74.7622 26.3241 73.0943C26.4995 72.4336 26.6016 71.9273 26.6426 71.4325C26.6809 70.9764 26.6627 70.5094 26.611 69.9412C27.1283 68.7858 27.3608 68.4255 27.7411 67.8627L27.9339 67.5746C28.3438 66.9588 28.5359 66.5224 28.6058 66.0303C28.673 65.5559 28.6172 65.0835 28.5319 64.3603C28.5252 64.2957 28.5077 64.1714 28.4916 64.0483C29.5666 64.1883 30.6281 64.2726 31.6816 64.2794C32.2139 64.2802 32.746 64.2653 33.2773 64.2346C33.1295 64.3121 33.0281 64.3732 32.8675 64.4562L32.6686 64.5595C31.251 65.2969 31.1918 66.6944 31.636 68.1319C32.0364 69.4281 32.8594 70.7507 33.3761 71.5555C34.4619 73.2493 35.4992 74.682 36.7556 75.461C38.0725 76.2779 39.5775 76.3745 41.5192 75.3114C42.5082 74.7704 42.8193 74.2171 43.2392 73.4742C43.3716 73.2391 43.5194 72.9828 43.684 72.7307C44.0717 72.4792 45.0667 71.654 46.088 70.8004C46.4206 70.5224 46.778 70.2281 47.1522 69.9202C47.4156 70.1152 47.7334 70.2512 48.1164 70.3436C48.6162 70.4646 49.2115 70.5203 49.9251 70.572C50.4585 70.6114 52.2007 70.6094 53.3247 70.6094C53.6721 70.6094 53.9597 70.6094 54.133 70.6107C55.294 70.6175 56.232 70.5563 56.9401 70.1499C57.6953 69.7169 58.1421 68.9502 58.2395 67.5759C58.2825 66.9649 58.2899 66.5883 58.2059 66.2029C58.1287 65.8468 57.9708 65.5151 57.7128 65.0441L57.6657 63.2565L57.616 61.3642C57.5959 60.6213 57.5152 60.0185 57.3667 59.4251C57.2189 58.8344 57.0073 58.2662 56.7251 57.5865C56.5336 57.1257 56.3784 56.703 56.2266 56.2883V56.2856C55.984 55.6236 55.7408 54.9779 55.4062 54.2887C55.4284 54.1555 55.4519 54.0121 55.4734 53.8585L56.1211 54.4906L57.0752 55.4197C57.8035 56.1293 58.4693 56.7743 59.2514 57.2413C60.059 57.7238 60.968 58.0039 62.1445 57.9475C63.3773 57.8883 64.6949 57.3636 65.7806 56.5541C66.8308 55.7697 67.674 54.7121 68.026 53.541L68.3304 52.5256C68.4124 52.2537 68.4957 51.9805 68.577 51.7079C70.305 52.0049 72.1567 52.1062 73.9486 51.9166C75.6774 51.7331 77.3476 51.2879 78.7881 50.5103C80.9045 49.3678 82.4929 47.6828 83.6344 45.6839C84.9089 43.4497 85.6231 40.8187 85.8939 38.1101C86.1116 35.9378 85.9927 32.9832 85.5459 30.1346C85.1481 27.5953 84.4877 25.1321 83.5726 23.3588C83.4426 23.1194 83.2772 22.9014 83.0821 22.7125C82.6266 22.2584 81.9533 21.8302 81.2573 21.5883C80.5202 21.3313 79.7422 21.279 79.1254 21.6052C78.9621 21.6913 78.8131 21.8028 78.684 21.9356C78.2842 22.3461 77.947 22.843 77.609 23.3418C77.2334 23.8972 76.8565 24.4552 76.405 24.846C75.8776 25.3014 75.2165 25.576 74.595 25.8281C74.3384 25.1892 74.0293 24.573 73.6711 23.9862C73.2492 23.3038 72.7681 22.6642 72.2387 22.026C71.8514 21.5562 71.4123 21.1327 70.9299 20.7638C70.473 20.4117 70.0061 20.114 69.4618 19.7694C68.0019 18.845 66.7596 17.7426 65.4924 16.6177C64.9159 16.1066 64.3341 15.59 63.7657 15.1156C60.7469 12.5973 57.9318 11.3773 54.9204 11.1856C54.5445 11.162 54.1677 11.154 53.791 11.1618ZM40.1251 11.204C38.0779 11.7029 37.6882 12.0862 37.0741 14.1158C38.0537 12.6293 38.6181 12.146 40.1251 11.204ZM53.7514 12.8944C56.932 12.753 59.7922 13.8364 62.9977 16.562C64.4745 17.818 65.7638 19.0374 67.2608 20.1215C66.7009 20.1655 66.1512 20.2976 65.6315 20.513C66.384 20.3675 67.2554 20.5116 68.0368 20.6557C68.2558 20.7998 68.4809 20.9405 68.7127 21.0785C69.7689 21.7086 70.3689 22.0552 71.0837 23.0632C71.8267 24.1028 72.4761 25.2076 73.0241 26.3644C72.6613 26.2332 72.3556 26.1225 72.0835 26.0402C71.7802 25.8999 71.4475 25.8374 71.1146 25.8583C70.7818 25.8791 70.4592 25.9827 70.1754 26.1598L70.1324 26.1816C69.5478 26.4691 68.6408 26.7974 68.0355 26.8966C68.3445 27.0054 69.0278 27.0461 69.3503 26.917C69.3933 26.8993 69.4377 26.8851 69.4827 26.8742C69.3333 27.1319 69.2416 27.4196 69.2139 27.717C69.1753 28.1093 69.25 28.5045 69.4289 28.8548C69.4289 28.8562 69.4303 28.8562 69.4316 28.8575C69.486 28.988 69.562 29.1083 69.6453 29.1946C69.3684 29.2979 69.0863 29.4169 68.7953 29.5454C70.1465 29.3367 71.3653 29.3007 72.6848 29.476C72.7722 29.8974 72.8595 30.3419 72.9401 30.796C72.7769 30.8089 72.6129 30.8232 72.4497 30.8354L72.41 30.8381C71.7859 30.3338 71.0918 30.4181 70.1411 30.6376C67.252 31.3037 67.9306 32.9445 66.601 35.4158C67.981 33.7084 67.8796 31.9243 70.1283 31.3853C70.6524 31.2595 71.0085 31.1018 71.3632 31.1555C70.725 31.4804 70.1727 32.0194 69.9537 32.6447C69.3362 34.4085 69.7198 35.8936 69.0419 37.5405C69.8818 36.0683 69.9322 34.6321 70.6833 33.0831C70.9534 32.5265 71.9545 31.6354 72.5693 31.6218L73.0759 31.6109C73.2237 32.591 73.313 33.565 73.2552 34.3718C73.1504 35.8454 72.7735 38.0306 72.5471 38.8673C73.3077 37.8776 73.6537 35.7822 73.9876 34.3066C74.3356 32.7705 74.2496 30.9272 73.9446 29.2769C73.526 27.0128 75.8312 27.3806 77.1696 26.3134C78.1539 25.5291 78.8305 24.2757 79.7328 23.3881C80.6277 22.5079 82.0353 23.8027 82.3874 24.6625C83.9132 28.3974 84.6093 34.2733 84.2061 38.0374C83.754 42.2616 81.7363 46.872 78.0531 48.9518C73.358 51.6026 67.8225 49.9849 63.1576 48.3944C62.1619 48.0553 61.4685 47.5598 60.5938 47.0018C60.8316 48.0872 60.9405 49.2366 60.6233 50.3207C60.1201 52.0403 59.3071 54.8556 61.6157 55.3748C62.4945 55.5719 62.8936 55.5427 64.1339 54.8957C63.1301 55.1247 62.6235 55.0697 61.9335 54.9405C61.308 54.8243 60.9767 54.4212 60.802 53.9482C61.0204 54.1072 61.3772 54.1929 61.9859 54.3424C63.6972 54.759 65.3278 53.9271 65.6469 52.7261C65.833 52.0247 65.8001 51.6563 66.1938 50.7006C66.5479 50.8107 66.9148 50.9113 67.2897 51.0031L66.6547 53.102C66.1045 54.9167 63.9619 56.3801 62.0699 56.3461C60.3203 56.3148 59.2117 55.207 58.0044 54.1201C57.1969 53.3937 56.3881 52.6688 55.5782 51.9451C53.4013 51.2512 51.6565 50.439 49.6362 48.9253C51.074 50.6347 52.0495 51.5808 54.0544 52.4318C53.7628 55.4408 52.7288 57.6348 51.8473 60.5146C51.4489 61.8169 48.2991 67.0349 47.4264 67.544C46.8042 67.9062 42.9067 71.2279 42.1736 71.6656C41.6274 72.3997 41.1477 73.4131 40.3267 73.8521C37.8253 75.1911 36.2168 72.6273 34.871 70.4632C34.2576 69.4777 32.5564 66.6379 34.0399 65.842C35.4428 65.0903 36.2289 64.5533 37.6607 63.6025C37.871 63.9899 38.2311 64.3651 38.4662 64.7525L38.3104 63.4815C38.2163 62.7141 38.2197 62.0902 38.2801 61.318L38.4548 59.0751C38.2391 59.8343 37.8085 60.5935 37.5935 61.354C37.5075 61.6579 37.4362 61.9046 37.3953 62.1316C34.2283 62.7951 30.965 62.838 27.7821 62.258C27.5918 61.1332 27.3702 60.014 27.1176 58.9017C27.0544 59.9084 27.0954 62.691 27.0907 64.2488C27.086 65.4566 27.037 65.8706 26.4209 66.8976C25.8451 67.8593 25.6005 68.0768 24.7936 69.7013C24.8608 70.7263 24.8621 71.4046 24.5934 72.3772C24.1452 73.9949 19.6282 72.7422 18.437 72.4119C16.9703 72.0054 13.9374 71.4012 14.7 69.4226C15.3719 67.6813 15.7972 65.8454 16.125 63.4087C13.4375 59.4917 10.9368 54.1229 10.4571 49.3664C10.0849 45.673 10.308 43.3987 11.0981 41.1395C12.3498 37.5602 14.1014 34.4615 16.9111 31.9664C20.7019 28.6019 24.2453 27.2507 29.7937 26.3964C28.4593 27.9073 27.1398 29.5046 25.7006 31.2181C24.244 32.9526 23.3786 34.7042 22.4541 36.6012C21.1762 39.2207 21.2044 40.2171 22.8975 42.5179C24.3569 44.4998 25.145 45.393 25.7819 47.3328C25.2558 48.4298 25.0637 49.3569 24.887 50.8556C26.6742 52.8314 28.0018 54.1847 29.7372 54.602C31.4391 55.0112 32.8601 54.9324 34.3826 54.1453C37.7641 52.3965 40.893 50.1378 44.7073 50.0447C46.4723 45.6553 46.2949 41.9877 45.4477 37.741C44.8685 34.8408 44.6367 32.0942 44.4567 29.1375C43.7411 32.1825 43.6074 34.8605 44.1375 37.894C44.7778 41.5493 45.275 45.5873 43.4945 48.7995C40.0458 49.0667 37.0889 51.19 33.9795 52.8192C32.7298 53.4744 31.4304 53.5376 30.047 53.1536C28.763 52.7968 27.8963 51.937 26.5129 50.3234C26.4914 48.703 26.8522 47.9554 27.5879 46.4879C28.7691 44.1321 30.0745 41.9388 31.5063 39.6197C29.7527 41.76 28.0918 43.5483 26.7125 45.6995C26.185 44.1797 25.4312 43.4089 24.1822 41.6975C22.962 40.0255 22.8344 39.2941 23.7468 37.3604C24.6639 35.4165 25.4426 33.7078 27.0034 32.0024C29.701 29.056 32.1714 25.7765 35.121 22.8742C36.7227 21.2987 37.3731 21.3538 39.4976 21.0275C41.4178 20.7332 43.2923 20.3621 45.2508 19.902C43.3561 20.0807 41.5253 20.1453 39.681 20.1915L39.6252 20.1929C41.4393 17.8493 42.4908 16.5443 45.4369 15.2495C48.6102 13.8548 51.2775 13.0038 53.7514 12.8944ZM56.275 23.0061C52.3284 24.0052 51.588 25.6813 52.0959 28.2587C52.5279 26.3196 53.2972 24.4518 56.275 23.0061ZM44.5823 23.2249C42.9853 23.4078 41.3909 23.575 39.7932 23.7279C38.4515 23.8571 38.2351 23.8346 37.2837 24.7862C35.8372 26.2332 34.4316 31.1977 33.9821 33.1837C34.6896 31.5341 36.4607 26.919 37.8185 25.7445C38.1935 25.4197 38.4548 25.2205 38.7363 25.0757C37.7648 26.724 37.8353 27.1352 38.176 29.3435C38.4662 27.0985 39.2335 26.2305 40.494 24.5551C41.8836 24.2012 43.2493 23.7569 44.5823 23.2249ZM81.2264 23.4132C80.3113 25.2878 78.8997 26.8552 76.9821 27.8156C75.9535 28.3301 75.2964 28.1513 74.1475 28.0412C75.3166 28.3804 76.0556 28.8065 77.2025 28.3926C79.5393 27.5498 80.666 25.6501 81.2264 23.4132ZM73.0584 26.4378C73.139 26.6091 73.2176 26.7824 73.2949 26.9591C73.2311 27.0067 73.1693 27.0577 73.1121 27.1107C73.0077 26.8628 72.8566 26.6377 72.6674 26.448C72.795 26.4433 72.9247 26.4412 73.0584 26.4378ZM61.3718 27.8869C60.0845 28.4891 58.5869 28.3423 57.4837 29.0968C56.5108 29.7608 55.1684 31.8665 54.1807 32.7589C54.8963 32.4782 55.5849 31.9922 56.2199 31.4791C56.2232 31.9656 56.3574 32.4421 56.6083 32.8573C56.8591 33.2725 57.217 33.6107 57.6436 33.8355C57.2785 34.3196 56.9879 34.8568 56.7815 35.4287C58.6628 33.1722 61.392 31.4696 63.9572 30.7416C63.2396 30.7307 62.3897 30.8667 61.525 31.1542C61.4714 30.6565 61.281 30.1839 60.9753 29.7902C60.6696 29.3965 60.2609 29.0974 59.7956 28.9268C60.3687 28.6169 60.9324 28.2907 61.3718 27.8869ZM4.73206 30.2325C1.31558 32.6685 0.462968 33.7744 0.923874 38.7035C1.2625 34.8252 2.00828 33.1518 4.73206 30.2325ZM1.83359 31.6986C0.106874 32.9173 -0.11686 33.4203 0.0430462 35.5361C0.419296 33.7907 0.769343 33.1314 1.83359 31.6986ZM8.21237 32.4048C7.96109 32.9499 7.78372 33.3618 7.66211 33.7866C7.13536 35.6286 7.89995 37.2734 6.24781 38.6083C7.0245 40.1933 6.98822 40.8248 8.79422 40.0921C9.49162 39.81 10.0667 39.4137 10.5794 38.9454C10.2894 39.7086 10.0267 40.4821 9.79195 41.2645C8.49994 41.8192 6.80077 42.1726 6.15039 40.7983C5.83461 40.1322 5.65656 39.4776 5.42611 38.6348C3.29828 36.4048 6.47961 33.4604 8.21237 32.4048ZM8.65312 33.4019C9.0932 33.6609 9.20944 34.1319 9.25781 34.766C8.99578 34.501 8.78548 34.3195 8.44551 34.3582C8.48435 34.0335 8.55387 33.7132 8.65312 33.4019ZM61.9328 45.2489C61.4665 45.3284 60.6294 45.5017 60.1631 45.5819C58.9168 45.7946 58.7703 46.0978 58.5768 47.3389C58.4854 47.9234 58.3591 48.6487 58.2677 49.2339C58.5123 48.5725 58.8072 47.8038 59.0921 47.173C59.3938 46.507 59.5624 46.4437 60.2027 46.0917C60.6562 45.8415 61.4786 45.4983 61.9328 45.2489ZM10.0829 53.9523C11.0625 57.3786 12.7301 60.7451 14.5784 63.5753V63.6256C14.4628 64.1122 14.3298 64.586 14.0483 64.9666C12.7267 66.7555 9.36464 64.1306 8.39109 63.1253C7.32752 62.0263 6.61466 60.724 6.44534 59.5039C6.32172 58.6135 6.44131 58.5925 7.05541 57.9624L9.53798 55.4204L10.0822 53.9523H10.0829ZM54.5382 56.1918C54.7404 56.8559 54.8996 57.5145 55.1939 58.22C55.6857 59.3986 55.9256 60.1279 55.9605 61.3928L56.0734 65.3955C56.4953 66.1431 56.5618 66.3022 56.4866 67.1559C56.3341 68.8986 55.7589 69.0141 54.2452 68.9876C53.5579 68.9754 50.8207 68.9618 50.1266 68.9013C49.145 68.8157 48.5947 68.728 48.2944 68.5016C49.8364 67.3564 52.4567 62.6291 52.9673 61.0013C53.5068 59.2817 54.0981 57.7809 54.5382 56.1918Z" fill="black"/>
<path d="M70.1533 27.6388C69.9492 27.642 69.7536 27.7219 69.6045 27.863C69.4555 28.0041 69.3637 28.1963 69.347 28.4021C69.3222 28.6685 69.4653 29.0097 69.6453 29.196C70.0767 29.0356 70.4946 28.9105 70.9132 28.8391C70.9721 28.7102 70.9979 28.5684 70.9884 28.4268C70.9788 28.2851 70.9342 28.1482 70.8585 28.0286C70.7829 27.909 70.6787 27.8106 70.5555 27.7425C70.4324 27.6744 70.2936 27.6387 70.1533 27.6388ZM57.9991 31.6306C57.8112 31.6298 57.6263 31.6773 57.4615 31.7685C57.2968 31.8597 57.1576 31.9918 57.057 32.1522C56.9565 32.3127 56.8978 32.4964 56.8865 32.6861C56.8753 32.8757 56.9117 33.0652 56.9926 33.2367C57.1273 33.5124 57.3598 33.7267 57.6436 33.8369C58.0481 33.3032 58.5254 32.8304 59.0613 32.4326C59.0453 32.3772 59.0251 32.3231 59.0008 32.2709C58.9102 32.0798 58.7683 31.9184 58.5912 31.8052C58.4142 31.692 58.2085 31.6315 57.9991 31.6306Z" fill="#FFFFCC"/>
</svg>
