<svg width="631" height="476" viewBox="0 0 631 476" fill="none" xmlns="http://www.w3.org/2000/svg">
<path d="M597.391 299.08C597.014 285.222 598.09 261.589 585.941 251.858C575.267 243.315 566.968 254.909 563.972 264.263C556.715 286.953 560.122 311.973 560.144 335.396C560.144 335.751 560.144 336.106 560.144 336.505C559.578 353.748 557.503 372.399 559.389 389.608C559.389 389.608 557.536 372.366 544 379.755C530.464 387.145 550.768 425.924 550.768 425.924C550.768 425.924 534.769 414.229 527.379 424.082C519.989 433.934 536.61 445.008 536.61 445.008C536.61 445.008 521.221 440.703 521.221 445.008C521.221 449.313 526.147 453.008 540.305 454.86H616.62C616.62 454.86 628.936 448.081 626.472 440.703C624.009 433.324 611.072 437.574 611.072 437.574C611.072 437.574 630.778 413.563 629.546 403.1C628.314 392.637 603.072 404.953 603.072 404.953C603.072 404.953 622.767 355.09 619.072 332.933C616.165 315.479 602.617 327.385 595.239 334.131C596.976 322.532 597.696 310.804 597.391 299.08Z" fill="#059F30" stroke="white" stroke-linecap="round" stroke-linejoin="round"/>
<path opacity="0.5" d="M597.391 299.08C597.014 285.222 598.09 261.589 585.941 251.858C575.267 243.315 566.968 254.909 563.972 264.263C556.715 286.953 560.122 311.973 560.144 335.396C560.144 335.751 560.144 336.106 560.144 336.505C559.578 353.748 557.503 372.399 559.389 389.608C559.389 389.608 557.536 372.366 544 379.755C530.464 387.145 550.768 425.924 550.768 425.924C550.768 425.924 534.769 414.229 527.379 424.082C519.989 433.934 536.61 445.008 536.61 445.008C536.61 445.008 521.221 440.703 521.221 445.008C521.221 449.313 526.147 453.008 540.305 454.86H616.62C616.62 454.86 628.936 448.081 626.472 440.703C624.009 433.324 611.072 437.574 611.072 437.574C611.072 437.574 630.778 413.563 629.546 403.1C628.314 392.637 603.072 404.953 603.072 404.953C603.072 404.953 622.767 355.09 619.072 332.933C616.165 315.479 602.617 327.385 595.239 334.131C596.976 322.532 597.696 310.804 597.391 299.08Z" fill="white"/>
<path d="M572.904 454.195L578.451 284.911" stroke="white" stroke-linecap="round" stroke-linejoin="round"/>
<path d="M575.988 383.406L604.914 356.322" stroke="white" stroke-linecap="round" stroke-linejoin="round"/>
<path d="M589.525 371.09L595.683 353.859" stroke="white" stroke-linecap="round" stroke-linejoin="round"/>
<path d="M551.978 404.332L574.135 428.342" stroke="white" stroke-linecap="round" stroke-linejoin="round"/>
<path d="M611.072 417.879L574.135 436.964" stroke="white" stroke-linecap="round" stroke-linejoin="round"/>
<path d="M591.378 428.953L604.914 428.342" stroke="white" stroke-linecap="round" stroke-linejoin="round"/>
<path d="M572.904 454.195L578.451 284.911" stroke="#059F30" stroke-linecap="round" stroke-linejoin="round"/>
<path d="M575.988 383.406L604.914 356.322" stroke="#059F30" stroke-linecap="round" stroke-linejoin="round"/>
<path d="M589.525 371.09L595.683 353.859" stroke="#059F30" stroke-linecap="round" stroke-linejoin="round"/>
<path d="M551.978 404.332L574.135 428.342" stroke="#059F30" stroke-linecap="round" stroke-linejoin="round"/>
<path d="M611.072 417.879L574.135 436.964" stroke="#059F30" stroke-linecap="round" stroke-linejoin="round"/>
<path d="M591.378 428.953L604.914 428.342" stroke="#059F30" stroke-linecap="round" stroke-linejoin="round"/>
<g opacity="0.8">
<path d="M572.904 454.195L578.451 284.911" stroke="white" stroke-linecap="round" stroke-linejoin="round"/>
<path d="M575.988 383.406L604.914 356.322" stroke="white" stroke-linecap="round" stroke-linejoin="round"/>
<path d="M589.525 371.09L595.683 353.859" stroke="white" stroke-linecap="round" stroke-linejoin="round"/>
<path d="M551.978 404.332L574.135 428.342" stroke="white" stroke-linecap="round" stroke-linejoin="round"/>
<path d="M611.072 417.879L574.135 436.964" stroke="white" stroke-linecap="round" stroke-linejoin="round"/>
<path d="M591.378 428.953L604.914 428.342" stroke="white" stroke-linecap="round" stroke-linejoin="round"/>
</g>
<path d="M467.164 419.987C467.164 437.196 480.8 451.155 480.8 451.155C480.8 451.155 494.437 437.196 494.437 419.987C494.437 402.778 480.8 388.82 480.8 388.82C480.8 388.82 467.164 402.767 467.164 419.987Z" fill="#059F30"/>
<path d="M457.711 446.539C464.368 454.006 475.619 454.816 475.619 454.816C475.619 454.816 476.162 443.51 469.55 436.043C462.937 428.575 451.642 427.765 451.642 427.765C451.642 427.765 451.087 439.072 457.711 446.539Z" fill="#059F30"/>
<path d="M492.462 435.787C485.505 442.944 485.549 454.261 485.549 454.261C485.549 454.261 496.855 453.962 503.801 446.794C510.747 439.626 510.725 428.32 510.725 428.32C510.725 428.32 499.407 428.62 492.462 435.787Z" fill="#059F30"/>
<g opacity="0.5">
<path d="M467.164 419.987C467.164 437.196 480.8 451.155 480.8 451.155C480.8 451.155 494.437 437.196 494.437 419.987C494.437 402.778 480.8 388.82 480.8 388.82C480.8 388.82 467.164 402.767 467.164 419.987Z" fill="white"/>
<path d="M480.8 451.155V388.82" stroke="white" stroke-linecap="round" stroke-linejoin="round"/>
<path d="M480.8 410.978L473.167 404.31" stroke="white" stroke-linecap="round" stroke-linejoin="round"/>
<path d="M480.922 421.274L490.376 407.583" stroke="white" stroke-linecap="round" stroke-linejoin="round"/>
<path d="M480.8 427.21L469.527 417.158" stroke="white" stroke-linecap="round" stroke-linejoin="round"/>
<path d="M480.922 435.21L492.073 425.28" stroke="white" stroke-linecap="round" stroke-linejoin="round"/>
<path d="M480.922 442.123L472.19 435.21" stroke="white" stroke-linecap="round" stroke-linejoin="round"/>
<path d="M457.711 446.539C464.368 454.006 475.619 454.816 475.619 454.816C475.619 454.816 476.162 443.51 469.55 436.043C462.937 428.575 451.642 427.765 451.642 427.765C451.642 427.765 451.087 439.072 457.711 446.539Z" fill="white"/>
<path d="M475.619 454.816L451.641 427.765" stroke="white" stroke-linecap="round" stroke-linejoin="round"/>
<path d="M460.163 437.385L454.282 437.43" stroke="white" stroke-linecap="round" stroke-linejoin="round"/>
<path d="M464.179 441.801L463.014 432.226" stroke="white" stroke-linecap="round" stroke-linejoin="round"/>
<path d="M466.41 444.431L457.655 444.397" stroke="white" stroke-linecap="round" stroke-linejoin="round"/>
<path d="M469.538 447.848L470.548 439.249" stroke="white" stroke-linecap="round" stroke-linejoin="round"/>
<path d="M472.201 450.844L465.755 451.21" stroke="white" stroke-linecap="round" stroke-linejoin="round"/>
<path d="M492.462 435.787C485.505 442.944 485.549 454.261 485.549 454.261C485.549 454.261 496.855 453.962 503.801 446.794C510.747 439.626 510.725 428.32 510.725 428.32C510.725 428.32 499.407 428.62 492.462 435.787Z" fill="white"/>
<path d="M485.549 454.261L510.725 428.32" stroke="white" stroke-linecap="round" stroke-linejoin="round"/>
<path d="M501.771 437.541L501.294 431.682" stroke="white" stroke-linecap="round" stroke-linejoin="round"/>
<path d="M497.665 441.879L507.13 439.992" stroke="white" stroke-linecap="round" stroke-linejoin="round"/>
<path d="M495.213 444.297L494.592 435.565" stroke="white" stroke-linecap="round" stroke-linejoin="round"/>
<path d="M492.029 447.671L500.683 448.048" stroke="white" stroke-linecap="round" stroke-linejoin="round"/>
<path d="M489.244 450.544L488.401 444.153" stroke="white" stroke-linecap="round" stroke-linejoin="round"/>
</g>
<path d="M480.8 451.155V388.82" stroke="#059F30" stroke-linecap="round" stroke-linejoin="round"/>
<path d="M480.8 410.978L473.167 404.31" stroke="#059F30" stroke-linecap="round" stroke-linejoin="round"/>
<path d="M480.922 421.274L490.376 407.583" stroke="#059F30" stroke-linecap="round" stroke-linejoin="round"/>
<path d="M480.8 427.211L469.527 417.158" stroke="#059F30" stroke-linecap="round" stroke-linejoin="round"/>
<path d="M480.922 435.21L492.073 425.28" stroke="#059F30" stroke-linecap="round" stroke-linejoin="round"/>
<path d="M480.922 442.123L472.19 435.21" stroke="#059F30" stroke-linecap="round" stroke-linejoin="round"/>
<g opacity="0.7">
<path d="M480.8 451.155V388.82" stroke="white" stroke-linecap="round" stroke-linejoin="round"/>
<path d="M480.8 410.978L473.167 404.31" stroke="white" stroke-linecap="round" stroke-linejoin="round"/>
<path d="M480.922 421.274L490.376 407.583" stroke="white" stroke-linecap="round" stroke-linejoin="round"/>
<path d="M480.8 427.21L469.527 417.158" stroke="white" stroke-linecap="round" stroke-linejoin="round"/>
<path d="M480.922 435.21L492.073 425.28" stroke="white" stroke-linecap="round" stroke-linejoin="round"/>
<path d="M480.922 442.123L472.19 435.21" stroke="white" stroke-linecap="round" stroke-linejoin="round"/>
</g>
<path d="M475.619 454.816L451.642 427.765" stroke="#059F30" stroke-linecap="round" stroke-linejoin="round"/>
<path d="M460.163 437.385L454.282 437.43" stroke="#059F30" stroke-linecap="round" stroke-linejoin="round"/>
<path d="M464.179 441.801L463.014 432.226" stroke="#059F30" stroke-linecap="round" stroke-linejoin="round"/>
<path d="M466.41 444.431L457.655 444.397" stroke="#059F30" stroke-linecap="round" stroke-linejoin="round"/>
<path d="M469.538 447.848L470.548 439.249" stroke="#059F30" stroke-linecap="round" stroke-linejoin="round"/>
<path d="M472.201 450.844L465.755 451.21" stroke="#059F30" stroke-linecap="round" stroke-linejoin="round"/>
<g opacity="0.7">
<path d="M475.619 454.816L451.642 427.765" stroke="white" stroke-linecap="round" stroke-linejoin="round"/>
<path d="M460.163 437.385L454.282 437.429" stroke="white" stroke-linecap="round" stroke-linejoin="round"/>
<path d="M464.18 441.801L463.015 432.226" stroke="white" stroke-linecap="round" stroke-linejoin="round"/>
<path d="M466.41 444.431L457.655 444.397" stroke="white" stroke-linecap="round" stroke-linejoin="round"/>
<path d="M469.539 447.848L470.548 439.249" stroke="white" stroke-linecap="round" stroke-linejoin="round"/>
<path d="M472.201 450.844L465.755 451.21" stroke="white" stroke-linecap="round" stroke-linejoin="round"/>
</g>
<path d="M485.549 454.261L510.725 428.32" stroke="#059F30" stroke-linecap="round" stroke-linejoin="round"/>
<path d="M501.771 437.541L501.294 431.682" stroke="#059F30" stroke-linecap="round" stroke-linejoin="round"/>
<path d="M497.665 441.879L507.13 439.992" stroke="#059F30" stroke-linecap="round" stroke-linejoin="round"/>
<path d="M495.213 444.297L494.592 435.565" stroke="#059F30" stroke-linecap="round" stroke-linejoin="round"/>
<path d="M492.029 447.671L500.683 448.048" stroke="#059F30" stroke-linecap="round" stroke-linejoin="round"/>
<path d="M489.244 450.544L488.401 444.153" stroke="#059F30" stroke-linecap="round" stroke-linejoin="round"/>
<g opacity="0.7">
<path d="M485.549 454.261L510.725 428.32" stroke="white" stroke-linecap="round" stroke-linejoin="round"/>
<path d="M501.771 437.54L501.294 431.682" stroke="white" stroke-linecap="round" stroke-linejoin="round"/>
<path d="M497.665 441.879L507.13 439.992" stroke="white" stroke-linecap="round" stroke-linejoin="round"/>
<path d="M495.213 444.297L494.592 435.565" stroke="white" stroke-linecap="round" stroke-linejoin="round"/>
<path d="M492.029 447.671L500.683 448.048" stroke="white" stroke-linecap="round" stroke-linejoin="round"/>
<path d="M489.244 450.544L488.401 444.153" stroke="white" stroke-linecap="round" stroke-linejoin="round"/>
</g>
<path d="M33.2101 299.08C33.5762 285.222 32.511 261.589 44.6606 251.858C55.3344 243.315 63.6338 254.909 66.6184 264.263C73.886 286.953 70.4686 311.973 70.4575 335.396C70.4575 335.751 70.4575 336.106 70.4575 336.505C71.0344 353.748 73.0982 372.399 71.223 389.608C71.223 389.608 73.0649 372.366 86.6124 379.755C100.16 387.145 79.8331 425.924 79.8331 425.924C79.8331 425.924 95.8438 414.229 103.233 424.082C110.623 433.934 94.0242 444.963 94.0242 444.963C94.0242 444.963 109.414 440.658 109.414 444.963C109.414 449.268 104.487 452.963 90.3294 454.816H13.9816C13.9816 454.816 1.6657 448.037 4.12889 440.658C6.59208 433.28 19.5183 437.574 19.5183 437.574C19.5183 437.574 -0.176149 413.563 1.05545 403.1C2.28704 392.637 27.5292 404.953 27.5292 404.953C27.5292 404.953 7.82367 355.09 11.5185 332.966C14.4255 315.513 27.9841 327.418 35.3515 334.164C33.6164 322.554 32.8999 310.815 33.2101 299.08Z" fill="#059F30" stroke="white" stroke-linecap="round" stroke-linejoin="round"/>
<path opacity="0.5" d="M33.2101 299.08C33.5762 285.222 32.511 261.589 44.6606 251.858C55.3344 243.315 63.6338 254.909 66.6184 264.263C73.886 286.953 70.4686 311.973 70.4575 335.396C70.4575 335.751 70.4575 336.106 70.4575 336.505C71.0344 353.748 73.0982 372.399 71.223 389.608C71.223 389.608 73.0649 372.366 86.6124 379.755C100.16 387.145 79.8331 425.924 79.8331 425.924C79.8331 425.924 95.8438 414.229 103.233 424.082C110.623 433.934 94.0242 444.963 94.0242 444.963C94.0242 444.963 109.414 440.658 109.414 444.963C109.414 449.268 104.487 452.963 90.3294 454.816H13.9816C13.9816 454.816 1.6657 448.037 4.12889 440.658C6.59208 433.28 19.5183 437.574 19.5183 437.574C19.5183 437.574 -0.176149 413.563 1.05545 403.1C2.28704 392.637 27.5292 404.953 27.5292 404.953C27.5292 404.953 7.82367 355.09 11.5185 332.966C14.4255 315.513 27.9841 327.418 35.3515 334.164C33.6164 322.554 32.8999 310.815 33.2101 299.08Z" fill="white"/>
<path d="M57.6866 454.195L52.15 284.911" stroke="white" stroke-linecap="round" stroke-linejoin="round"/>
<path d="M54.6132 383.406L25.6763 356.322" stroke="white" stroke-linecap="round" stroke-linejoin="round"/>
<path d="M41.0656 371.09L34.9077 353.859" stroke="white" stroke-linecap="round" stroke-linejoin="round"/>
<path d="M78.6126 404.332L56.455 428.342" stroke="white" stroke-linecap="round" stroke-linejoin="round"/>
<path d="M19.5182 417.879L56.455 436.964" stroke="white" stroke-linecap="round" stroke-linejoin="round"/>
<path d="M39.2238 428.953L25.6763 428.342" stroke="white" stroke-linecap="round" stroke-linejoin="round"/>
<path d="M57.6866 454.195L52.15 284.911" stroke="#059F30" stroke-linecap="round" stroke-linejoin="round"/>
<path d="M54.6132 383.406L25.6763 356.322" stroke="#059F30" stroke-linecap="round" stroke-linejoin="round"/>
<path d="M41.0656 371.09L34.9077 353.859" stroke="#059F30" stroke-linecap="round" stroke-linejoin="round"/>
<path d="M78.6126 404.332L56.455 428.342" stroke="#059F30" stroke-linecap="round" stroke-linejoin="round"/>
<path d="M19.5182 417.879L56.455 436.964" stroke="#059F30" stroke-linecap="round" stroke-linejoin="round"/>
<path d="M39.2238 428.953L25.6763 428.342" stroke="#059F30" stroke-linecap="round" stroke-linejoin="round"/>
<g opacity="0.8">
<path d="M57.6866 454.195L52.15 284.911" stroke="white" stroke-linecap="round" stroke-linejoin="round"/>
<path d="M54.6132 383.406L25.6763 356.322" stroke="white" stroke-linecap="round" stroke-linejoin="round"/>
<path d="M41.0656 371.09L34.9077 353.859" stroke="white" stroke-linecap="round" stroke-linejoin="round"/>
<path d="M78.6126 404.332L56.455 428.342" stroke="white" stroke-linecap="round" stroke-linejoin="round"/>
<path d="M19.5182 417.879L56.455 436.964" stroke="white" stroke-linecap="round" stroke-linejoin="round"/>
<path d="M39.2238 428.953L25.6763 428.342" stroke="white" stroke-linecap="round" stroke-linejoin="round"/>
</g>
<path d="M165.656 419.987C165.656 437.196 152.02 451.155 152.02 451.155C152.02 451.155 138.406 437.196 138.406 419.987C138.406 402.778 152.042 388.82 152.042 388.82C152.042 388.82 165.656 402.767 165.656 419.987Z" fill="#059F30"/>
<path d="M175.099 446.539C168.441 454.006 157.19 454.816 157.19 454.816C157.19 454.816 156.647 443.51 163.271 436.043C169.895 428.575 181.179 427.765 181.179 427.765C181.179 427.765 181.678 439.072 175.099 446.539Z" fill="#059F30"/>
<path d="M140.359 435.787C147.305 442.944 147.271 454.261 147.271 454.261C147.271 454.261 135.965 453.962 129.008 446.794C122.051 439.626 122.096 428.32 122.096 428.32C122.096 428.32 133.402 428.62 140.359 435.787Z" fill="#059F30"/>
<g opacity="0.5">
<path d="M165.656 419.987C165.656 437.196 152.02 451.155 152.02 451.155C152.02 451.155 138.406 437.196 138.406 419.987C138.406 402.778 152.042 388.82 152.042 388.82C152.042 388.82 165.656 402.767 165.656 419.987Z" fill="white"/>
<path d="M152.02 451.155V388.82" stroke="white" stroke-linecap="round" stroke-linejoin="round"/>
<path d="M152.02 410.978L159.654 404.31" stroke="white" stroke-linecap="round" stroke-linejoin="round"/>
<path d="M151.898 421.274L142.445 407.583" stroke="white" stroke-linecap="round" stroke-linejoin="round"/>
<path d="M152.02 427.21L163.293 417.158" stroke="white" stroke-linecap="round" stroke-linejoin="round"/>
<path d="M151.898 435.21L140.747 425.28" stroke="white" stroke-linecap="round" stroke-linejoin="round"/>
<path d="M151.898 442.123L160.619 435.21" stroke="white" stroke-linecap="round" stroke-linejoin="round"/>
<path d="M175.099 446.539C168.441 454.006 157.19 454.816 157.19 454.816C157.19 454.816 156.647 443.51 163.271 436.043C169.895 428.575 181.179 427.765 181.179 427.765C181.179 427.765 181.678 439.072 175.099 446.539Z" fill="white"/>
<path d="M157.191 454.816L181.179 427.765" stroke="white" stroke-linecap="round" stroke-linejoin="round"/>
<path d="M172.658 437.385L178.527 437.43" stroke="white" stroke-linecap="round" stroke-linejoin="round"/>
<path d="M168.641 441.801L169.806 432.226" stroke="white" stroke-linecap="round" stroke-linejoin="round"/>
<path d="M166.4 444.431L175.165 444.397" stroke="white" stroke-linecap="round" stroke-linejoin="round"/>
<path d="M163.271 447.848L162.261 439.249" stroke="white" stroke-linecap="round" stroke-linejoin="round"/>
<path d="M160.619 450.844L167.066 451.21" stroke="white" stroke-linecap="round" stroke-linejoin="round"/>
<path d="M140.359 435.787C147.305 442.944 147.271 454.261 147.271 454.261C147.271 454.261 135.965 453.962 129.008 446.794C122.051 439.626 122.096 428.32 122.096 428.32C122.096 428.32 133.402 428.62 140.359 435.787Z" fill="white"/>
<path d="M147.271 454.261L122.096 428.32" stroke="white" stroke-linecap="round" stroke-linejoin="round"/>
<path d="M131.039 437.541L131.527 431.682" stroke="white" stroke-linecap="round" stroke-linejoin="round"/>
<path d="M135.155 441.879L125.691 439.992" stroke="white" stroke-linecap="round" stroke-linejoin="round"/>
<path d="M137.596 444.297L138.228 435.565" stroke="white" stroke-linecap="round" stroke-linejoin="round"/>
<path d="M140.78 447.671L132.126 448.048" stroke="white" stroke-linecap="round" stroke-linejoin="round"/>
<path d="M143.576 450.544L144.409 444.153" stroke="white" stroke-linecap="round" stroke-linejoin="round"/>
</g>
<path d="M152.02 451.155V388.82" stroke="#059F30" stroke-linecap="round" stroke-linejoin="round"/>
<path d="M152.02 410.978L159.654 404.31" stroke="#059F30" stroke-linecap="round" stroke-linejoin="round"/>
<path d="M151.898 421.274L142.445 407.583" stroke="#059F30" stroke-linecap="round" stroke-linejoin="round"/>
<path d="M152.02 427.211L163.293 417.158" stroke="#059F30" stroke-linecap="round" stroke-linejoin="round"/>
<path d="M151.898 435.21L140.747 425.28" stroke="#059F30" stroke-linecap="round" stroke-linejoin="round"/>
<path d="M151.898 442.123L160.619 435.21" stroke="#059F30" stroke-linecap="round" stroke-linejoin="round"/>
<g opacity="0.7">
<path d="M152.02 451.155V388.82" stroke="white" stroke-linecap="round" stroke-linejoin="round"/>
<path d="M152.02 410.978L159.654 404.31" stroke="white" stroke-linecap="round" stroke-linejoin="round"/>
<path d="M151.898 421.274L142.445 407.583" stroke="white" stroke-linecap="round" stroke-linejoin="round"/>
<path d="M152.02 427.21L163.293 417.158" stroke="white" stroke-linecap="round" stroke-linejoin="round"/>
<path d="M151.898 435.21L140.747 425.28" stroke="white" stroke-linecap="round" stroke-linejoin="round"/>
<path d="M151.898 442.123L160.619 435.21" stroke="white" stroke-linecap="round" stroke-linejoin="round"/>
</g>
<path d="M157.191 454.816L181.179 427.765" stroke="#059F30" stroke-linecap="round" stroke-linejoin="round"/>
<path d="M172.658 437.385L178.527 437.43" stroke="#059F30" stroke-linecap="round" stroke-linejoin="round"/>
<path d="M168.641 441.801L169.806 432.226" stroke="#059F30" stroke-linecap="round" stroke-linejoin="round"/>
<path d="M166.4 444.431L175.165 444.397" stroke="#059F30" stroke-linecap="round" stroke-linejoin="round"/>
<path d="M163.271 447.848L162.261 439.249" stroke="#059F30" stroke-linecap="round" stroke-linejoin="round"/>
<path d="M160.619 450.844L167.065 451.21" stroke="#059F30" stroke-linecap="round" stroke-linejoin="round"/>
<g opacity="0.7">
<path d="M157.191 454.816L181.179 427.765" stroke="white" stroke-linecap="round" stroke-linejoin="round"/>
<path d="M172.658 437.385L178.527 437.429" stroke="white" stroke-linecap="round" stroke-linejoin="round"/>
<path d="M168.641 441.801L169.806 432.226" stroke="white" stroke-linecap="round" stroke-linejoin="round"/>
<path d="M166.4 444.431L175.165 444.397" stroke="white" stroke-linecap="round" stroke-linejoin="round"/>
<path d="M163.271 447.848L162.261 439.249" stroke="white" stroke-linecap="round" stroke-linejoin="round"/>
<path d="M160.619 450.844L167.066 451.21" stroke="white" stroke-linecap="round" stroke-linejoin="round"/>
</g>
<path d="M147.271 454.261L122.096 428.32" stroke="#059F30" stroke-linecap="round" stroke-linejoin="round"/>
<path d="M131.039 437.541L131.527 431.682" stroke="#059F30" stroke-linecap="round" stroke-linejoin="round"/>
<path d="M135.155 441.879L125.691 439.992" stroke="#059F30" stroke-linecap="round" stroke-linejoin="round"/>
<path d="M137.596 444.297L138.228 435.565" stroke="#059F30" stroke-linecap="round" stroke-linejoin="round"/>
<path d="M140.78 447.671L132.126 448.048" stroke="#059F30" stroke-linecap="round" stroke-linejoin="round"/>
<path d="M143.576 450.544L144.409 444.153" stroke="#059F30" stroke-linecap="round" stroke-linejoin="round"/>
<g opacity="0.7">
<path d="M147.271 454.261L122.096 428.32" stroke="white" stroke-linecap="round" stroke-linejoin="round"/>
<path d="M131.039 437.54L131.527 431.682" stroke="white" stroke-linecap="round" stroke-linejoin="round"/>
<path d="M135.155 441.879L125.691 439.992" stroke="white" stroke-linecap="round" stroke-linejoin="round"/>
<path d="M137.596 444.297L138.228 435.565" stroke="white" stroke-linecap="round" stroke-linejoin="round"/>
<path d="M140.78 447.671L132.126 448.048" stroke="white" stroke-linecap="round" stroke-linejoin="round"/>
<path d="M143.576 450.544L144.409 444.153" stroke="white" stroke-linecap="round" stroke-linejoin="round"/>
</g>
<path d="M472.801 125.06H172.857C172.767 125.061 172.678 125.045 172.595 125.011C172.511 124.978 172.436 124.928 172.372 124.865C172.307 124.802 172.257 124.727 172.222 124.644C172.187 124.561 172.169 124.473 172.169 124.383C172.169 124.2 172.242 124.025 172.371 123.896C172.5 123.767 172.675 123.695 172.857 123.695H472.801C472.89 123.695 472.979 123.713 473.062 123.747C473.145 123.782 473.22 123.833 473.283 123.897C473.346 123.961 473.396 124.037 473.429 124.12C473.462 124.204 473.479 124.293 473.477 124.383C473.477 124.562 473.406 124.734 473.279 124.861C473.152 124.988 472.98 125.06 472.801 125.06Z" fill="#059F30"/>
<g opacity="0.3">
<path d="M472.801 125.06H172.857C172.767 125.061 172.678 125.045 172.595 125.011C172.511 124.978 172.436 124.928 172.372 124.865C172.307 124.802 172.257 124.727 172.222 124.644C172.187 124.561 172.169 124.473 172.169 124.383C172.169 124.2 172.242 124.025 172.371 123.896C172.5 123.767 172.675 123.695 172.857 123.695H472.801C472.89 123.695 472.979 123.713 473.062 123.747C473.145 123.782 473.22 123.833 473.283 123.897C473.346 123.961 473.396 124.037 473.429 124.12C473.462 124.204 473.479 124.293 473.477 124.383C473.477 124.562 473.406 124.734 473.279 124.861C473.152 124.988 472.98 125.06 472.801 125.06Z" fill="white"/>
</g>
<path d="M472.201 244.025H172.258C172.168 244.026 172.079 244.01 171.996 243.977C171.912 243.943 171.836 243.894 171.772 243.831C171.708 243.768 171.658 243.693 171.623 243.61C171.588 243.527 171.57 243.438 171.57 243.348C171.57 243.166 171.643 242.991 171.772 242.862C171.901 242.733 172.076 242.66 172.258 242.66H472.201C472.291 242.66 472.38 242.678 472.463 242.713C472.546 242.747 472.621 242.798 472.684 242.862C472.747 242.926 472.797 243.002 472.83 243.086C472.863 243.169 472.88 243.258 472.878 243.348C472.878 243.437 472.861 243.525 472.827 243.607C472.793 243.689 472.743 243.764 472.68 243.827C472.617 243.89 472.543 243.939 472.46 243.973C472.378 244.007 472.29 244.025 472.201 244.025Z" fill="#059F30"/>
<g opacity="0.3">
<path d="M472.201 244.025H172.258C172.168 244.026 172.079 244.01 171.996 243.977C171.912 243.943 171.836 243.894 171.772 243.831C171.708 243.768 171.658 243.693 171.623 243.61C171.588 243.527 171.57 243.438 171.57 243.348C171.57 243.166 171.643 242.991 171.772 242.862C171.901 242.733 172.076 242.66 172.258 242.66H472.201C472.291 242.66 472.38 242.678 472.463 242.713C472.546 242.747 472.621 242.798 472.684 242.862C472.747 242.926 472.797 243.002 472.83 243.086C472.863 243.169 472.88 243.258 472.878 243.348C472.878 243.437 472.861 243.525 472.827 243.607C472.793 243.689 472.743 243.764 472.68 243.827C472.617 243.89 472.543 243.939 472.46 243.973C472.378 244.007 472.29 244.025 472.201 244.025Z" fill="white"/>
</g>
<path d="M472.201 341.277H172.258C172.076 341.277 171.901 341.204 171.772 341.075C171.643 340.946 171.57 340.771 171.57 340.589C171.57 340.499 171.588 340.41 171.623 340.327C171.658 340.244 171.708 340.169 171.772 340.106C171.836 340.043 171.912 339.993 171.996 339.96C172.079 339.927 172.168 339.91 172.258 339.912H472.201C472.29 339.912 472.378 339.929 472.46 339.963C472.543 339.997 472.617 340.047 472.68 340.11C472.743 340.173 472.793 340.248 472.827 340.33C472.861 340.412 472.878 340.5 472.878 340.589C472.88 340.678 472.863 340.768 472.83 340.851C472.797 340.934 472.747 341.01 472.684 341.074C472.621 341.138 472.546 341.189 472.463 341.224C472.38 341.259 472.291 341.277 472.201 341.277Z" fill="#059F30"/>
<g opacity="0.3">
<path d="M472.201 341.277H172.258C172.076 341.277 171.901 341.204 171.772 341.075C171.643 340.946 171.57 340.771 171.57 340.589C171.57 340.499 171.588 340.41 171.623 340.327C171.658 340.244 171.708 340.169 171.772 340.106C171.836 340.043 171.912 339.993 171.996 339.96C172.079 339.927 172.168 339.91 172.258 339.912H472.201C472.29 339.912 472.378 339.929 472.46 339.963C472.543 339.997 472.617 340.047 472.68 340.11C472.743 340.173 472.793 340.248 472.827 340.33C472.861 340.412 472.878 340.5 472.878 340.589C472.88 340.678 472.863 340.768 472.83 340.851C472.797 340.934 472.747 341.01 472.684 341.074C472.621 341.138 472.546 341.189 472.463 341.224C472.38 341.259 472.291 341.277 472.201 341.277Z" fill="white"/>
</g>
<path d="M236.024 357.731V458.944" stroke="#263238" stroke-width="0.265171" stroke-miterlimit="10"/>
<path d="M250.481 357.731V458.944" stroke="#263238" stroke-width="0.265171" stroke-miterlimit="10"/>
<path d="M264.938 357.731V458.944" stroke="#263238" stroke-width="0.265171" stroke-miterlimit="10"/>
<path d="M279.396 357.731V458.944" stroke="#263238" stroke-width="0.265171" stroke-miterlimit="10"/>
<path d="M293.853 357.731V458.944" stroke="#263238" stroke-width="0.265171" stroke-miterlimit="10"/>
<path d="M308.311 357.731V458.944" stroke="#263238" stroke-width="0.265171" stroke-miterlimit="10"/>
<path d="M322.768 357.731V458.944" stroke="#263238" stroke-width="0.265171" stroke-miterlimit="10"/>
<path d="M337.225 357.731V458.944" stroke="#263238" stroke-width="0.265171" stroke-miterlimit="10"/>
<path d="M351.683 357.731V458.944" stroke="#263238" stroke-width="0.265171" stroke-miterlimit="10"/>
<path d="M366.14 357.731V458.944" stroke="#263238" stroke-width="0.265171" stroke-miterlimit="10"/>
<path d="M380.597 357.731V458.944" stroke="#263238" stroke-width="0.265171" stroke-miterlimit="10"/>
<path d="M395.055 357.731V458.944" stroke="#263238" stroke-width="0.265171" stroke-miterlimit="10"/>
<path d="M236.745 367.129H394.334" stroke="#263238" stroke-width="0.265171" stroke-miterlimit="10"/>
<path d="M236.745 380.865H394.334" stroke="#263238" stroke-width="0.265171" stroke-miterlimit="10"/>
<path d="M236.745 394.601H394.334" stroke="#263238" stroke-width="0.265171" stroke-miterlimit="10"/>
<path d="M236.745 408.337H394.334" stroke="#263238" stroke-width="0.265171" stroke-miterlimit="10"/>
<path d="M236.745 422.073H394.334" stroke="#263238" stroke-width="0.265171" stroke-miterlimit="10"/>
<path d="M236.745 435.81H394.334" stroke="#263238" stroke-width="0.265171" stroke-miterlimit="10"/>
<path d="M236.745 449.546H394.334" stroke="#263238" stroke-width="0.265171" stroke-miterlimit="10"/>
<path d="M269.854 393.236L248.706 458.433H292.999L271.84 393.236C271.772 393.026 271.64 392.843 271.461 392.712C271.283 392.582 271.068 392.512 270.847 392.512C270.626 392.512 270.411 392.582 270.232 392.712C270.054 392.843 269.921 393.026 269.854 393.236Z" fill="#059F30" stroke="#263238" stroke-width="1.06068" stroke-miterlimit="10"/>
<path d="M310.175 371.645L282.025 458.433H340.343L312.161 371.645C312.093 371.434 311.961 371.251 311.782 371.121C311.604 370.991 311.388 370.921 311.168 370.921C310.947 370.921 310.732 370.991 310.553 371.121C310.375 371.251 310.242 371.434 310.175 371.645Z" fill="#263238" stroke="#263238" stroke-width="1.06068" stroke-miterlimit="10"/>
<path d="M347.278 408.149L330.956 458.433H365.574L349.219 408.149C349.143 407.954 349.009 407.786 348.836 407.668C348.663 407.55 348.458 407.487 348.249 407.487C348.039 407.487 347.834 407.55 347.661 407.668C347.488 407.786 347.354 407.954 347.278 408.149Z" fill="#059F30" stroke="#263238" stroke-width="1.06068" stroke-miterlimit="10"/>
<path d="M369.635 425.413L358.928 458.433H382.328L371.621 425.413C371.554 425.203 371.421 425.019 371.243 424.889C371.064 424.759 370.849 424.689 370.628 424.689C370.407 424.689 370.192 424.759 370.014 424.889C369.835 425.019 369.703 425.203 369.635 425.413Z" fill="#263238" stroke="#263238" stroke-width="1.06068" stroke-miterlimit="10"/>
<path d="M234.115 325.743C227.771 325.743 221.569 323.862 216.294 320.337C211.019 316.812 206.908 311.803 204.48 305.941C202.052 300.08 201.417 293.63 202.655 287.408C203.892 281.186 206.947 275.47 211.434 270.984C215.92 266.498 221.635 263.443 227.857 262.205C234.08 260.968 240.529 261.603 246.391 264.031C252.252 266.459 257.262 270.57 260.786 275.845C264.311 281.12 266.192 287.322 266.192 293.666C266.183 302.171 262.801 310.324 256.787 316.338C250.774 322.352 242.62 325.734 234.115 325.743ZM234.115 271.009C229.635 271.011 225.255 272.342 221.531 274.833C217.806 277.324 214.904 280.863 213.191 285.003C211.478 289.144 211.031 293.699 211.906 298.093C212.782 302.487 214.94 306.523 218.11 309.691C221.279 312.858 225.316 315.015 229.71 315.888C234.105 316.762 238.66 316.312 242.799 314.597C246.939 312.882 250.477 309.978 252.966 306.252C255.455 302.527 256.783 298.147 256.783 293.666C256.777 287.657 254.387 281.896 250.137 277.648C245.887 273.4 240.124 271.012 234.115 271.009Z" fill="#263238" stroke="#263238" stroke-width="1.06068" stroke-miterlimit="10"/>
<path d="M234.115 325.743C229.786 325.756 225.5 324.886 221.518 323.187C217.537 321.487 213.944 318.993 210.959 315.857L217.761 309.344C219.868 311.559 222.406 313.321 225.218 314.521C228.03 315.721 231.058 316.334 234.115 316.323C237.091 316.323 240.037 315.737 242.786 314.598C245.535 313.46 248.032 311.791 250.136 309.687C252.24 307.583 253.909 305.085 255.048 302.336C256.186 299.588 256.772 296.641 256.772 293.666C256.772 290.691 256.186 287.744 255.048 284.996C253.909 282.247 252.24 279.749 250.136 277.645C248.032 275.541 245.535 273.872 242.786 272.734C240.037 271.595 237.091 271.009 234.115 271.009V261.589C238.328 261.589 242.499 262.419 246.391 264.031C250.282 265.643 253.818 268.006 256.797 270.984C259.776 273.963 262.139 277.499 263.751 281.391C265.363 285.282 266.192 289.454 266.192 293.666C266.192 297.878 265.363 302.05 263.751 305.941C262.139 309.833 259.776 313.369 256.797 316.348C253.818 319.326 250.282 321.689 246.391 323.301C242.499 324.913 238.328 325.743 234.115 325.743Z" fill="#059F30" stroke="#263238" stroke-width="1.06068" stroke-miterlimit="10"/>
<path d="M313.226 325.743C306.881 325.745 300.678 323.866 295.402 320.342C290.125 316.819 286.012 311.81 283.583 305.949C281.153 300.088 280.516 293.638 281.753 287.415C282.989 281.192 286.043 275.475 290.529 270.988C295.015 266.501 300.73 263.445 306.953 262.206C313.175 260.968 319.626 261.602 325.488 264.03C331.349 266.457 336.36 270.569 339.885 275.844C343.41 281.119 345.292 287.321 345.292 293.666C345.283 302.169 341.902 310.321 335.891 316.334C329.879 322.348 321.729 325.731 313.226 325.743ZM313.226 271.009C308.746 271.014 304.367 272.346 300.644 274.838C296.921 277.331 294.021 280.871 292.309 285.011C290.598 289.151 290.152 293.706 291.029 298.1C291.906 302.493 294.066 306.528 297.235 309.695C300.405 312.861 304.442 315.017 308.836 315.889C313.23 316.762 317.785 316.312 321.924 314.596C326.062 312.881 329.6 309.977 332.088 306.251C334.577 302.526 335.905 298.146 335.905 293.666C335.896 287.656 333.503 281.895 329.251 277.647C324.999 273.399 319.236 271.012 313.226 271.009Z" fill="#263238" stroke="#263238" stroke-width="1.06068" stroke-miterlimit="10"/>
<path d="M325.708 323.213L322.047 314.548C326.859 312.508 330.818 308.869 333.254 304.245C335.691 299.622 336.455 294.298 335.417 289.176C334.379 284.054 331.603 279.448 327.56 276.137C323.516 272.827 318.452 271.015 313.226 271.009V261.589C320.627 261.59 327.8 264.15 333.53 268.836C339.259 273.521 343.192 280.044 344.661 287.298C346.13 294.552 345.046 302.091 341.592 308.637C338.137 315.182 332.526 320.332 325.708 323.213Z" fill="#059F30" stroke="#263238" stroke-width="1.06068" stroke-miterlimit="10"/>
<path d="M392.325 325.743C385.981 325.743 379.779 323.862 374.504 320.337C369.229 316.812 365.118 311.803 362.69 305.941C360.262 300.08 359.627 293.63 360.865 287.408C362.102 281.186 365.157 275.47 369.643 270.984C374.129 266.498 379.845 263.443 386.067 262.205C392.29 260.968 398.739 261.603 404.601 264.031C410.462 266.459 415.472 270.57 418.996 275.845C422.521 281.12 424.402 287.322 424.402 293.666C424.393 302.171 421.011 310.324 414.997 316.338C408.984 322.352 400.83 325.734 392.325 325.743ZM392.325 271.009C387.844 271.009 383.464 272.338 379.738 274.828C376.012 277.317 373.108 280.856 371.393 284.996C369.678 289.136 369.229 293.691 370.104 298.086C370.978 302.481 373.136 306.518 376.304 309.687C379.473 312.856 383.51 315.013 387.905 315.888C392.3 316.762 396.856 316.313 400.996 314.598C405.136 312.883 408.674 309.979 411.164 306.254C413.653 302.528 414.982 298.147 414.982 293.666C414.976 287.659 412.587 281.899 408.34 277.652C404.092 273.404 398.332 271.015 392.325 271.009Z" fill="#263238" stroke="#263238" stroke-width="1.06068" stroke-miterlimit="10"/>
<path d="M414.538 289.15C413.486 284.038 410.705 279.443 406.664 276.14C402.623 272.836 397.567 271.024 392.347 271.009V261.589C399.74 261.608 406.901 264.172 412.626 268.85C418.35 273.528 422.29 280.034 423.781 287.275L414.538 289.15Z" fill="#059F30" stroke="#263238" stroke-width="1.06068" stroke-miterlimit="10"/>
<path d="M246.908 226.073H397.551" stroke="#263238" stroke-width="1.06068" stroke-miterlimit="10"/>
<path d="M246.908 226.073V222.866" stroke="#263238" stroke-width="1.06068" stroke-miterlimit="10"/>
<path d="M277.033 226.073V222.866" stroke="#263238" stroke-width="1.06068" stroke-miterlimit="10"/>
<path d="M307.168 226.073V222.866" stroke="#263238" stroke-width="1.06068" stroke-miterlimit="10"/>
<path d="M337.292 226.073V222.866" stroke="#263238" stroke-width="1.06068" stroke-miterlimit="10"/>
<path d="M367.416 226.073V222.866" stroke="#263238" stroke-width="1.06068" stroke-miterlimit="10"/>
<path d="M397.551 226.073V222.866" stroke="#263238" stroke-width="1.06068" stroke-miterlimit="10"/>
<path d="M272.816 183.255H251.125V208.941H272.816V183.255Z" fill="#059F30" stroke="#263238" stroke-width="1.06068" stroke-miterlimit="10"/>
<path d="M302.94 153.286H281.249V213.224H302.94V153.286Z" fill="#059F30" stroke="#263238" stroke-width="1.06068" stroke-miterlimit="10"/>
<path d="M333.076 111.334H311.384V178.129H333.076V111.334Z" fill="#059F30" stroke="#263238" stroke-width="1.06068" stroke-miterlimit="10"/>
<path d="M363.2 173.846H341.508V186.695H363.2V173.846Z" fill="#059F30" stroke="#263238" stroke-width="1.06068" stroke-miterlimit="10"/>
<path d="M393.324 166.135H371.632V199.532H393.324V166.135Z" fill="#059F30" stroke="#263238" stroke-width="1.06068" stroke-miterlimit="10"/>
<path d="M272.816 208.952H251.125V226.084H272.816V208.952Z" fill="#263238" stroke="#263238" stroke-width="1.06068" stroke-miterlimit="10"/>
<path d="M302.94 213.235H281.249V226.084H302.94V213.235Z" fill="#263238" stroke="#263238" stroke-width="1.06068" stroke-miterlimit="10"/>
<path d="M333.076 178.118H311.384V226.072H333.076V178.118Z" fill="#263238" stroke="#263238" stroke-width="1.06068" stroke-miterlimit="10"/>
<path d="M363.2 186.684H341.508V226.072H363.2V186.684Z" fill="#263238" stroke="#263238" stroke-width="1.06068" stroke-miterlimit="10"/>
<path d="M393.324 199.532H371.632V226.073H393.324V199.532Z" fill="#263238" stroke="#263238" stroke-width="1.06068" stroke-miterlimit="10"/>
<path d="M437.695 99.2072C437.434 99.2091 437.177 99.1462 436.946 99.0242C436.716 98.9022 436.519 98.7249 436.374 98.5082L389.707 30.4488L342.362 80.933L294.02 49.422L247.252 60.2733L199.753 98.8522C199.423 99.12 199.001 99.2459 198.578 99.2022C198.156 99.1585 197.768 98.9488 197.5 98.6192C197.233 98.2896 197.107 97.8671 197.15 97.4447C197.194 97.0223 197.404 96.6346 197.733 96.3668L245.81 57.3219L294.63 45.9935L341.874 76.7944L390.106 25.356L439.015 96.6997C439.181 96.9391 439.278 97.2193 439.296 97.51C439.314 97.8007 439.253 98.0908 439.118 98.349C438.983 98.6072 438.78 98.8236 438.531 98.9749C438.282 99.1261 437.997 99.2065 437.706 99.2072H437.695Z" fill="#263238"/>
<path d="M202.76 97.6094C202.76 98.3928 202.527 99.1587 202.092 99.8101C201.657 100.461 201.038 100.969 200.314 101.269C199.591 101.569 198.794 101.647 198.026 101.494C197.257 101.342 196.552 100.964 195.998 100.41C195.444 99.8563 195.066 99.1505 194.914 98.3822C194.761 97.6138 194.839 96.8174 195.139 96.0936C195.439 95.3698 195.946 94.7511 196.598 94.3159C197.249 93.8806 198.015 93.6483 198.798 93.6483C199.849 93.6483 200.857 94.0656 201.599 94.8085C202.342 95.5513 202.76 96.5589 202.76 97.6094Z" fill="#059F30"/>
<path d="M246.531 62.7587C248.719 62.7587 250.492 60.9853 250.492 58.7976C250.492 56.61 248.719 54.8365 246.531 54.8365C244.343 54.8365 242.57 56.61 242.57 58.7976C242.57 60.9853 244.343 62.7587 246.531 62.7587Z" fill="#059F30"/>
<path d="M294.319 51.6632C296.507 51.6632 298.28 49.8898 298.28 47.7022C298.28 45.5145 296.507 43.7411 294.319 43.7411C292.132 43.7411 290.358 45.5145 290.358 47.7022C290.358 49.8898 292.132 51.6632 294.319 51.6632Z" fill="#059F30"/>
<path d="M342.107 82.8192C344.295 82.8192 346.068 81.0458 346.068 78.8582C346.068 76.6705 344.295 74.8971 342.107 74.8971C339.92 74.8971 338.146 76.6705 338.146 78.8582C338.146 81.0458 339.92 82.8192 342.107 82.8192Z" fill="#059F30"/>
<path d="M393.856 27.9079C393.856 28.6913 393.624 29.4571 393.189 30.1085C392.754 30.7599 392.135 31.2676 391.411 31.5674C390.687 31.8672 389.891 31.9457 389.123 31.7928C388.354 31.64 387.648 31.2627 387.094 30.7088C386.541 30.1548 386.163 29.449 386.01 28.6806C385.858 27.9122 385.936 27.1158 386.236 26.392C386.536 25.6682 387.043 25.0496 387.695 24.6143C388.346 24.1791 389.112 23.9468 389.895 23.9468C390.946 23.9468 391.953 24.3641 392.696 25.107C393.439 25.8498 393.856 26.8573 393.856 27.9079Z" fill="#059F30"/>
<path d="M441.645 97.6094C441.645 98.3928 441.412 99.1587 440.977 99.8101C440.542 100.461 439.923 100.969 439.199 101.269C438.476 101.569 437.679 101.647 436.911 101.494C436.142 101.342 435.437 100.964 434.883 100.41C434.329 99.8563 433.951 99.1505 433.799 98.3822C433.646 97.6138 433.724 96.8174 434.024 96.0936C434.324 95.3698 434.831 94.7511 435.483 94.3159C436.134 93.8806 436.9 93.6483 437.683 93.6483C438.734 93.6483 439.742 94.0656 440.484 94.8085C441.227 95.5513 441.645 96.5589 441.645 97.6094Z" fill="#059F30"/>
<path d="M523.107 475.143C565.402 475.143 599.688 470.538 599.688 464.857C599.688 459.177 565.402 454.572 523.107 454.572C480.813 454.572 446.527 459.177 446.527 464.857C446.527 470.538 480.813 475.143 523.107 475.143Z" fill="#059F30"/>
<path opacity="0.7" d="M523.107 475.143C565.402 475.143 599.688 470.538 599.688 464.857C599.688 459.177 565.402 454.572 523.107 454.572C480.813 454.572 446.527 459.177 446.527 464.857C446.527 470.538 480.813 475.143 523.107 475.143Z" fill="white"/>
<path d="M103.544 475.143C142.572 475.143 174.211 470.538 174.211 464.857C174.211 459.177 142.572 454.572 103.544 454.572C64.5159 454.572 32.8772 459.177 32.8772 464.857C32.8772 470.538 64.5159 475.143 103.544 475.143Z" fill="#059F30"/>
<path opacity="0.7" d="M103.544 475.143C142.572 475.143 174.211 470.538 174.211 464.857C174.211 459.177 142.572 454.572 103.544 454.572C64.5159 454.572 32.8772 459.177 32.8772 464.857C32.8772 470.538 64.5159 475.143 103.544 475.143Z" fill="white"/>
<path d="M501.493 102.514C501.493 102.514 530.586 99.6953 532.25 104.544C533.914 109.393 533.36 120.466 533.36 120.466C534.825 120.847 536.254 121.356 537.631 121.986C538.02 122.363 542.325 125.181 538.308 129.808C537.259 130.982 535.988 131.936 534.569 132.615C532.798 133.399 531.113 134.366 529.543 135.5L523.706 142.124L524.816 150.657C524.816 150.657 527.423 152.543 530.608 159.122C530.608 159.122 538.131 163.561 542.547 166.079C546.178 167.987 549.955 169.605 553.842 170.917C553.842 170.917 555.861 171.572 555.717 173.025C555.573 174.479 545.664 207.421 545.664 207.421L540.449 224.064C540.351 226.109 540.083 228.143 539.651 230.144C538.907 233.728 536.111 236.08 533.215 235.348L533.504 247.553C533.504 247.553 519.901 254.355 497.466 253.201C497.466 253.201 486.903 252.18 479.092 246.399L478.947 217.884L442.954 210.916C442.954 210.916 438.394 209.951 440.735 205.845C443.076 201.74 450.943 191.554 450.943 191.554L476.229 160.62C476.229 160.62 477.971 158.568 478.615 157.913C479.258 157.258 480.834 156.804 487.08 156.282C493.327 155.761 500.328 154.551 500.328 154.551C500.328 154.551 504.123 151.289 504.667 151.289C505.21 151.289 505.321 146.407 505.321 146.407C503.402 145.022 501.806 143.238 500.644 141.177C499.481 139.116 498.779 136.827 498.586 134.468C498.043 126.546 501.516 107.984 501.516 107.984L501.493 102.514Z" fill="white"/>
<path d="M479.535 246.288C479.535 246.288 476.473 291.78 476.473 313.549C476.473 335.318 477.838 352.949 478.515 368.238C479.192 383.528 476.473 394.057 478.848 405.264C481.222 416.47 486.67 449.091 486.67 449.091L493.072 452.952C493.072 452.952 494.181 427 496.512 417.835C498.842 408.67 499.574 369.936 500.95 358.042C502.326 346.147 506.73 304.029 506.73 304.029C506.73 304.029 523.718 348.189 527.812 365.52C531.906 382.851 545.82 421.907 548.893 431.416C551.967 440.925 556.704 455.016 556.704 455.016C558.144 455.437 559.656 455.55 561.142 455.349C561.785 455.297 562.403 455.083 562.939 454.725C563.475 454.368 563.91 453.88 564.205 453.307C564.205 453.307 559.689 424.858 557.703 411.033C555.251 393.935 551.256 368.238 548.827 358.73C546.397 349.221 542.713 334.264 542.713 327.13C542.713 319.995 533.548 248.352 533.548 248.352C533.548 248.352 501.615 262.255 479.535 246.288Z" fill="#263238"/>
<path d="M506.708 304.029L493.083 288.14" stroke="white" stroke-width="0.530341" stroke-miterlimit="10" stroke-linecap="round"/>
<path d="M489.599 289.305L500.817 299.746" stroke="white" stroke-width="0.530341" stroke-miterlimit="10" stroke-linecap="round"/>
<path d="M513.576 290.471C516.449 283.203 521.787 277.178 528.655 273.45" stroke="white" stroke-width="0.530341" stroke-miterlimit="10" stroke-linecap="round"/>
<path d="M529.421 252.191C529.421 252.191 527.878 257.983 529.809 261.467C531.74 264.951 533.681 264.951 533.681 264.951C533.681 264.951 537.154 283.891 537.154 294.72C537.154 305.549 534.835 306.703 537.154 318.686C539.473 330.669 541.026 334.542 541.026 341.498C541.026 348.455 544.111 353.104 546.818 357.354C549.526 361.603 550.302 373.997 550.302 379.001C550.302 384.005 551.844 389.442 553.398 394.468C553.398 394.468 553.764 405.741 555.717 408.382C557.67 411.022 558.036 419.988 558.036 419.988" stroke="white" stroke-width="0.530341" stroke-miterlimit="10" stroke-linecap="round"/>
<path d="M503.912 302.453C503.912 302.453 504.678 311.33 501.97 326.808C499.263 342.286 497.333 346.525 496.944 364.311C496.556 382.097 498.109 385.192 497.333 394.468C496.556 403.744 491.918 418.401 491.918 425.058C491.918 431.715 492.628 452.996 492.628 452.996" stroke="white" stroke-width="0.530341" stroke-miterlimit="10" stroke-linecap="round"/>
<path d="M495.402 254.51L496.179 257.606L501.205 258.76L500.428 254.898" stroke="white" stroke-width="0.530341" stroke-miterlimit="10" stroke-linecap="round"/>
<path d="M501.227 258.76C501.227 258.76 510.503 258.371 515.141 256.829L514.031 253.733" stroke="white" stroke-width="0.530341" stroke-miterlimit="10" stroke-linecap="round"/>
<path d="M518.214 252.957L519.324 256.829C519.324 256.829 526.747 256.407 527.856 255.298" stroke="white" stroke-width="0.530341" stroke-miterlimit="10" stroke-linecap="round"/>
<path d="M496.179 257.606C493.614 257.525 491.102 256.861 488.833 255.664L485.349 253.733L486.459 251.026" stroke="white" stroke-width="0.530341" stroke-miterlimit="10" stroke-linecap="round"/>
<path d="M486.67 449.091C486.67 449.091 470.027 459.953 467.641 465.046C465.256 470.139 474.775 468.109 481.566 465.39C488.356 462.672 492.661 452.952 492.661 452.952L486.67 449.091Z" fill="white" stroke="#263238" stroke-width="1.06068" stroke-miterlimit="10" stroke-linecap="round"/>
<path d="M557.237 455.16C558.076 459.814 559.729 464.283 562.119 468.364C565.78 474.056 572.693 478.938 572.693 469.984C572.693 461.03 564.16 453.34 564.16 453.34C564.16 453.34 559.922 455.637 557.237 455.16Z" fill="white" stroke="#263238" stroke-width="1.06068" stroke-miterlimit="10" stroke-linecap="round"/>
<path d="M501.393 108.661C501.393 108.661 497.787 131.029 499.008 136.577C501.793 148.992 511.568 148.46 517.682 146.085C523.396 143.866 529.099 136.022 529.831 134.99C529.883 134.917 529.957 134.863 530.042 134.835C530.952 134.579 536.599 132.782 539.085 128.422C541.803 123.662 536.71 121.631 536.71 121.631" fill="white"/>
<mask id="mask0_44_1049" style="mask-type:luminance" maskUnits="userSpaceOnUse" x="498" y="108" width="42" height="40">
<path d="M501.393 108.661C501.393 108.661 497.787 131.029 499.008 136.577C501.793 148.992 511.568 148.46 517.682 146.085C523.396 143.866 529.099 136.022 529.831 134.99C529.883 134.917 529.957 134.863 530.042 134.835C530.952 134.579 536.599 132.782 539.085 128.422C541.803 123.662 536.71 121.631 536.71 121.631" fill="white"/>
</mask>
<g mask="url(#mask0_44_1049)">
<g style="mix-blend-mode:multiply" opacity="0.5">
<path d="M524.527 140.748L529.92 134.824C529.92 134.824 536.3 132.86 539.085 128.366C540.716 125.736 539.817 123.44 538.829 122.818C537.476 122.086 536.079 121.437 534.646 120.877L532.838 124.86L531.296 125.126C531.296 125.126 531.939 121.021 530.075 118.591C528.211 116.161 527.79 109.126 527.79 109.126C527.79 109.126 525.182 123.151 524.86 129.021C524.778 132.287 523.757 135.461 521.92 138.163C521.92 138.163 522.253 141.747 522.896 145.331C522.974 145.753 523.052 146.385 523.129 147.173L524.017 145.753L524.505 147.106C523.95 144.776 523.695 142.302 524.527 140.748Z" fill="#059F30"/>
</g>
</g>
<path d="M501.393 108.661C501.393 108.661 497.787 131.029 499.008 136.577C501.793 148.992 511.568 148.46 517.682 146.085C523.396 143.866 529.099 136.022 529.831 134.99C529.883 134.917 529.957 134.863 530.042 134.835C530.952 134.579 536.599 132.782 539.085 128.422C541.803 123.662 536.71 121.631 536.71 121.631" stroke="#263238" stroke-width="1.06068" stroke-miterlimit="10" stroke-linecap="round"/>
<path d="M515.196 120.033C514.986 120.921 515.196 121.72 515.607 121.82C516.017 121.919 516.572 121.298 516.783 120.422C516.994 119.545 516.783 118.746 516.372 118.635C515.962 118.524 515.407 119.157 515.196 120.033Z" fill="#263238"/>
<path d="M505.665 117.714C505.455 118.602 505.665 119.401 506.076 119.501C506.486 119.601 507.041 118.979 507.252 118.103C507.463 117.226 507.252 116.416 506.841 116.316C506.431 116.216 505.865 116.827 505.665 117.714Z" fill="#263238"/>
<path d="M521.11 116.15C520.586 115.227 519.839 114.451 518.938 113.891C518.037 113.331 517.01 113.005 515.951 112.943" stroke="#263238" stroke-width="1.06068" stroke-miterlimit="10" stroke-linecap="round"/>
<path d="M508.65 113.11C507.777 112.728 506.808 112.621 505.872 112.804C504.937 112.986 504.079 113.449 503.413 114.131" stroke="#263238" stroke-width="1.06068" stroke-miterlimit="10" stroke-linecap="round"/>
<path d="M509.293 117.148C509.314 118.635 509.203 120.12 508.961 121.587C508.594 123.44 507.152 123.806 507.518 125.237C507.884 126.668 509.737 126.813 509.737 126.813" stroke="#263238" stroke-width="1.06068" stroke-miterlimit="10" stroke-linecap="round"/>
<path d="M511.668 132.593C512.453 132.843 513.283 132.92 514.101 132.819C514.919 132.717 515.705 132.44 516.406 132.005" stroke="#263238" stroke-width="1.06068" stroke-miterlimit="10" stroke-linecap="round"/>
<path d="M529.243 93.0381C529.243 93.0381 521.776 86.5806 514.642 86.5806C507.507 86.5806 501.726 90.6637 497.31 91.0187C492.894 91.3738 489.843 87.2796 487.125 92.7163C484.406 98.1531 494.603 107.329 501.394 108.683C508.184 110.036 517.693 108.006 520.411 107.662C523.015 107.483 525.629 107.483 528.233 107.662C528.233 107.662 526.192 114.119 528.233 116.161C530.275 118.203 530.608 119.556 530.608 120.91C530.724 122.404 530.951 123.887 531.285 125.348L533.326 126.036L534.347 122.297C537.101 119.36 538.984 115.714 539.784 111.767C540.793 105.654 535.701 99.5622 535.701 99.5622L529.243 93.0381Z" fill="#263238"/>
<path d="M500.639 105.898C500.639 105.898 512.256 108.117 521.354 104.333C530.452 100.55 522.608 93.0381 522.608 93.0381" stroke="white" stroke-width="0.530341" stroke-miterlimit="10" stroke-linecap="round"/>
<path d="M524.528 92.4056C525.471 92.4056 533.315 98.3639 531.74 102.758C530.164 107.151 527.035 107.473 527.035 107.473" stroke="white" stroke-width="0.530341" stroke-miterlimit="10" stroke-linecap="round"/>
<path d="M523.24 227.182L513.432 222.012C510.911 221.872 508.404 221.546 505.932 221.035C503.646 220.381 480.19 218.139 480.19 218.139L479.835 223.687C479.835 223.687 506.586 227.282 512.123 227.937C517.659 228.591 522.564 231.199 523.54 232.83C524.516 234.461 526.48 236.092 525.504 240.596C524.528 245.101 518.003 251.692 518.003 251.692C517.693 251.226 533.692 250.072 533.537 248.363C533.193 244.968 531.385 235.049 531.385 235.049L523.24 227.182Z" fill="#059F30"/>
<path opacity="0.5" d="M523.24 227.182L513.432 222.012C510.911 221.872 508.404 221.546 505.932 221.035C503.646 220.381 480.19 218.139 480.19 218.139L479.835 223.687C479.835 223.687 506.586 227.282 512.123 227.937C517.659 228.591 522.564 231.199 523.54 232.83C524.516 234.461 526.48 236.092 525.504 240.596C524.528 245.101 518.003 251.692 518.003 251.692C517.748 251.193 533.726 250.061 533.537 248.363C533.016 244.036 531.385 235.049 531.385 235.049L523.24 227.182Z" fill="white"/>
<path d="M555.595 172.903C554.729 168.842 548.272 169.386 544.377 167.133C540.483 164.881 531.063 159.666 531.063 159.666L526.502 152.809C525.679 150.96 525.015 149.045 524.516 147.084L524.028 145.73L523.141 147.15C523.706 153.231 524.25 168.798 524.25 168.798L526.203 178.584C526.203 178.584 533.714 210.872 535.667 218.05C537.62 225.229 537.62 230.111 536.322 232.397C535.024 234.682 535.456 235.725 535.456 235.725C535.456 235.725 540.549 231.786 540.239 227.881C539.828 223.287 556.205 175.655 555.595 172.903Z" fill="#059F30"/>
<path opacity="0.5" d="M555.595 172.903C555.151 168.775 548.272 169.386 544.377 167.133C540.483 164.881 531.063 159.666 531.063 159.666L526.502 152.809C525.679 150.96 525.015 149.045 524.516 147.084L524.028 145.73L523.141 147.15C523.706 153.231 524.25 168.798 524.25 168.798L526.203 178.584C526.203 178.584 533.714 210.872 535.667 218.05C537.62 225.229 537.62 230.111 536.322 232.397C535.024 234.682 535.456 235.725 535.456 235.725C535.456 235.725 540.693 231.775 540.239 227.881C539.717 223.698 555.994 176.331 555.595 172.903Z" fill="white"/>
<path d="M527.09 168.831C527.09 168.831 525.049 150.49 524.028 145.73C523.007 140.97 523.695 138.263 519.279 138.263C514.863 138.263 509.427 137.575 510.403 139.961C511.379 142.346 518.17 140.294 519.279 141.314C520.389 142.335 519.612 144.71 519.612 144.71C519.612 144.71 510.736 145.398 510.736 147.772C510.736 150.146 511.08 156.648 512.777 157.281C514.475 157.913 515.152 154.23 515.152 154.23C515.152 154.23 515.496 161.996 517.193 164.759C518.275 166.465 519.528 168.057 520.933 169.508L527.09 168.831Z" fill="white" stroke="#263238" stroke-width="1.06068" stroke-miterlimit="10" stroke-linecap="round"/>
<path d="M520.977 173.924C520.977 173.924 519.956 216.087 521.654 222.844C523.351 229.601 532.527 238.81 537.276 234.394C542.025 229.978 539.662 220.469 539.662 216.053C539.662 211.637 528.788 179.028 528.788 176.642C528.626 174.661 528.166 172.716 527.423 170.873" stroke="#263238" stroke-width="1.06068" stroke-miterlimit="10" stroke-linecap="round"/>
<path d="M521.654 179.028L528.444 178.34" stroke="#263238" stroke-width="1.06068" stroke-miterlimit="10" stroke-linecap="round"/>
<path d="M478.226 200.109L479.535 162.595C479.535 162.595 477.904 161.619 477.25 165.203C476.595 168.787 476.273 175.977 476.273 175.977C476.273 175.977 468.44 171.083 470.404 174.013C472.368 176.942 475.619 183.477 475.619 183.477L463.503 195.538L469.05 197.824L478.226 200.109Z" fill="#059F30"/>
<path opacity="0.5" d="M478.226 200.109L479.535 162.595C479.535 162.595 477.904 161.619 477.25 165.203C476.595 168.787 476.273 175.977 476.273 175.977C476.273 175.977 468.44 171.083 470.404 174.013C472.368 176.942 475.619 183.477 475.619 183.477L463.503 195.538L469.05 197.824L478.226 200.109Z" fill="white"/>
<path d="M494.47 170.973C494.47 170.973 493.849 173.192 496.456 173.192C499.063 173.192 503.646 171.339 503.646 171.339L503.313 167.655C503.313 167.655 497.044 170.706 494.47 170.973Z" fill="#059F30"/>
<path opacity="0.5" d="M494.47 170.973C494.47 170.973 493.849 173.192 496.456 173.192C499.063 173.192 503.646 171.339 503.646 171.339L503.313 167.655C503.313 167.655 497.044 170.706 494.47 170.973Z" fill="white"/>
<path d="M505.665 146.163C505.665 146.163 502.27 166.135 504.312 170.573C506.353 175.011 509.404 173.968 511.779 171.938C514.153 169.907 517.216 164.803 517.216 164.803" stroke="#263238" stroke-width="1.06068" stroke-miterlimit="10" stroke-linecap="round"/>
<path d="M478.848 218.428L479.535 246.288C479.535 246.288 487.302 253.756 502.292 253.756C517.282 253.756 533.548 248.319 533.548 248.319V238.466" stroke="#263238" stroke-width="1.06068" stroke-miterlimit="10" stroke-linecap="round"/>
<path d="M524.716 150.146C524.716 150.146 530.83 156.26 530.83 162.041C530.83 167.821 529.809 169.175 529.809 169.175" stroke="#263238" stroke-width="1.06068" stroke-miterlimit="10" stroke-linecap="round"/>
<path d="M530.142 158.646C530.142 158.646 539.318 164.071 544.41 167.134C549.503 170.196 555.628 170.185 555.628 172.903C555.628 175.622 541.359 221.823 541.359 221.823" stroke="#263238" stroke-width="1.06068" stroke-miterlimit="10" stroke-linecap="round"/>
<path d="M535.923 173.924L532.527 187.516" stroke="#263238" stroke-width="1.06068" stroke-miterlimit="10" stroke-linecap="round"/>
<path d="M478.936 181.901L473.444 170.384" stroke="#263238" stroke-width="0.530341" stroke-miterlimit="10" stroke-linecap="round"/>
<path d="M478.936 185.197L470.703 180.259" stroke="#263238" stroke-width="0.530341" stroke-miterlimit="10" stroke-linecap="round"/>
<path d="M505.798 210.96L504.156 219.193" stroke="#263238" stroke-width="0.530341" stroke-miterlimit="10" stroke-linecap="round"/>
<path d="M550.214 172.581C550.214 172.581 541.992 174.223 534.314 183.544" stroke="#263238" stroke-width="0.530341" stroke-miterlimit="10" stroke-linecap="round"/>
<path d="M544.732 172.082C544.732 172.082 542.513 171.527 534.868 178.107" stroke="#263238" stroke-width="0.530341" stroke-miterlimit="10" stroke-linecap="round"/>
<path d="M505.798 174.778L502.514 200.542L505.255 201.097L507.452 192.875" stroke="#263238" stroke-width="0.530341" stroke-miterlimit="10" stroke-linecap="round"/>
<path d="M507.995 242.216C498.12 250.449 484.417 249.894 484.417 249.894" stroke="#263238" stroke-width="0.530341" stroke-miterlimit="10" stroke-linecap="round"/>
<path d="M466.265 197.468C466.265 197.468 459.553 191.322 450.044 199.144" stroke="#263238" stroke-width="0.530341" stroke-miterlimit="10" stroke-linecap="round"/>
<path d="M505.011 151.167C505.011 151.167 502.292 151.844 499.23 156.604C496.168 161.364 492.439 169.508 495.158 170.185C497.876 170.862 502.925 167.81 502.925 167.81" stroke="#263238" stroke-width="1.06068" stroke-miterlimit="10" stroke-linecap="round"/>
<path d="M515.54 169.175L518.935 172.226" stroke="#263238" stroke-width="1.06068" stroke-miterlimit="10" stroke-linecap="round"/>
<path d="M500.251 154.562C500.251 154.562 487.68 156.26 482.587 156.604C477.494 156.948 478.481 158.823 476.817 159.999C474.132 161.874 443.331 200.919 441.312 204.658C439.292 208.397 439.614 210.095 443.009 211.116C446.405 212.137 480.223 218.084 480.223 218.084L510.103 221.146L512.478 213.668C512.478 213.668 519.424 214.589 520.644 214.589" stroke="#263238" stroke-width="1.06068" stroke-miterlimit="10" stroke-linecap="round"/>
<path d="M509.083 210.916C502.488 209.003 496.114 206.4 490.065 203.149" stroke="#263238" stroke-width="1.06068" stroke-miterlimit="10" stroke-linecap="round"/>
<path d="M487.347 202.461C487.347 202.461 477.361 198.755 471.957 198.079C466.554 197.402 458.277 197.18 458.277 197.18" stroke="#263238" stroke-width="1.06068" stroke-miterlimit="10" stroke-linecap="round"/>
<path d="M478.171 198.045L479.191 171.206" stroke="#263238" stroke-width="1.06068" stroke-miterlimit="10" stroke-linecap="round"/>
<path d="M510.103 221.146C512.434 222.318 514.876 223.255 517.393 223.942" stroke="#263238" stroke-width="1.06068" stroke-miterlimit="10" stroke-linecap="round"/>
<path d="M65.5422 199.521L69.5477 177.63L94.9008 167.644C94.9008 167.644 96.1324 160.842 97.3751 160.543C98.6177 160.243 99.8382 157.447 99.8382 157.447L99.228 151.844C99.228 151.844 101.547 142.968 113.208 149.88C113.208 149.88 109.68 152.232 110.29 153.209C110.9 154.185 109.613 157.292 111.156 157.292C112.698 157.292 115.816 159.256 117.391 160.842C118.494 162.027 119.468 163.325 120.298 164.715L133.424 165.469C134.77 165.48 136.108 165.663 137.407 166.013C137.629 159.6 136.842 154.707 135.288 150.901C129.641 137.165 119.344 132.26 117.868 125.381C116.393 118.502 117.136 117.781 117.136 117.781C118.637 116.255 119.735 114.381 120.333 112.327C120.932 110.272 121.011 108.101 120.565 106.009C119.1 98.6523 113.452 93.493 93.0922 92.5166C72.7321 91.5402 75.6835 105.509 75.6835 105.509L75.9276 106.486C75.9276 106.486 62.9237 110.924 65.3869 127.334C67.8501 143.744 74.9511 150.879 74.707 156.027C74.4629 161.175 66.8515 163.139 56.0556 174.889C45.2597 186.639 43.0628 204.314 47.4788 215.842C49.6979 221.512 54.0362 226.239 59.4841 229.767L65.5422 199.521Z" fill="#263238"/>
<path d="M82.5404 201.685V206.633L73.1426 235.67C79.015 237.224 85.1736 237.353 91.1061 236.047C94.4549 235.175 97.6556 233.81 100.604 231.997L82.5404 201.685Z" fill="#263238"/>
<path d="M109.558 153.031L110.667 158.024C110.667 158.024 113.996 154.695 120.498 164.803C120.498 164.803 134.012 164.482 137.696 166.324C137.696 166.324 138.461 166.545 140.958 169.197C143.454 171.849 152.841 180.293 152.841 180.293C152.841 180.293 164.891 191.477 166.089 192.342C167.287 193.208 171.781 197.502 175.143 199L184.153 178.484L188.169 168.332L190.388 159.977H191.098L191.254 153.242L190.71 145.209C190.798 144.8 190.985 144.42 191.254 144.099C192.184 142.81 192.9 141.379 193.373 139.861C193.373 139.106 192.607 134.646 192.607 134.646C192.607 134.646 192.23 133.536 193.051 133.403C193.872 133.27 196.901 134.324 197.278 136.443L198.388 136.066C199.307 133.871 200.452 131.777 201.805 129.819C203.603 127.489 205.445 126.025 206.588 126.779C206.901 126.996 207.127 127.317 207.225 127.685C207.322 128.053 207.285 128.444 207.12 128.788L203.547 135.356C203.547 135.356 201.972 137.475 203.925 138.23C203.925 138.23 208.152 140.948 208.429 143.334C208.707 145.719 207.176 147.772 205.822 149.525C204.468 151.278 202.083 155.073 202.083 155.073L199.309 157.525L198.199 161.752L199.509 163.383L197.556 171.849L196.147 178.196L195.437 182.046L190.998 197.247L186.56 210.494C186.56 210.494 184.275 218.084 178.738 217.873C173.201 217.662 167.132 214.666 165.168 213.69C163.204 212.714 147.016 204.259 147.016 204.259L143.687 202.683C144.132 204.199 144.323 205.777 144.253 207.354C144.198 210.284 141.047 216.741 140.126 218.206L139.582 229.656C139.367 231.643 139.405 233.649 139.693 235.626C140.181 238.61 142.678 255.498 143.221 257.606C143.221 257.606 137.829 262.488 121.763 264.807C105.697 267.126 98.1739 263.364 98.1739 263.364L91.0174 259.159L99.8382 241.728C99.8382 241.728 102.057 236.547 101.835 235.182C101.614 233.817 97.8189 227.937 97.8189 227.937L83.8941 203.149L83.2395 203.371L81.0758 210.605L73.2535 235.137L62.957 265.761C62.957 265.761 60.1387 273.528 58.9737 275.824L55.7227 285.733C55.9033 287.503 56.3406 289.237 57.0209 290.881L48.8436 285.588L50.2971 277.822L52.1056 266.238L54.3247 253.645L56.2775 243.226L59.3953 229.335L60.5049 225.496L62.724 214.644L66.6296 194.961L69.9582 178.107L93.2586 168.842L94.7121 167.733C95.0353 165.588 95.823 163.539 97.02 161.73C97.8508 160.54 98.84 159.468 99.9603 158.546C99.9603 158.546 99.8493 157.092 99.7717 155.716C99.694 154.34 99.3389 151.811 99.3389 151.811C99.3389 151.811 106.54 154.906 109.558 153.031Z" fill="white"/>
<path d="M78.3464 108.439C78.3464 108.439 82.6625 98.8855 91.2948 98.8855C99.927 98.8855 117.802 115.839 117.802 115.839" stroke="white" stroke-width="0.530341" stroke-miterlimit="10" stroke-linecap="round"/>
<path d="M82.0411 109.948C82.0411 109.948 87.2782 104.4 93.7579 106.552C100.238 108.705 101.159 116.416 101.159 116.416" stroke="white" stroke-width="0.530341" stroke-miterlimit="10" stroke-linecap="round"/>
<path d="M77.725 110.902C77.725 110.902 70.0248 115.218 69.4034 123.24C68.7821 131.262 80.1882 140.804 81.7305 151.6C83.2727 162.396 75.2618 164.848 62.3134 173.791C49.365 182.734 51.5286 202.761 54.3025 207.077" stroke="white" stroke-width="0.530341" stroke-miterlimit="10" stroke-linecap="round"/>
<path d="M55.8448 209.551C55.8448 209.551 57.6866 213.557 60.4605 214.788" stroke="white" stroke-width="0.530341" stroke-miterlimit="10" stroke-linecap="round"/>
<path d="M78.657 131.861C78.2924 132.644 78.1288 133.506 78.1811 134.368C78.2334 135.23 78.5 136.065 78.9566 136.799C80.4989 139.572 92.2711 153.442 91.2947 159.921C90.3183 166.401 84.2047 170.396 84.2047 170.396" stroke="white" stroke-width="0.530341" stroke-miterlimit="10" stroke-linecap="round"/>
<path d="M84.5043 110.902C84.5043 110.902 77.4143 113.986 77.725 121.076C78.0357 128.166 79.5779 130.019 79.5779 130.019" stroke="white" stroke-width="0.530341" stroke-miterlimit="10" stroke-linecap="round"/>
<path d="M117.802 134.358C120.005 139.345 123.028 143.928 126.745 147.916C132.292 153.464 132.903 161.486 132.903 161.486" stroke="white" stroke-width="0.530341" stroke-miterlimit="10" stroke-linecap="round"/>
<path d="M124.27 151.9C124.27 151.9 127.044 158.379 127.044 162.385" stroke="white" stroke-width="0.530341" stroke-miterlimit="10" stroke-linecap="round"/>
<path d="M108.925 153.619L100.215 161.464C100.215 161.464 99.2835 163.838 97.5304 167.644C95.7773 171.45 96.0658 178.739 96.0658 178.739L101.436 189.424C101.436 189.424 91.1061 177.574 90.5181 176.11C89.93 174.645 79.123 177.286 77.0815 178.162C75.0399 179.039 72.3992 180.792 72.9872 183.422C73.5753 186.051 76.2049 189.546 75.0288 190.134C73.8527 190.722 70.6461 189.258 70.6461 191.011C70.6461 192.764 74.4519 199.488 72.6988 201.818C70.9457 204.148 59.8392 241.85 59.8392 241.85C59.8392 241.85 66.8515 236.003 65.0984 238.344C63.3453 240.685 54.8795 259.67 54.8795 259.67L51.6618 270.765L59.2622 231.332L65.6865 198.045L69.5477 177.63C73.2757 176.387 94.9008 167.644 94.9008 167.644C94.9008 167.644 96.6095 160.454 99.8382 157.447L99.228 151.844C99.228 151.844 105.12 153.908 108.925 153.619Z" fill="#059F30"/>
<path opacity="0.5" d="M108.925 153.619L100.215 161.464C100.215 161.464 99.2835 163.838 97.5304 167.644C95.7773 171.45 96.0658 178.739 96.0658 178.739L101.436 189.424C101.436 189.424 91.1061 177.574 90.5181 176.11C89.93 174.645 79.123 177.286 77.0815 178.162C75.0399 179.039 72.3992 180.792 72.9872 183.422C73.5753 186.051 76.2049 189.546 75.0288 190.134C73.8527 190.722 70.6461 189.258 70.6461 191.011C70.6461 192.764 74.4519 199.488 72.6988 201.818C70.9457 204.148 59.8392 241.85 59.8392 241.85C59.8392 241.85 66.8515 236.003 65.0984 238.344C63.3453 240.685 54.8795 259.67 54.8795 259.67L51.6618 270.765L59.2622 231.332L65.6865 198.045L69.5477 177.63C73.2757 176.387 94.9008 167.644 94.9008 167.644C94.9008 167.644 95.3668 160.987 99.8493 158.657L99.228 151.844C99.228 151.844 105.12 153.908 108.925 153.619Z" fill="white"/>
<path d="M141.346 193.053C141.346 193.053 146.606 184.298 147.194 186.34C147.782 188.381 145.729 195.383 145.729 195.383C145.729 195.383 151.277 193.341 150.7 195.094C150.123 196.847 148.947 197.724 149.235 198.6C149.524 199.477 168.519 209.407 170.86 210.572C173.201 211.737 178.749 205.025 181.379 207.066C184.008 209.108 181.379 216.109 176.119 216.12C170.86 216.131 155.671 209.463 155.671 209.463L143.71 202.506" fill="#059F30"/>
<path opacity="0.5" d="M141.346 193.053C141.346 193.053 146.606 184.298 147.194 186.34C147.782 188.381 145.729 195.383 145.729 195.383C145.729 195.383 151.277 193.341 150.7 195.094C150.123 196.847 148.947 197.724 149.235 198.6C149.524 199.477 168.519 209.407 170.86 210.572C173.201 211.737 178.749 205.025 181.379 207.066C184.008 209.108 181.379 216.109 176.119 216.12C170.86 216.131 155.671 209.463 155.671 209.463L143.754 202.528" fill="white"/>
<path d="M109.802 228.403C109.802 228.403 143.954 210.295 138.406 217.008C132.858 223.72 114.473 231.332 109.802 228.403Z" fill="#059F30"/>
<path opacity="0.5" d="M109.802 228.403C109.802 228.403 143.954 210.295 138.406 217.008C132.858 223.72 114.473 231.332 109.802 228.403Z" fill="white"/>
<path d="M99.228 151.9C99.228 151.9 99.4721 156.56 100.215 161.464C100.959 166.368 100.704 166.368 105.364 172.249C110.024 178.129 114.928 183.044 115.66 182.068" stroke="#263238" stroke-width="1.06068" stroke-miterlimit="10" stroke-linecap="round"/>
<path d="M115.904 180.348C115.904 180.348 116.393 171.76 114.684 166.124C112.975 160.487 110.512 158.512 110.512 157.247C110.429 155.93 110.266 154.618 110.024 153.32" stroke="#263238" stroke-width="1.06068" stroke-miterlimit="10" stroke-linecap="round"/>
<path d="M99.228 159.012C97.2681 160.776 95.8971 163.1 95.3002 165.669C94.5679 169.586 93.8356 174.246 93.8356 174.246L101.436 189.458C102.098 186.809 103.085 184.252 104.376 181.846C105.016 180.659 105.844 179.583 106.828 178.662" stroke="#263238" stroke-width="1.06068" stroke-miterlimit="10" stroke-linecap="round"/>
<path d="M117.624 176.176C118.161 176.042 118.719 176.016 119.266 176.1C119.812 176.184 120.337 176.376 120.809 176.665C122.773 177.652 126.7 182.8 126.7 182.8C126.7 182.8 124.004 170.041 119.344 163.428C114.684 156.815 111.488 157.292 111.488 157.292" stroke="#263238" stroke-width="1.06068" stroke-miterlimit="10" stroke-linecap="round"/>
<path d="M93.0922 168.576L69.5477 177.63C69.5477 177.63 60.9709 224.475 57.7754 236.979C54.5799 249.484 49.1986 284.812 49.1986 284.812L55.5674 286.032L57.7865 279.663" stroke="#263238" stroke-linecap="round" stroke-linejoin="round"/>
<path d="M59.007 276.002C59.007 276.002 60.4716 273.783 64.3994 261.578C68.3272 249.373 78.8235 219.415 80.5877 213.501C82.3518 207.587 83.772 203.693 83.772 203.693" stroke="#263238" stroke-width="1.06068" stroke-miterlimit="10" stroke-linecap="round"/>
<path d="M79.6002 196.492C79.6002 196.492 99.461 231.997 101.181 233.529C102.901 235.06 100.448 239.165 99.9492 241.373" stroke="#263238" stroke-width="1.06068" stroke-miterlimit="10" stroke-linecap="round"/>
<path d="M97.7523 245.833L91.3835 259.081C91.3835 259.081 95.5554 265.461 113.208 265.461C123.714 265.493 134.069 262.965 143.377 258.094C143.377 258.094 139.205 236.025 139.449 232.097C139.693 228.17 140.192 217.873 140.192 217.873C140.192 217.873 144.631 211.216 144.109 206.101C143.588 200.986 141.413 195.061 141.413 194.084C141.413 193.108 140.925 182.556 140.925 182.556" stroke="#263238" stroke-width="1.06068" stroke-miterlimit="10" stroke-linecap="round"/>
<path d="M113.175 224.031L130.75 213.246" stroke="#263238" stroke-width="0.530341" stroke-miterlimit="10" stroke-linecap="round"/>
<path d="M122.429 220.647L131.982 215.099" stroke="#263238" stroke-width="0.530341" stroke-miterlimit="10" stroke-linecap="round"/>
<path d="M175.021 199.233L171.437 208.009" stroke="#263238" stroke-width="0.530341" stroke-miterlimit="10" stroke-linecap="round"/>
<path d="M173.59 203.072L170.206 206.467" stroke="#263238" stroke-width="0.530341" stroke-miterlimit="10" stroke-linecap="round"/>
<path d="M73.4088 234.217C73.4088 234.217 67.5504 240.996 63.545 243.77" stroke="#263238" stroke-width="0.530341" stroke-miterlimit="10" stroke-linecap="round"/>
<path d="M70.0248 236.058C70.0248 236.058 59.8503 244.069 57.3871 245.922" stroke="#263238" stroke-width="0.530341" stroke-miterlimit="10" stroke-linecap="round"/>
<path d="M71.8334 179.028C74.9005 183.365 77.6803 187.898 80.155 192.598" stroke="#263238" stroke-width="0.530341" stroke-miterlimit="10" stroke-linecap="round"/>
<path d="M81.1202 194.75L83.2728 198.445" stroke="#263238" stroke-width="0.530341" stroke-miterlimit="10" stroke-linecap="round"/>
<path d="M141.413 194.084L144.109 180.348" stroke="#263238" stroke-width="0.530341" stroke-miterlimit="10" stroke-linecap="round"/>
<path d="M142.4 195.061L146.561 189.18" stroke="#263238" stroke-width="0.530341" stroke-miterlimit="10" stroke-linecap="round"/>
<path d="M83.772 203.649L71.9998 197.269" stroke="#263238" stroke-width="0.530341" stroke-miterlimit="10" stroke-linecap="round"/>
<path d="M115.416 183.289C115.416 183.289 119.854 192.165 121.308 198.5" stroke="#263238" stroke-width="0.530341" stroke-miterlimit="10" stroke-linecap="round"/>
<path d="M188.258 167.832C189.432 167.746 190.611 167.898 191.725 168.279C192.838 168.661 193.863 169.263 194.738 170.052" stroke="#263238" stroke-width="0.530341" stroke-miterlimit="10" stroke-linecap="round"/>
<path d="M53.4593 278.72L56.4994 279.852" stroke="#263238" stroke-width="0.530341" stroke-miterlimit="10" stroke-linecap="round"/>
<path d="M49.1209 285.256C49.1591 289.474 48.9368 293.691 48.4552 297.882C47.7229 303.042 47.967 314.814 48.9434 318.486C49.9198 322.159 50.4191 322.925 51.3955 320.706C52.3719 318.486 55.3233 305.505 55.3233 305.505C55.3233 305.505 55.8115 314.082 58.0195 313.349C60.2275 312.617 59.007 308.445 59.007 304.761C59.007 301.078 59.2511 299.857 59.007 296.917C58.7629 293.977 55.4897 286.709 55.4897 286.709" fill="white"/>
<path d="M49.1209 285.256C49.1591 289.474 48.9368 293.691 48.4552 297.882C47.7229 303.042 47.967 314.814 48.9434 318.486C49.9198 322.159 50.4191 322.925 51.3955 320.706C52.3719 318.486 55.3233 305.505 55.3233 305.505C55.3233 305.505 55.8115 314.082 58.0195 313.349C60.2275 312.617 59.007 308.445 59.007 304.761C59.007 301.078 59.2511 299.857 59.007 296.917C58.7629 293.977 55.4897 286.709 55.4897 286.709" stroke="#263238" stroke-miterlimit="10" stroke-linecap="round"/>
<path d="M191.12 159.788C191.009 157.619 191.009 155.445 191.12 153.275C191.32 151.234 190.51 148.182 190.71 145.508C190.91 142.834 193.561 141.847 193.151 138.385C192.74 134.923 191.93 134.513 192.541 133.703C193.151 132.893 196.979 134.102 197.223 136.344C197.44 138.65 197.44 140.972 197.223 143.278C197.023 143.888 198.443 147.716 197.633 149.381C197.169 150.282 196.826 151.241 196.613 152.232" stroke="#263238" stroke-width="0.880843" stroke-miterlimit="10" stroke-linecap="round"/>
<path d="M198.044 136.166C198.044 136.166 202.726 126.802 205.378 126.591C208.03 126.38 207.209 128.81 206.388 130.053C205.567 131.295 202.926 135.756 202.726 137.597C202.527 139.439 200.075 145.531 200.075 145.531" stroke="#263238" stroke-width="0.880843" stroke-miterlimit="10" stroke-linecap="round"/>
<path d="M202.76 137.597C202.76 137.597 209.894 141.869 208.307 145.364C206.721 148.859 205.855 150.257 204.635 149.802C203.553 149.249 202.585 148.496 201.783 147.583" stroke="#263238" stroke-width="0.880843" stroke-miterlimit="10" stroke-linecap="round"/>
<path d="M205.378 149.813C205.378 149.813 203.536 152.865 202.116 154.707C201.299 155.77 200.331 156.709 199.242 157.492L198.377 160.498" stroke="#263238" stroke-width="0.880843" stroke-miterlimit="10" stroke-linecap="round"/>
<path d="M119.832 164.648C119.832 164.648 136.753 164.404 138.961 167.1C141.169 169.796 167.909 194.329 171.138 196.537C174.366 198.744 175.065 199.233 175.065 199.233C175.065 199.233 188.302 169.275 188.302 167.833C188.302 166.39 190.521 159.744 190.521 159.744C190.521 159.744 194.693 160.232 195.681 160.232C196.668 160.232 199.353 163.428 199.353 163.428C199.353 163.428 195.681 178.384 195.681 180.071C195.681 181.757 188.813 205.091 185.617 212.248C182.422 219.404 178.017 218.372 170.905 216.164C163.792 213.956 144.42 202.927 144.42 202.927" stroke="#263238" stroke-width="1.06068" stroke-miterlimit="10" stroke-linecap="round"/>
<path d="M91.3835 259.082C91.3835 259.082 81.564 283.647 78.9122 300.368C76.2604 317.088 77.3921 356.189 76.6265 360.372C75.861 364.555 65.2315 384.294 65.2315 393.791C65.2315 403.289 59.5396 452.275 59.5396 452.275L63.3342 454.55C63.3342 454.55 76.6487 413.497 81.564 402.901C86.4793 392.305 93.3363 367.207 95.2336 362.269C97.1309 357.332 110.434 317.832 111.189 312.894C111.943 307.957 116.504 295.807 116.504 295.807C116.504 295.807 126.379 356.189 128.276 368.727C130.173 381.265 143.466 449.235 143.466 449.235C144.338 449.449 145.23 449.575 146.128 449.613C147.238 449.613 147.648 447.715 147.648 447.715C147.648 447.715 152.963 399.483 151.443 386.568C149.923 373.653 145.374 357.72 145.374 353.149C145.374 348.577 152.209 309.1 152.209 295.452C152.209 281.805 143.332 258.116 143.332 258.116C143.332 258.116 111.832 274.005 91.3835 259.082Z" fill="#263238"/>
<path d="M145.23 355.656C145.23 355.656 141.846 370.147 137.219 377.847" stroke="white" stroke-width="0.530341" stroke-miterlimit="10" stroke-linecap="round"/>
<path d="M144.309 370.458C144.309 370.458 141.535 380.932 135.987 385.869" stroke="white" stroke-width="0.530341" stroke-miterlimit="10" stroke-linecap="round"/>
<path d="M78.657 365.831C78.657 365.831 80.8096 378.468 83.2728 383.705" stroke="white" stroke-width="0.530341" stroke-miterlimit="10" stroke-linecap="round"/>
<path d="M78.0357 373.231C78.0357 373.231 79.8886 382.174 83.2728 387.411" stroke="white" stroke-width="0.530341" stroke-miterlimit="10" stroke-linecap="round"/>
<path d="M117.491 295.863L129.818 285.688" stroke="white" stroke-width="0.530341" stroke-miterlimit="10" stroke-linecap="round"/>
<path d="M123.349 291.547L137.84 285.067" stroke="white" stroke-width="0.530341" stroke-miterlimit="10" stroke-linecap="round"/>
<path d="M91.5943 274.282C91.5943 274.282 101.159 280.44 106.706 285.688" stroke="white" stroke-width="0.530341" stroke-miterlimit="10" stroke-linecap="round"/>
<path d="M59.939 452.242C59.939 452.242 45.515 464.447 45.515 470.505C45.515 476.563 51.2069 476.197 57.2872 470.505C63.3675 464.813 63.6782 453.085 63.6782 453.085L59.939 452.242Z" fill="white" stroke="#263238" stroke-width="1.06068" stroke-miterlimit="10" stroke-linecap="round"/>
<path d="M143.466 449.235C143.466 449.235 148.403 461.385 153.729 466.71C159.055 472.036 162.084 473.923 162.084 468.219C162.084 462.516 158.666 456.07 147.66 447.715C147.648 447.715 150.689 449.99 143.466 449.235Z" fill="white" stroke="#263238" stroke-width="1.06068" stroke-miterlimit="10" stroke-linecap="round"/>
<path d="M92.5152 112.943C91.5277 112.577 90.5957 112.133 89.6304 111.723C88.6651 111.312 86.9009 111.09 86.2352 114.119C85.2477 118.558 92.1158 122.219 89.9078 125.892C88.5342 128.126 86.4697 129.852 84.0272 130.807C83.6296 130.944 83.2153 131.026 82.7956 131.051C80.8317 131.295 77.6473 131.051 78.6237 134.48C79.6001 137.908 82.7956 140.86 84.7595 140.86H86.7234C86.7234 140.86 88.9425 147.517 97.2641 151.156C105.586 154.795 111.244 154.596 113.208 149.936C115.172 145.275 116.648 141.348 116.648 135.212C116.648 129.076 114.429 118.78 114.429 118.78C114.429 118.78 112.465 121.487 104.864 118.047C99.8382 115.773 95.1338 113.931 92.5152 112.943Z" fill="white"/>
<mask id="mask1_44_1049" style="mask-type:luminance" maskUnits="userSpaceOnUse" x="78" y="111" width="39" height="43">
<path d="M92.5152 112.943C91.5277 112.577 90.5957 112.133 89.6304 111.723C88.6651 111.312 86.9009 111.09 86.2352 114.119C85.2477 118.558 92.1158 122.219 89.9078 125.892C88.5342 128.126 86.4697 129.852 84.0272 130.807C83.6296 130.944 83.2153 131.026 82.7956 131.051C80.8317 131.295 77.6473 131.051 78.6237 134.48C79.6001 137.908 82.7956 140.86 84.7595 140.86H86.7234C86.7234 140.86 88.9425 147.517 97.2641 151.156C105.586 154.795 111.244 154.596 113.208 149.936C115.172 145.275 116.648 141.348 116.648 135.212C116.648 129.076 114.429 118.78 114.429 118.78C114.429 118.78 112.465 121.487 104.864 118.047C99.8382 115.773 95.1338 113.931 92.5152 112.943Z" fill="white"/>
</mask>
<g mask="url(#mask1_44_1049)">
<g style="mix-blend-mode:multiply" opacity="0.5">
<path d="M104.876 118.047C104.876 118.047 93.1477 117.393 91.3946 117.681C89.6415 117.97 91.6831 123.229 91.1061 128.488C90.5291 133.747 90.8065 142.224 93.1477 144.854C95.9103 147.565 98.8377 150.104 101.913 152.454C101.913 152.454 92.9147 151.001 89.6415 147.195C86.3683 143.389 85.8469 141.348 85.8469 141.348C85.8469 141.348 78.2465 136.91 77.6584 133.459C77.0704 130.008 82.0966 131.839 84.5043 130.13C85.8579 129.198 91.4611 127.445 90.052 122.774C88.6429 118.103 86.3683 117.226 86.2796 114.097C86.213 111.878 88.1658 111.235 89.3641 111.035C89.9043 110.944 90.4595 111.026 90.9508 111.268L104.876 118.047Z" fill="#059F30"/>
</g>
</g>
<path d="M92.5152 112.943C91.5277 112.577 90.5957 112.133 89.6304 111.723C88.6651 111.312 86.9009 111.09 86.2352 114.119C85.2477 118.558 92.1158 122.219 89.9078 125.892C88.5342 128.126 86.4697 129.852 84.0272 130.807C83.6296 130.944 83.2153 131.026 82.7956 131.051C80.8317 131.295 77.6473 131.051 78.6237 134.48C79.6001 137.908 82.7956 140.86 84.7595 140.86H86.7234C86.7234 140.86 88.9425 147.517 97.2641 151.156C105.586 154.795 111.244 154.596 113.208 149.936C115.172 145.275 116.648 141.348 116.648 135.212C116.648 129.076 114.429 118.78 114.429 118.78C114.429 118.78 112.465 121.487 104.864 118.047C99.8382 115.773 95.1338 113.931 92.5152 112.943Z" stroke="#263238" stroke-width="1.06068" stroke-miterlimit="10" stroke-linecap="round"/>
<path d="M101.181 127.478C101.336 128.41 101.081 129.231 100.604 129.309C100.127 129.387 99.6385 128.688 99.4942 127.756C99.35 126.824 99.6052 125.992 100.071 125.914C100.537 125.836 101.025 126.591 101.181 127.478Z" fill="#263238"/>
<path d="M111.333 125.781C111.477 126.713 111.222 127.534 110.756 127.611C110.29 127.689 109.791 126.99 109.647 126.058C109.502 125.126 109.747 124.305 110.213 124.227C110.679 124.15 111.178 124.849 111.333 125.781Z" fill="#263238"/>
<path d="M95.3002 122.951C95.921 122.029 96.7632 121.276 97.7497 120.762C98.7363 120.249 99.8358 119.99 100.948 120.011" stroke="#263238" stroke-width="1.06068" stroke-miterlimit="10" stroke-linecap="round"/>
<path d="M108.548 120.743C109.491 120.414 110.511 120.379 111.474 120.642C112.437 120.906 113.297 121.456 113.941 122.219" stroke="#263238" stroke-width="1.06068" stroke-miterlimit="10" stroke-linecap="round"/>
<path d="M107.572 124.915C107.436 126.466 107.436 128.025 107.572 129.575C107.816 131.539 109.28 132.027 108.792 133.503C108.304 134.979 106.34 134.968 106.34 134.968" stroke="#263238" stroke-width="1.06068" stroke-miterlimit="10" stroke-linecap="round"/>
<path d="M103.888 140.86C103.048 141.058 102.174 141.073 101.328 140.902C100.482 140.732 99.6819 140.38 98.9839 139.872" stroke="#263238" stroke-width="1.06068" stroke-miterlimit="10" stroke-linecap="round"/>
</svg>
