<svg width="782" height="767" viewBox="0 0 782 767" fill="none" xmlns="http://www.w3.org/2000/svg">
<path d="M325.397 766.718C499.566 766.718 640.758 757.922 640.758 747.072C640.758 736.221 499.566 727.425 325.397 727.425C151.227 727.425 10.0347 736.221 10.0347 747.072C10.0347 757.922 151.227 766.718 325.397 766.718Z" fill="#92E3A9"/>
<path opacity="0.8" d="M325.397 766.718C499.566 766.718 640.758 757.922 640.758 747.072C640.758 736.221 499.566 727.425 325.397 727.425C151.227 727.425 10.0347 736.221 10.0347 747.072C10.0347 757.922 151.227 766.718 325.397 766.718Z" fill="white"/>
<path d="M562.378 0H245.282C223.389 0 205.642 17.7472 205.642 39.6396V709.085C205.642 730.977 223.389 748.725 245.282 748.725H562.378C584.27 748.725 602.017 730.977 602.017 709.085V39.6396C602.017 17.7472 584.27 0 562.378 0Z" fill="#263238"/>
<path d="M584.39 82.2168H223.248V666.508H584.39V82.2168Z" fill="white" stroke="#263238" stroke-width="1.33739" stroke-miterlimit="10"/>
<path d="M459.181 318.813C489.751 288.243 489.751 238.679 459.181 208.109C428.611 177.539 379.047 177.539 348.477 208.109C317.907 238.679 317.907 288.243 348.477 318.813C379.047 349.383 428.611 349.383 459.181 318.813Z" fill="#92E3A9"/>
<path d="M506.6 629.765H301.078C300.616 629.768 300.157 629.679 299.729 629.504C299.301 629.329 298.912 629.071 298.584 628.745C298.256 628.418 297.996 628.031 297.818 627.604C297.64 627.177 297.549 626.719 297.549 626.256C297.546 625.792 297.636 625.332 297.812 624.902C297.988 624.473 298.248 624.083 298.577 623.754C298.905 623.426 299.295 623.166 299.724 622.99C300.154 622.813 300.614 622.724 301.078 622.727H506.6C507.063 622.727 507.521 622.818 507.948 622.996C508.375 623.173 508.762 623.434 509.089 623.762C509.415 624.09 509.673 624.479 509.848 624.907C510.023 625.335 510.112 625.793 510.109 626.256C510.109 627.187 509.739 628.079 509.081 628.737C508.423 629.395 507.531 629.765 506.6 629.765Z" fill="#92E3A9"/>
<path d="M513.292 385.746H294.367C289.849 385.746 286.186 389.409 286.186 393.927V419.735C286.186 424.253 289.849 427.915 294.367 427.915H513.292C517.811 427.915 521.473 424.253 521.473 419.735V393.927C521.473 389.409 517.811 385.746 513.292 385.746Z" fill="#92E3A9"/>
<path d="M513.292 464.617H294.367C289.849 464.617 286.186 468.28 286.186 472.798V498.606C286.186 503.124 289.849 506.786 294.367 506.786H513.292C517.811 506.786 521.473 503.124 521.473 498.606V472.798C521.473 468.28 517.811 464.617 513.292 464.617Z" fill="#92E3A9"/>
<path d="M442.807 302.509L419.774 289.248V278.293C423.109 274.258 425.525 269.545 426.853 264.481C427.646 264.763 428.48 264.908 429.321 264.91C432.178 264.91 433.993 256.056 434.299 249.731C437.625 242.693 433.096 238.572 433.096 238.572C433.096 238.572 434.973 236.695 436.217 229.167C437.462 221.639 431.831 224.781 427.445 217.885C423.058 210.989 419.916 203.482 405.513 203.482C401.544 203.351 397.628 204.418 394.274 206.543C390.919 208.667 388.281 211.752 386.703 215.396C383.118 215.409 379.546 215.826 376.054 216.641C371.647 217.885 370.403 232.309 374.157 237.96C375.837 241.048 376.734 244.502 376.768 248.018C375.768 246.794 374.728 246.467 374.157 249.242C372.912 255.505 377.931 264.277 377.931 264.277L380.522 263.543C381.827 268.954 384.345 273.998 387.887 278.293V289.248L364.854 302.509C362.164 304.062 359.93 306.295 358.376 308.985C356.821 311.674 356.002 314.725 356 317.831V325.42C369.698 336.002 386.52 341.743 403.83 341.743C421.14 341.743 437.962 336.002 451.661 325.42V317.831C451.662 314.724 450.845 311.671 449.29 308.981C447.736 306.292 445.499 304.059 442.807 302.509Z" fill="#263238"/>
<path d="M315.992 496.3C315.464 496.293 314.96 496.081 314.585 495.709C314.384 495.529 314.224 495.309 314.115 495.063C314.006 494.816 313.95 494.55 313.952 494.281C313.958 493.913 314.064 493.553 314.258 493.24L317.93 487.365L310.77 487.589C310.5 487.606 310.229 487.566 309.976 487.471C309.723 487.376 309.493 487.228 309.301 487.038C308.968 486.665 308.784 486.182 308.784 485.681C308.784 485.181 308.968 484.698 309.301 484.325C309.489 484.128 309.718 483.974 309.971 483.876C310.225 483.777 310.498 483.735 310.77 483.754L317.828 484.019L314.197 478.164C313.999 477.845 313.893 477.478 313.891 477.103C313.889 476.833 313.944 476.567 314.053 476.321C314.162 476.074 314.323 475.854 314.523 475.675C314.898 475.303 315.403 475.091 315.931 475.083C316.279 475.085 316.619 475.186 316.911 475.374C317.204 475.562 317.437 475.829 317.584 476.144L321.072 482.448L324.52 476.185C324.684 475.851 324.935 475.567 325.248 475.366C325.561 475.165 325.923 475.053 326.295 475.042C326.553 475.044 326.807 475.099 327.043 475.204C327.278 475.31 327.489 475.463 327.662 475.654C328.036 476.043 328.242 476.563 328.233 477.103C328.232 477.453 328.141 477.798 327.968 478.102L324.275 484.019L331.436 483.754C331.708 483.735 331.98 483.777 332.234 483.876C332.488 483.974 332.717 484.128 332.905 484.325C333.253 484.686 333.443 485.17 333.435 485.671C333.434 486.177 333.245 486.664 332.905 487.038C332.713 487.228 332.482 487.376 332.229 487.471C331.976 487.566 331.706 487.606 331.436 487.589L324.234 487.365L327.825 493.179C328.026 493.504 328.132 493.878 328.131 494.26C328.131 494.801 327.916 495.32 327.533 495.703C327.151 496.085 326.632 496.3 326.091 496.3C325.741 496.296 325.4 496.189 325.11 495.993C324.82 495.797 324.594 495.521 324.459 495.199L321.052 489.078L317.665 495.199C317.515 495.519 317.279 495.791 316.984 495.985C316.689 496.18 316.346 496.289 315.992 496.3Z" fill="#263238"/>
<path d="M349.083 496.3C348.555 496.293 348.051 496.081 347.676 495.709C347.475 495.529 347.315 495.309 347.206 495.063C347.097 494.817 347.041 494.55 347.043 494.281C347.049 493.913 347.155 493.553 347.349 493.24L351.021 487.365L343.881 487.589C343.609 487.601 343.336 487.559 343.081 487.464C342.825 487.37 342.591 487.225 342.392 487.038C342.121 486.759 341.94 486.404 341.874 486.021C341.807 485.638 341.858 485.243 342.018 484.889C342.179 484.535 342.442 484.237 342.775 484.034C343.107 483.832 343.492 483.734 343.881 483.754L350.919 484.019L347.288 478.164C347.09 477.845 346.985 477.478 346.982 477.103C346.98 476.834 347.035 476.567 347.144 476.321C347.253 476.074 347.414 475.854 347.614 475.675C347.989 475.303 348.494 475.091 349.022 475.083C349.37 475.085 349.71 475.186 350.002 475.374C350.295 475.562 350.528 475.829 350.675 476.144L354.163 482.448L357.611 476.185C357.775 475.851 358.026 475.567 358.339 475.366C358.652 475.165 359.014 475.053 359.386 475.042C359.644 475.041 359.9 475.095 360.135 475.201C360.371 475.306 360.582 475.461 360.753 475.654C360.942 475.845 361.091 476.071 361.193 476.32C361.295 476.568 361.346 476.834 361.344 477.103C361.337 477.455 361.239 477.799 361.059 478.102L357.366 484.019L364.547 483.794C364.816 483.776 365.085 483.818 365.336 483.917C365.587 484.016 365.812 484.169 365.996 484.366C366.344 484.727 366.534 485.211 366.526 485.712C366.525 486.218 366.336 486.705 365.996 487.079C365.808 487.269 365.581 487.416 365.331 487.511C365.081 487.606 364.814 487.646 364.547 487.63L357.325 487.405L360.916 493.22C361.117 493.544 361.223 493.919 361.222 494.301C361.222 494.842 361.007 495.361 360.624 495.744C360.242 496.126 359.723 496.341 359.182 496.341C358.832 496.336 358.491 496.23 358.201 496.034C357.911 495.838 357.685 495.562 357.55 495.239L354.143 489.119L350.756 495.239C350.6 495.552 350.362 495.816 350.067 496.003C349.773 496.19 349.432 496.293 349.083 496.3Z" fill="#263238"/>
<path d="M382.194 496.3C381.658 496.298 381.146 496.086 380.766 495.709C380.565 495.529 380.405 495.309 380.296 495.063C380.187 494.817 380.131 494.55 380.133 494.281C380.139 493.913 380.245 493.553 380.439 493.24L384.111 487.365L376.971 487.589C376.586 487.604 376.206 487.505 375.878 487.303C375.551 487.102 375.29 486.807 375.13 486.457C374.971 486.107 374.919 485.717 374.981 485.337C375.044 484.958 375.218 484.605 375.482 484.325C375.674 484.128 375.907 483.976 376.164 483.877C376.421 483.778 376.696 483.736 376.971 483.754L384.009 484.019L380.378 478.164C380.18 477.845 380.075 477.478 380.072 477.103C380.078 476.835 380.138 476.571 380.246 476.326C380.355 476.081 380.51 475.86 380.704 475.675C381.084 475.298 381.597 475.085 382.132 475.083C382.477 475.089 382.812 475.192 383.101 475.379C383.389 475.567 383.619 475.832 383.765 476.144L387.253 482.448L390.701 476.185C390.865 475.851 391.116 475.567 391.429 475.366C391.742 475.165 392.104 475.053 392.476 475.042C392.734 475.041 392.99 475.095 393.225 475.201C393.461 475.306 393.672 475.461 393.843 475.654C394.032 475.845 394.181 476.071 394.283 476.32C394.385 476.568 394.436 476.834 394.434 477.103C394.427 477.455 394.329 477.799 394.149 478.102L390.456 484.019L397.637 483.754C397.901 483.727 398.168 483.758 398.419 483.843C398.671 483.928 398.901 484.066 399.094 484.248C399.287 484.43 399.439 484.651 399.54 484.896C399.641 485.142 399.688 485.406 399.678 485.671C399.682 486.174 399.5 486.661 399.168 487.038C398.975 487.228 398.745 487.376 398.492 487.471C398.239 487.566 397.968 487.606 397.699 487.589L390.497 487.365L394.067 493.179C394.268 493.504 394.374 493.878 394.373 494.26C394.367 494.528 394.308 494.792 394.199 495.037C394.091 495.282 393.935 495.503 393.741 495.688C393.563 495.879 393.349 496.032 393.11 496.137C392.872 496.242 392.614 496.298 392.354 496.3C392.007 496.294 391.669 496.187 391.383 495.991C391.096 495.795 390.873 495.52 390.742 495.199L387.314 489.078L383.928 495.199C383.775 495.529 383.53 495.809 383.223 496.005C382.915 496.2 382.558 496.303 382.194 496.3Z" fill="#263238"/>
<path d="M415.285 496.3C414.749 496.298 414.237 496.086 413.857 495.709C413.472 495.332 413.252 494.819 413.244 494.281C413.238 493.914 413.337 493.553 413.53 493.24L417.202 487.365L410.062 487.589C409.789 487.601 409.517 487.559 409.261 487.464C409.006 487.37 408.771 487.225 408.573 487.038C408.24 486.665 408.056 486.182 408.056 485.681C408.056 485.181 408.24 484.698 408.573 484.325C408.77 484.134 409.003 483.986 409.259 483.888C409.515 483.789 409.788 483.744 410.062 483.754L417.121 484.019L413.51 478.164C413.312 477.845 413.206 477.478 413.204 477.103C413.21 476.835 413.269 476.571 413.378 476.326C413.486 476.081 413.642 475.86 413.836 475.675C414.216 475.298 414.729 475.085 415.264 475.083C415.612 475.085 415.952 475.186 416.244 475.374C416.537 475.562 416.77 475.829 416.917 476.144L420.385 482.448L423.833 476.185C423.996 475.851 424.248 475.567 424.561 475.366C424.874 475.165 425.236 475.053 425.608 475.042C425.866 475.041 426.121 475.095 426.357 475.201C426.593 475.306 426.803 475.461 426.975 475.654C427.164 475.845 427.313 476.071 427.415 476.32C427.516 476.568 427.568 476.834 427.566 477.103C427.559 477.455 427.46 477.799 427.281 478.102L423.588 484.019L430.769 483.754C431.033 483.727 431.3 483.758 431.551 483.843C431.802 483.928 432.032 484.066 432.226 484.248C432.419 484.43 432.571 484.651 432.672 484.896C432.772 485.142 432.819 485.406 432.809 485.671C432.814 486.174 432.632 486.661 432.299 487.038C432.107 487.228 431.877 487.376 431.624 487.471C431.371 487.566 431.1 487.606 430.83 487.589L423.629 487.365L427.199 493.179C427.4 493.504 427.506 493.878 427.505 494.26C427.507 494.53 427.452 494.796 427.342 495.042C427.233 495.289 427.073 495.509 426.872 495.688C426.695 495.879 426.48 496.032 426.242 496.137C426.003 496.242 425.746 496.298 425.485 496.3C425.138 496.294 424.801 496.187 424.514 495.991C424.228 495.795 424.005 495.52 423.874 495.199L420.446 489.078L417.06 495.199C416.904 495.536 416.653 495.82 416.337 496.016C416.022 496.212 415.656 496.311 415.285 496.3Z" fill="#263238"/>
<path d="M448.375 496.3C447.84 496.298 447.327 496.086 446.947 495.709C446.631 495.389 446.43 494.973 446.375 494.526C446.319 494.08 446.413 493.628 446.641 493.24L450.293 487.365L443.153 487.589C442.88 487.601 442.608 487.559 442.352 487.464C442.097 487.37 441.862 487.225 441.663 487.038C441.331 486.665 441.147 486.182 441.147 485.681C441.147 485.181 441.331 484.698 441.663 484.325C441.861 484.134 442.094 483.986 442.35 483.888C442.606 483.789 442.879 483.744 443.153 483.754L450.212 484.019L446.58 478.164C446.383 477.845 446.277 477.478 446.274 477.103C446.282 476.565 446.502 476.051 446.886 475.675C447.266 475.298 447.779 475.085 448.314 475.083C448.662 475.085 449.002 475.186 449.294 475.374C449.587 475.562 449.82 475.829 449.967 476.144L453.435 482.448L456.883 476.185C457.046 475.851 457.298 475.568 457.611 475.366C457.924 475.165 458.286 475.053 458.658 475.042C458.919 475.041 459.178 475.095 459.417 475.2C459.656 475.306 459.87 475.46 460.045 475.654C460.419 476.043 460.625 476.563 460.616 477.103C460.609 477.455 460.511 477.799 460.331 478.102L456.638 484.019L463.819 483.754C464.083 483.727 464.35 483.758 464.601 483.843C464.852 483.928 465.082 484.066 465.276 484.248C465.469 484.43 465.621 484.651 465.722 484.896C465.822 485.142 465.869 485.406 465.859 485.671C465.864 486.174 465.682 486.661 465.349 487.038C465.157 487.228 464.927 487.376 464.674 487.471C464.421 487.566 464.15 487.606 463.88 487.589L456.679 487.365L460.249 493.179C460.45 493.504 460.556 493.878 460.555 494.26C460.557 494.53 460.502 494.796 460.393 495.042C460.283 495.289 460.123 495.509 459.923 495.688C459.745 495.879 459.53 496.032 459.292 496.137C459.053 496.242 458.796 496.298 458.535 496.3C458.188 496.294 457.851 496.187 457.564 495.991C457.278 495.795 457.055 495.52 456.924 495.199L453.496 489.078L450.11 495.199C449.957 495.529 449.712 495.809 449.405 496.005C449.097 496.2 448.74 496.303 448.375 496.3Z" fill="#263238"/>
<path d="M481.466 496.3C480.938 496.293 480.433 496.081 480.058 495.709C479.857 495.529 479.697 495.309 479.588 495.063C479.479 494.817 479.424 494.55 479.426 494.281C479.432 493.913 479.538 493.553 479.732 493.24L483.383 487.365L476.243 487.589C475.98 487.609 475.716 487.574 475.468 487.486C475.22 487.398 474.992 487.26 474.8 487.08C474.609 486.899 474.456 486.681 474.353 486.438C474.251 486.196 474.199 485.935 474.203 485.671C474.202 485.422 474.249 485.174 474.344 484.943C474.439 484.712 474.578 484.502 474.754 484.325C474.942 484.128 475.171 483.974 475.424 483.876C475.678 483.777 475.951 483.735 476.223 483.754L483.281 484.019L479.65 478.164C479.452 477.845 479.346 477.478 479.344 477.103C479.352 476.565 479.572 476.051 479.956 475.675C480.336 475.298 480.849 475.085 481.384 475.083C481.732 475.085 482.072 475.186 482.364 475.374C482.657 475.562 482.89 475.829 483.037 476.144L486.505 482.448L489.973 476.185C490.135 475.854 490.384 475.572 490.692 475.371C491.001 475.17 491.359 475.056 491.727 475.042C491.989 475.041 492.247 475.095 492.486 475.2C492.726 475.306 492.94 475.46 493.115 475.654C493.489 476.043 493.695 476.563 493.686 477.103C493.685 477.453 493.594 477.798 493.421 478.102L489.728 484.019L496.889 483.754C497.161 483.735 497.433 483.777 497.687 483.876C497.941 483.974 498.17 484.128 498.358 484.325C498.706 484.686 498.896 485.17 498.888 485.671C498.887 486.177 498.698 486.664 498.358 487.038C498.166 487.228 497.935 487.376 497.682 487.471C497.429 487.566 497.159 487.606 496.889 487.589L489.687 487.365L493.258 493.179C493.459 493.504 493.565 493.878 493.564 494.26C493.556 494.798 493.336 495.312 492.952 495.688C492.58 496.068 492.075 496.287 491.544 496.3C491.197 496.294 490.859 496.187 490.573 495.991C490.286 495.795 490.064 495.52 489.932 495.199L486.505 489.078L483.118 495.199C482.971 495.517 482.739 495.789 482.448 495.983C482.156 496.177 481.816 496.287 481.466 496.3Z" fill="#263238"/>
<g style="mix-blend-mode:multiply">
<path d="M584.39 82.9923H223.248V105.617H584.39V82.9923Z" fill="#92E3A9"/>
</g>
<path d="M443.092 41.3124H364.547C363.13 41.3124 361.77 40.7493 360.768 39.7469C359.765 38.7445 359.202 37.3849 359.202 35.9673C359.202 34.5497 359.765 33.1901 360.768 32.1877C361.77 31.1853 363.13 30.6222 364.547 30.6222H443.092C444.51 30.6222 445.869 31.1853 446.872 32.1877C447.874 33.1901 448.437 34.5497 448.437 35.9673C448.437 37.3849 447.874 38.7445 446.872 39.7469C445.869 40.7493 444.51 41.3124 443.092 41.3124Z" fill="#92E3A9" stroke="#263238" stroke-width="1.33739" stroke-linecap="round" stroke-linejoin="round"/>
<path d="M425.24 699.517C425.245 695.278 423.991 691.134 421.639 687.608C419.287 684.082 415.941 681.334 412.026 679.71C408.111 678.086 403.802 677.66 399.645 678.486C395.488 679.312 391.669 681.352 388.672 684.349C385.675 687.346 383.634 691.165 382.809 695.322C381.983 699.48 382.409 703.788 384.032 707.703C385.656 711.619 388.405 714.964 391.931 717.316C395.457 719.668 399.601 720.922 403.84 720.918C409.514 720.912 414.954 718.656 418.966 714.644C422.979 710.631 425.235 705.191 425.24 699.517Z" fill="#92E3A9"/>
<path d="M414.694 688.664H392.987V710.37H414.694V688.664Z" fill="#92E3A9" stroke="#263238" stroke-width="1.33739" stroke-linecap="round" stroke-linejoin="round"/>
<path d="M662.403 453.192C662.403 453.192 633.963 380.931 659.281 372.342C685.64 363.386 684.477 411.105 683.457 434.362C681.315 484.059 675.827 493.301 671.726 481.162L662.403 453.192ZM653.855 509.561C661.668 519.762 663.872 509.194 649.774 461.475C643.164 439.034 628.802 393.641 606.769 410.676C585.613 426.997 635.963 486.161 635.963 486.161L653.855 509.561ZM638.758 550.975C646.204 557.585 646.347 549.241 628.659 514.784C620.356 498.646 602.79 465.984 588.408 482.142C574.596 497.728 621.661 535.613 621.661 535.613L638.758 550.975ZM622.437 600.224C629.883 606.854 630.026 598.49 612.338 564.053C604.035 547.915 586.469 515.232 572.087 531.411C558.357 547.038 605.279 584.923 605.279 584.923L622.437 600.224ZM669.564 499.972C657.649 504.624 667.115 509.683 716.874 509.54C740.213 509.54 787.87 508.48 777.71 482.55C767.979 457.64 697.105 489.364 697.105 489.364L669.564 499.972ZM655.997 533.104C643.389 535.287 651.672 542.142 700.471 551.893C723.341 556.484 770.244 564.95 765.449 537.613C760.859 511.254 685.089 528.269 685.089 528.269L655.997 533.104ZM640.818 573.559C630.087 575.11 636.942 581.088 677.969 590.472C697.207 594.879 736.684 603.141 733.256 579.823C729.992 557.381 665.524 570.071 665.524 570.071L640.818 573.559ZM629.292 611.037C618.785 613.709 626.231 618.932 668.054 623.91C687.639 626.235 727.768 630.275 721.913 607.446C716.262 585.535 653.508 604.937 653.508 604.937L629.292 611.037ZM690.781 459.313C684.66 473.022 697.37 470.941 740.58 433.24C760.818 415.552 801.417 378.544 769.264 360.122C738.397 342.414 705.204 427.854 705.204 427.854L690.781 459.313ZM630.883 659.857C624.416 663.631 630.76 665.1 660.424 659.183C674.337 656.429 702.634 650.309 693.066 638.231C683.804 626.603 645.857 651.084 645.857 651.084L630.883 659.857Z" fill="#92E3A9"/>
<path opacity="0.3" d="M662.403 453.192C662.403 453.192 633.963 380.931 659.281 372.342C685.64 363.386 684.477 411.105 683.457 434.362C681.315 484.059 675.827 493.301 671.726 481.162L662.403 453.192ZM653.855 509.561C661.668 519.762 663.872 509.194 649.774 461.475C643.164 439.034 628.802 393.641 606.769 410.676C585.613 426.997 635.963 486.161 635.963 486.161L653.855 509.561ZM638.758 550.975C646.204 557.585 646.347 549.241 628.659 514.784C620.356 498.646 602.79 465.984 588.408 482.142C574.596 497.728 621.661 535.613 621.661 535.613L638.758 550.975ZM622.437 600.224C629.883 606.854 630.026 598.49 612.338 564.053C604.035 547.915 586.469 515.232 572.087 531.411C558.357 547.038 605.279 584.923 605.279 584.923L622.437 600.224ZM669.564 499.972C657.649 504.624 667.115 509.683 716.874 509.54C740.213 509.54 787.87 508.48 777.71 482.55C767.979 457.64 697.105 489.364 697.105 489.364L669.564 499.972ZM655.997 533.104C643.389 535.287 651.672 542.142 700.471 551.893C723.341 556.484 770.244 564.95 765.449 537.613C760.859 511.254 685.089 528.269 685.089 528.269L655.997 533.104ZM640.818 573.559C630.087 575.11 636.942 581.088 677.969 590.472C697.207 594.879 736.684 603.141 733.256 579.823C729.992 557.381 665.524 570.071 665.524 570.071L640.818 573.559ZM629.292 611.037C618.785 613.709 626.231 618.932 668.054 623.91C687.639 626.235 727.768 630.275 721.913 607.446C716.262 585.535 653.508 604.937 653.508 604.937L629.292 611.037ZM690.781 459.313C684.66 473.022 697.37 470.941 740.58 433.24C760.818 415.552 801.417 378.544 769.264 360.122C738.397 342.414 705.204 427.854 705.204 427.854L690.781 459.313ZM630.883 659.857C624.416 663.631 630.76 665.1 660.424 659.183C674.337 656.429 702.634 650.309 693.066 638.231C683.804 626.603 645.857 651.084 645.857 651.084L630.883 659.857Z" fill="white"/>
<path d="M674.95 486.834L669.992 404.352ZM659.261 514.049L627.925 443.114ZM740.132 493.423L665.035 504.195ZM643.022 552.281L602.362 500.115ZM650.162 536.286L706.184 539.102ZM636.901 576.293L679.744 580.537ZM626.558 601.713L605.279 569.703ZM624.11 613.015L674.48 613.485ZM613.909 707.514C614.247 707.488 614.56 707.329 614.782 707.073C615.003 706.818 615.115 706.485 615.092 706.147C611.889 658.041 630.495 579.251 660.342 514.579C679.417 473.247 754.188 392.009 754.984 391.193C755.224 390.952 755.359 390.625 755.359 390.285C755.359 389.945 755.224 389.618 754.984 389.377C754.866 389.259 754.726 389.165 754.572 389.101C754.418 389.036 754.253 389.003 754.086 389.003C753.919 389.003 753.754 389.036 753.6 389.101C753.446 389.165 753.306 389.259 753.188 389.377C752.433 390.193 677.357 471.737 658.119 513.437C627.721 579.68 609.36 657.041 612.624 706.31C612.649 706.635 612.795 706.938 613.033 707.161C613.271 707.384 613.583 707.51 613.909 707.514ZM674.929 488.099C675.267 488.078 675.582 487.924 675.807 487.672C676.033 487.42 676.15 487.09 676.133 486.752L671.257 404.229C671.249 404.061 671.208 403.896 671.136 403.745C671.064 403.593 670.962 403.457 670.837 403.345C670.711 403.233 670.565 403.147 670.406 403.092C670.247 403.037 670.078 403.015 669.911 403.026C669.573 403.047 669.258 403.2 669.032 403.452C668.807 403.704 668.69 404.034 668.707 404.372L673.664 486.854C673.68 487.179 673.82 487.485 674.056 487.709C674.291 487.933 674.604 488.058 674.929 488.058V488.099ZM659.71 515.212C660.016 515.073 660.255 514.821 660.377 514.508C660.499 514.196 660.494 513.848 660.363 513.539L629.006 442.604C628.871 442.296 628.619 442.053 628.305 441.931C627.991 441.809 627.642 441.816 627.333 441.951C627.025 442.086 626.783 442.339 626.66 442.652C626.538 442.966 626.545 443.316 626.68 443.624L658.017 514.559C658.115 514.787 658.277 514.981 658.483 515.119C658.69 515.256 658.932 515.331 659.18 515.334C659.391 515.345 659.601 515.303 659.792 515.212H659.71ZM665.137 505.419L740.193 494.688C740.374 494.684 740.552 494.642 740.716 494.565C740.88 494.487 741.026 494.376 741.143 494.238C741.261 494.1 741.348 493.939 741.399 493.765C741.45 493.591 741.464 493.408 741.439 493.229C741.415 493.049 741.353 492.877 741.257 492.723C741.161 492.569 741.033 492.437 740.883 492.336C740.732 492.235 740.562 492.167 740.383 492.136C740.205 492.106 740.021 492.113 739.846 492.158L664.79 502.889C664.454 502.911 664.141 503.065 663.919 503.318C663.697 503.57 663.585 503.901 663.607 504.236C663.628 504.571 663.782 504.885 664.035 505.106C664.287 505.328 664.618 505.441 664.953 505.419H665.137ZM643.736 553.301C644.002 553.092 644.175 552.786 644.217 552.449C644.259 552.113 644.167 551.774 643.96 551.506L603.28 499.238C603.072 498.967 602.765 498.79 602.426 498.746C602.087 498.702 601.745 498.795 601.475 499.003C601.204 499.211 601.027 499.519 600.983 499.857C600.939 500.196 601.032 500.538 601.24 500.809L642.002 553.158C642.12 553.311 642.272 553.434 642.445 553.519C642.618 553.604 642.808 553.648 643.001 553.648C643.306 553.633 643.595 553.51 643.817 553.301H643.736ZM707.306 539.163C707.317 538.825 707.195 538.497 706.966 538.249C706.737 538.001 706.419 537.853 706.082 537.837L650.162 535.001C649.848 535.023 649.553 535.159 649.332 535.384C649.112 535.609 648.982 535.907 648.967 536.222C648.951 536.536 649.052 536.845 649.25 537.091C649.448 537.336 649.729 537.5 650.04 537.551L706.061 540.387C706.399 540.398 706.727 540.276 706.976 540.047C707.224 539.818 707.372 539.5 707.388 539.163H707.306ZM680.927 580.659C680.947 580.491 680.933 580.321 680.886 580.159C680.839 579.996 680.76 579.845 680.653 579.714C680.547 579.583 680.415 579.474 680.266 579.395C680.117 579.315 679.953 579.266 679.785 579.251L636.942 575.028C636.776 575.011 636.608 575.028 636.448 575.076C636.288 575.124 636.139 575.204 636.01 575.31C635.881 575.416 635.775 575.547 635.697 575.695C635.618 575.843 635.57 576.004 635.555 576.171C635.526 576.505 635.63 576.838 635.843 577.097C636.057 577.356 636.363 577.522 636.697 577.558L679.54 581.801H679.662C679.991 581.824 680.316 581.717 680.568 581.504C680.819 581.291 680.978 580.987 681.009 580.659H680.927ZM627.17 602.774C627.453 602.587 627.651 602.295 627.72 601.962C627.789 601.63 627.723 601.283 627.537 600.999L606.361 568.989C606.167 568.714 605.874 568.524 605.543 568.459C605.212 568.394 604.869 568.46 604.586 568.643C604.303 568.83 604.105 569.122 604.036 569.454C603.967 569.787 604.033 570.133 604.219 570.418L625.395 602.427C625.516 602.602 625.678 602.745 625.866 602.845C626.054 602.944 626.264 602.997 626.476 602.998C626.753 603.013 627.026 602.934 627.252 602.774H627.17ZM675.766 613.485C675.761 613.149 675.626 612.828 675.391 612.588C675.155 612.349 674.836 612.21 674.501 612.199L624.13 611.73C623.795 611.73 623.473 611.863 623.236 612.1C622.999 612.338 622.865 612.659 622.865 612.995C622.86 613.163 622.889 613.331 622.95 613.488C623.011 613.646 623.104 613.789 623.222 613.909C623.34 614.029 623.482 614.124 623.638 614.188C623.794 614.252 623.962 614.283 624.13 614.28L674.501 614.749C674.673 614.758 674.845 614.731 675.007 614.671C675.168 614.612 675.317 614.52 675.442 614.402C675.568 614.284 675.668 614.142 675.738 613.985C675.808 613.827 675.845 613.657 675.847 613.485H675.766ZM608.176 688.806C608.278 688.581 616.867 664.916 642.695 659.265C643.028 659.192 643.318 658.989 643.502 658.702C643.685 658.416 643.747 658.067 643.675 657.735C643.592 657.409 643.387 657.127 643.102 656.948C642.817 656.77 642.474 656.708 642.144 656.776C614.909 662.733 605.871 687.724 605.769 687.969C605.664 688.291 605.688 688.642 605.837 688.946C605.985 689.251 606.246 689.486 606.565 689.601H606.973C607.244 689.625 607.516 689.56 607.747 689.417C607.979 689.273 608.158 689.059 608.258 688.806H608.176ZM613.909 707.514C614.247 707.488 614.56 707.329 614.782 707.073C615.003 706.818 615.115 706.485 615.092 706.147C611.889 658.041 630.495 579.251 660.342 514.579C679.417 473.247 754.188 392.009 754.984 391.193C755.224 390.952 755.359 390.625 755.359 390.285C755.359 389.945 755.224 389.618 754.984 389.377C754.866 389.259 754.726 389.165 754.572 389.101C754.418 389.036 754.253 389.003 754.086 389.003C753.919 389.003 753.754 389.036 753.6 389.101C753.446 389.165 753.306 389.259 753.188 389.377C752.433 390.193 677.357 471.737 658.119 513.437C627.721 579.68 609.36 657.041 612.624 706.31C612.649 706.635 612.795 706.938 613.033 707.161C613.271 707.384 613.583 707.51 613.909 707.514ZM674.929 488.099C675.267 488.078 675.582 487.924 675.807 487.672C676.033 487.42 676.15 487.09 676.133 486.752L671.257 404.229C671.249 404.061 671.208 403.896 671.136 403.745C671.064 403.593 670.962 403.457 670.837 403.345C670.711 403.233 670.565 403.147 670.406 403.092C670.247 403.037 670.078 403.015 669.911 403.026C669.573 403.047 669.258 403.2 669.032 403.452C668.807 403.704 668.69 404.034 668.707 404.372L673.664 486.854C673.68 487.179 673.82 487.485 674.056 487.709C674.291 487.933 674.604 488.058 674.929 488.058V488.099ZM659.71 515.212C660.016 515.073 660.255 514.821 660.377 514.508C660.499 514.196 660.494 513.848 660.363 513.539L629.006 442.604C628.871 442.296 628.619 442.053 628.305 441.931C627.991 441.809 627.642 441.816 627.333 441.951C627.025 442.086 626.783 442.339 626.66 442.652C626.538 442.966 626.545 443.316 626.68 443.624L658.017 514.559C658.115 514.787 658.277 514.981 658.483 515.119C658.69 515.256 658.932 515.331 659.18 515.334C659.391 515.345 659.601 515.303 659.792 515.212H659.71ZM665.137 505.419L740.193 494.688C740.374 494.684 740.552 494.642 740.716 494.565C740.88 494.487 741.026 494.376 741.143 494.238C741.261 494.1 741.348 493.939 741.399 493.765C741.45 493.591 741.464 493.408 741.439 493.229C741.415 493.049 741.353 492.877 741.257 492.723C741.161 492.569 741.033 492.437 740.883 492.336C740.732 492.235 740.562 492.167 740.383 492.136C740.205 492.106 740.021 492.113 739.846 492.158L664.79 502.889C664.454 502.911 664.141 503.065 663.919 503.318C663.697 503.57 663.585 503.901 663.607 504.236C663.628 504.571 663.782 504.885 664.035 505.106C664.287 505.328 664.618 505.441 664.953 505.419H665.137ZM643.736 553.301C644.002 553.092 644.175 552.786 644.217 552.449C644.259 552.113 644.167 551.774 643.96 551.506L603.28 499.238C603.177 499.104 603.048 498.991 602.902 498.907C602.755 498.823 602.594 498.768 602.426 498.746C602.258 498.725 602.088 498.736 601.925 498.78C601.762 498.824 601.609 498.9 601.475 499.003C601.341 499.106 601.228 499.235 601.144 499.381C601.06 499.528 601.005 499.69 600.983 499.857C600.962 500.025 600.973 500.195 601.017 500.358C601.061 500.522 601.137 500.675 601.24 500.809L642.002 553.158C642.12 553.311 642.272 553.434 642.445 553.519C642.618 553.604 642.808 553.648 643.001 553.648C643.306 553.633 643.595 553.51 643.817 553.301H643.736ZM707.306 539.163C707.317 538.825 707.195 538.497 706.966 538.249C706.737 538.001 706.419 537.853 706.082 537.837L650.162 535.001C649.848 535.023 649.553 535.159 649.332 535.384C649.112 535.609 648.982 535.907 648.967 536.222C648.951 536.536 649.052 536.845 649.25 537.091C649.448 537.336 649.729 537.5 650.04 537.551L706.061 540.387C706.399 540.398 706.727 540.276 706.976 540.047C707.224 539.818 707.372 539.5 707.388 539.163H707.306ZM680.927 580.659C680.947 580.491 680.933 580.321 680.886 580.159C680.839 579.996 680.76 579.845 680.653 579.714C680.547 579.583 680.415 579.474 680.266 579.395C680.117 579.315 679.953 579.266 679.785 579.251L636.942 575.028C636.776 575.011 636.608 575.028 636.448 575.076C636.288 575.124 636.139 575.204 636.01 575.31C635.881 575.416 635.775 575.547 635.697 575.695C635.618 575.843 635.57 576.004 635.555 576.171C635.526 576.505 635.63 576.838 635.843 577.097C636.057 577.356 636.363 577.522 636.697 577.558L679.54 581.801H679.662C679.991 581.824 680.316 581.717 680.568 581.504C680.819 581.291 680.978 580.987 681.009 580.659H680.927ZM627.17 602.774C627.453 602.587 627.651 602.295 627.72 601.962C627.789 601.63 627.723 601.283 627.537 600.999L606.361 568.989C606.167 568.714 605.874 568.524 605.543 568.459C605.212 568.394 604.869 568.46 604.586 568.643C604.303 568.83 604.105 569.122 604.036 569.454C603.967 569.787 604.033 570.133 604.219 570.418L625.395 602.427C625.516 602.602 625.678 602.745 625.866 602.845C626.054 602.944 626.264 602.997 626.476 602.998C626.753 603.013 627.026 602.934 627.252 602.774H627.17ZM675.766 613.485C675.761 613.149 675.626 612.828 675.391 612.588C675.155 612.349 674.836 612.21 674.501 612.199L624.13 611.73C623.795 611.73 623.473 611.863 623.236 612.1C622.999 612.338 622.865 612.659 622.865 612.995C622.86 613.163 622.889 613.331 622.95 613.488C623.011 613.646 623.104 613.789 623.222 613.909C623.34 614.029 623.482 614.124 623.638 614.188C623.794 614.252 623.962 614.283 624.13 614.28L674.501 614.749C674.673 614.758 674.845 614.731 675.007 614.671C675.168 614.612 675.317 614.52 675.442 614.402C675.568 614.284 675.668 614.142 675.738 613.985C675.808 613.827 675.845 613.657 675.847 613.485H675.766ZM608.176 688.806C608.278 688.581 616.867 664.916 642.695 659.265C643.028 659.192 643.318 658.989 643.502 658.702C643.685 658.416 643.747 658.067 643.675 657.735C643.592 657.409 643.387 657.127 643.102 656.948C642.817 656.77 642.474 656.708 642.144 656.776C614.909 662.733 605.871 687.724 605.769 687.969C605.664 688.291 605.688 688.642 605.837 688.946C605.985 689.251 606.246 689.486 606.565 689.601H606.973C607.244 689.625 607.516 689.56 607.747 689.417C607.979 689.273 608.158 689.059 608.258 688.806H608.176Z" fill="#92E3A9"/>
<path opacity="0.2" d="M674.95 486.834L669.992 404.352ZM659.261 514.049L627.925 443.114ZM740.132 493.423L665.035 504.195ZM643.022 552.281L602.362 500.115ZM650.162 536.286L706.184 539.102ZM636.901 576.293L679.744 580.537ZM626.558 601.713L605.279 569.703ZM624.11 613.015L674.48 613.485ZM613.909 707.514C614.247 707.488 614.56 707.329 614.782 707.073C615.003 706.818 615.115 706.485 615.092 706.147C611.889 658.041 630.495 579.251 660.342 514.579C679.417 473.247 754.188 392.009 754.984 391.193C755.224 390.952 755.359 390.625 755.359 390.285C755.359 389.945 755.224 389.618 754.984 389.377C754.866 389.259 754.726 389.165 754.572 389.101C754.418 389.036 754.253 389.003 754.086 389.003C753.919 389.003 753.754 389.036 753.6 389.101C753.446 389.165 753.306 389.259 753.188 389.377C752.433 390.193 677.357 471.737 658.119 513.437C627.721 579.68 609.36 657.041 612.624 706.31C612.649 706.635 612.795 706.938 613.033 707.161C613.271 707.384 613.583 707.51 613.909 707.514ZM674.929 488.099C675.267 488.078 675.582 487.924 675.807 487.672C676.033 487.42 676.15 487.09 676.133 486.752L671.257 404.229C671.249 404.061 671.208 403.896 671.136 403.745C671.064 403.593 670.962 403.457 670.837 403.345C670.711 403.233 670.565 403.147 670.406 403.092C670.247 403.037 670.078 403.015 669.911 403.026C669.573 403.047 669.258 403.2 669.032 403.452C668.807 403.704 668.69 404.034 668.707 404.372L673.664 486.854C673.68 487.179 673.82 487.485 674.056 487.709C674.291 487.933 674.604 488.058 674.929 488.058V488.099ZM659.71 515.212C660.016 515.073 660.255 514.821 660.377 514.508C660.499 514.196 660.494 513.848 660.363 513.539L629.006 442.604C628.871 442.296 628.619 442.053 628.305 441.931C627.991 441.809 627.642 441.816 627.333 441.951C627.025 442.086 626.783 442.339 626.66 442.652C626.538 442.966 626.545 443.316 626.68 443.624L658.017 514.559C658.115 514.787 658.277 514.981 658.483 515.119C658.69 515.256 658.932 515.331 659.18 515.334C659.391 515.345 659.601 515.303 659.792 515.212H659.71ZM665.137 505.419L740.193 494.688C740.374 494.684 740.552 494.642 740.716 494.565C740.88 494.487 741.026 494.376 741.143 494.238C741.261 494.1 741.348 493.939 741.399 493.765C741.45 493.591 741.464 493.408 741.439 493.229C741.415 493.049 741.353 492.877 741.257 492.723C741.161 492.569 741.033 492.437 740.883 492.336C740.732 492.235 740.562 492.167 740.383 492.136C740.205 492.106 740.021 492.113 739.846 492.158L664.79 502.889C664.454 502.911 664.141 503.065 663.919 503.318C663.697 503.57 663.585 503.901 663.607 504.236C663.628 504.571 663.782 504.885 664.035 505.106C664.287 505.328 664.618 505.441 664.953 505.419H665.137ZM643.736 553.301C644.002 553.092 644.175 552.786 644.217 552.449C644.259 552.113 644.167 551.774 643.96 551.506L603.28 499.238C603.072 498.967 602.765 498.79 602.426 498.746C602.087 498.702 601.745 498.795 601.475 499.003C601.204 499.211 601.027 499.519 600.983 499.857C600.939 500.196 601.032 500.538 601.24 500.809L642.002 553.158C642.12 553.311 642.272 553.434 642.445 553.519C642.618 553.604 642.808 553.648 643.001 553.648C643.306 553.633 643.595 553.51 643.817 553.301H643.736ZM707.306 539.163C707.317 538.825 707.195 538.497 706.966 538.249C706.737 538.001 706.419 537.853 706.082 537.837L650.162 535.001C649.848 535.023 649.553 535.159 649.332 535.384C649.112 535.609 648.982 535.907 648.967 536.222C648.951 536.536 649.052 536.845 649.25 537.091C649.448 537.336 649.729 537.5 650.04 537.551L706.061 540.387C706.399 540.398 706.727 540.276 706.976 540.047C707.224 539.818 707.372 539.5 707.388 539.163H707.306ZM680.927 580.659C680.947 580.491 680.933 580.321 680.886 580.159C680.839 579.996 680.76 579.845 680.653 579.714C680.547 579.583 680.415 579.474 680.266 579.395C680.117 579.315 679.953 579.266 679.785 579.251L636.942 575.028C636.776 575.011 636.608 575.028 636.448 575.076C636.288 575.124 636.139 575.204 636.01 575.31C635.881 575.416 635.775 575.547 635.697 575.695C635.618 575.843 635.57 576.004 635.555 576.171C635.526 576.505 635.63 576.838 635.843 577.097C636.057 577.356 636.363 577.522 636.697 577.558L679.54 581.801H679.662C679.991 581.824 680.316 581.717 680.568 581.504C680.819 581.291 680.978 580.987 681.009 580.659H680.927ZM627.17 602.774C627.453 602.587 627.651 602.295 627.72 601.962C627.789 601.63 627.723 601.283 627.537 600.999L606.361 568.989C606.167 568.714 605.874 568.524 605.543 568.459C605.212 568.394 604.869 568.46 604.586 568.643C604.303 568.83 604.105 569.122 604.036 569.454C603.967 569.787 604.033 570.133 604.219 570.418L625.395 602.427C625.516 602.602 625.678 602.745 625.866 602.845C626.054 602.944 626.264 602.997 626.476 602.998C626.753 603.013 627.026 602.934 627.252 602.774H627.17ZM675.766 613.485C675.761 613.149 675.626 612.828 675.391 612.588C675.155 612.349 674.836 612.21 674.501 612.199L624.13 611.73C623.795 611.73 623.473 611.863 623.236 612.1C622.999 612.338 622.865 612.659 622.865 612.995C622.86 613.163 622.889 613.331 622.95 613.488C623.011 613.646 623.104 613.789 623.222 613.909C623.34 614.029 623.482 614.124 623.638 614.188C623.794 614.252 623.962 614.283 624.13 614.28L674.501 614.749C674.673 614.758 674.845 614.731 675.007 614.671C675.168 614.612 675.317 614.52 675.442 614.402C675.568 614.284 675.668 614.142 675.738 613.985C675.808 613.827 675.845 613.657 675.847 613.485H675.766ZM608.176 688.806C608.278 688.581 616.867 664.916 642.695 659.265C643.028 659.192 643.318 658.989 643.502 658.702C643.685 658.416 643.747 658.067 643.675 657.735C643.592 657.409 643.387 657.127 643.102 656.948C642.817 656.77 642.474 656.708 642.144 656.776C614.909 662.733 605.871 687.724 605.769 687.969C605.664 688.291 605.688 688.642 605.837 688.946C605.985 689.251 606.246 689.486 606.565 689.601H606.973C607.244 689.625 607.516 689.56 607.747 689.417C607.979 689.273 608.158 689.059 608.258 688.806H608.176ZM613.909 707.514C614.247 707.488 614.56 707.329 614.782 707.073C615.003 706.818 615.115 706.485 615.092 706.147C611.889 658.041 630.495 579.251 660.342 514.579C679.417 473.247 754.188 392.009 754.984 391.193C755.224 390.952 755.359 390.625 755.359 390.285C755.359 389.945 755.224 389.618 754.984 389.377C754.866 389.259 754.726 389.165 754.572 389.101C754.418 389.036 754.253 389.003 754.086 389.003C753.919 389.003 753.754 389.036 753.6 389.101C753.446 389.165 753.306 389.259 753.188 389.377C752.433 390.193 677.357 471.737 658.119 513.437C627.721 579.68 609.36 657.041 612.624 706.31C612.649 706.635 612.795 706.938 613.033 707.161C613.271 707.384 613.583 707.51 613.909 707.514ZM674.929 488.099C675.267 488.078 675.582 487.924 675.807 487.672C676.033 487.42 676.15 487.09 676.133 486.752L671.257 404.229C671.249 404.061 671.208 403.896 671.136 403.745C671.064 403.593 670.962 403.457 670.837 403.345C670.711 403.233 670.565 403.147 670.406 403.092C670.247 403.037 670.078 403.015 669.911 403.026C669.573 403.047 669.258 403.2 669.032 403.452C668.807 403.704 668.69 404.034 668.707 404.372L673.664 486.854C673.68 487.179 673.82 487.485 674.056 487.709C674.291 487.933 674.604 488.058 674.929 488.058V488.099ZM659.71 515.212C660.016 515.073 660.255 514.821 660.377 514.508C660.499 514.196 660.494 513.848 660.363 513.539L629.006 442.604C628.871 442.296 628.619 442.053 628.305 441.931C627.991 441.809 627.642 441.816 627.333 441.951C627.025 442.086 626.783 442.339 626.66 442.652C626.538 442.966 626.545 443.316 626.68 443.624L658.017 514.559C658.115 514.787 658.277 514.981 658.483 515.119C658.69 515.256 658.932 515.331 659.18 515.334C659.391 515.345 659.601 515.303 659.792 515.212H659.71ZM665.137 505.419L740.193 494.688C740.374 494.684 740.552 494.642 740.716 494.565C740.88 494.487 741.026 494.376 741.143 494.238C741.261 494.1 741.348 493.939 741.399 493.765C741.45 493.591 741.464 493.408 741.439 493.229C741.415 493.049 741.353 492.877 741.257 492.723C741.161 492.569 741.033 492.437 740.883 492.336C740.732 492.235 740.562 492.167 740.383 492.136C740.205 492.106 740.021 492.113 739.846 492.158L664.79 502.889C664.454 502.911 664.141 503.065 663.919 503.318C663.697 503.57 663.585 503.901 663.607 504.236C663.628 504.571 663.782 504.885 664.035 505.106C664.287 505.328 664.618 505.441 664.953 505.419H665.137ZM643.736 553.301C644.002 553.092 644.175 552.786 644.217 552.449C644.259 552.113 644.167 551.774 643.96 551.506L603.28 499.238C603.177 499.104 603.048 498.991 602.902 498.907C602.755 498.823 602.594 498.768 602.426 498.746C602.258 498.725 602.088 498.736 601.925 498.78C601.762 498.824 601.609 498.9 601.475 499.003C601.341 499.106 601.228 499.235 601.144 499.381C601.06 499.528 601.005 499.69 600.983 499.857C600.962 500.025 600.973 500.195 601.017 500.358C601.061 500.522 601.137 500.675 601.24 500.809L642.002 553.158C642.12 553.311 642.272 553.434 642.445 553.519C642.618 553.604 642.808 553.648 643.001 553.648C643.306 553.633 643.595 553.51 643.817 553.301H643.736ZM707.306 539.163C707.317 538.825 707.195 538.497 706.966 538.249C706.737 538.001 706.419 537.853 706.082 537.837L650.162 535.001C649.848 535.023 649.553 535.159 649.332 535.384C649.112 535.609 648.982 535.907 648.967 536.222C648.951 536.536 649.052 536.845 649.25 537.091C649.448 537.336 649.729 537.5 650.04 537.551L706.061 540.387C706.399 540.398 706.727 540.276 706.976 540.047C707.224 539.818 707.372 539.5 707.388 539.163H707.306ZM680.927 580.659C680.947 580.491 680.933 580.321 680.886 580.159C680.839 579.996 680.76 579.845 680.653 579.714C680.547 579.583 680.415 579.474 680.266 579.395C680.117 579.315 679.953 579.266 679.785 579.251L636.942 575.028C636.776 575.011 636.608 575.028 636.448 575.076C636.288 575.124 636.139 575.204 636.01 575.31C635.881 575.416 635.775 575.547 635.697 575.695C635.618 575.843 635.57 576.004 635.555 576.171C635.526 576.505 635.63 576.838 635.843 577.097C636.057 577.356 636.363 577.522 636.697 577.558L679.54 581.801H679.662C679.991 581.824 680.316 581.717 680.568 581.504C680.819 581.291 680.978 580.987 681.009 580.659H680.927ZM627.17 602.774C627.453 602.587 627.651 602.295 627.72 601.962C627.789 601.63 627.723 601.283 627.537 600.999L606.361 568.989C606.167 568.714 605.874 568.524 605.543 568.459C605.212 568.394 604.869 568.46 604.586 568.643C604.303 568.83 604.105 569.122 604.036 569.454C603.967 569.787 604.033 570.133 604.219 570.418L625.395 602.427C625.516 602.602 625.678 602.745 625.866 602.845C626.054 602.944 626.264 602.997 626.476 602.998C626.753 603.013 627.026 602.934 627.252 602.774H627.17ZM675.766 613.485C675.761 613.149 675.626 612.828 675.391 612.588C675.155 612.349 674.836 612.21 674.501 612.199L624.13 611.73C623.795 611.73 623.473 611.863 623.236 612.1C622.999 612.338 622.865 612.659 622.865 612.995C622.86 613.163 622.889 613.331 622.95 613.488C623.011 613.646 623.104 613.789 623.222 613.909C623.34 614.029 623.482 614.124 623.638 614.188C623.794 614.252 623.962 614.283 624.13 614.28L674.501 614.749C674.673 614.758 674.845 614.731 675.007 614.671C675.168 614.612 675.317 614.52 675.442 614.402C675.568 614.284 675.668 614.142 675.738 613.985C675.808 613.827 675.845 613.657 675.847 613.485H675.766ZM608.176 688.806C608.278 688.581 616.867 664.916 642.695 659.265C643.028 659.192 643.318 658.989 643.502 658.702C643.685 658.416 643.747 658.067 643.675 657.735C643.592 657.409 643.387 657.127 643.102 656.948C642.817 656.77 642.474 656.708 642.144 656.776C614.909 662.733 605.871 687.724 605.769 687.969C605.664 688.291 605.688 688.642 605.837 688.946C605.985 689.251 606.246 689.486 606.565 689.601H606.973C607.244 689.625 607.516 689.56 607.747 689.417C607.979 689.273 608.158 689.059 608.258 688.806H608.176Z" fill="black"/>
<path d="M647.224 671.547H589.468V683.502H594.507L604.932 748.724H631.76L642.185 683.502H647.224V671.547Z" fill="#92E3A9"/>
<path opacity="0.3" d="M647.224 671.547H589.468V683.502H594.507L604.932 748.724H631.76L642.185 683.502H647.224V671.547Z" fill="white"/>
<path d="M127.239 310.037L60.0581 288.106L54.0805 272.315L40.4321 271.887L15.665 267.194L18.6436 272.315L49.8167 294.94L57.5079 298.776L127.77 335.477L127.239 310.037Z" fill="white" stroke="#263238" stroke-width="1.00396" stroke-miterlimit="10"/>
<path d="M54.0808 272.315L47.6749 268.48L34.8833 273.172L37.005 275.722L54.0808 272.315Z" fill="white" stroke="#263238" stroke-width="1.00396" stroke-linejoin="round"/>
<path d="M127.239 310.037L60.0581 288.106L54.0805 272.315L40.4321 271.887L15.665 267.194L18.6436 272.315L49.8167 294.94L57.5079 298.776L127.77 335.477L127.239 310.037Z" fill="white"/>
<mask id="mask0_138_160" style="mask-type:luminance" maskUnits="userSpaceOnUse" x="15" y="267" width="113" height="69">
<path d="M127.239 310.037L60.0581 288.106L54.0805 272.315L40.4321 271.887L15.665 267.194L18.6436 272.315L49.8167 294.94L57.5079 298.775L127.77 335.477L127.239 310.037Z" fill="white"/>
</mask>
<g mask="url(#mask0_138_160)">
<path opacity="0.5" d="M127.239 310.037L60.0581 288.106L54.0805 272.315L40.4321 271.887L15.665 267.194L18.6436 272.315L49.8167 294.94L57.5079 298.775L127.77 335.477L127.239 310.037Z" fill="#92E3A9" stroke="#263238" stroke-width="1.00396" stroke-miterlimit="10"/>
</g>
<path d="M127.239 310.037L60.0581 288.106L54.0805 272.315L40.4321 271.887L15.665 267.194L18.6436 272.315L49.8167 294.94L57.5079 298.776L127.77 335.477L127.239 310.037Z" stroke="#263238" stroke-width="1.00396" stroke-miterlimit="10"/>
<path d="M54.0808 272.315L47.6749 268.48L34.8833 273.172L37.005 275.722L54.0808 272.315Z" fill="white"/>
<mask id="mask1_138_160" style="mask-type:luminance" maskUnits="userSpaceOnUse" x="34" y="268" width="21" height="8">
<path d="M54.0818 272.315L47.6758 268.48L34.8843 273.172L37.006 275.722L54.0818 272.315Z" fill="white"/>
</mask>
<g mask="url(#mask1_138_160)">
<path opacity="0.5" d="M54.0818 272.315L47.6758 268.48L34.8843 273.172L37.006 275.722L54.0818 272.315Z" fill="#92E3A9" stroke="#263238" stroke-width="1.00396" stroke-linejoin="round"/>
</g>
<path d="M54.0808 272.315L47.6749 268.48L34.8833 273.172L37.005 275.722L54.0808 272.315Z" stroke="#263238" stroke-width="1.00396" stroke-linejoin="round"/>
<path d="M141.499 167.698C141.499 167.698 140.458 176.878 143.049 182.774C145.64 188.67 160.023 208.643 160.023 208.643L133.175 230.166C133.175 230.166 122.036 207.725 119.914 204.094C117.792 200.462 115.242 184.835 122.158 173.635C129.074 162.434 139.03 159.415 141.499 167.698Z" fill="white"/>
<mask id="mask2_138_160" style="mask-type:luminance" maskUnits="userSpaceOnUse" x="117" y="162" width="44" height="69">
<path d="M141.5 167.698C141.5 167.698 140.459 176.878 143.05 182.774C145.641 188.67 160.024 208.643 160.024 208.643L133.176 230.166C133.176 230.166 122.037 207.725 119.915 204.094C117.793 200.462 115.243 184.835 122.159 173.635C129.075 162.434 139.031 159.415 141.5 167.698Z" fill="white"/>
</mask>
<g mask="url(#mask2_138_160)">
<g style="mix-blend-mode:multiply" opacity="0.5">
<path d="M127.707 197.198L139.356 221.353L133.154 230.187L121.444 209.276L127.707 197.198Z" fill="#92E3A9"/>
</g>
</g>
<path d="M141.499 167.698C141.499 167.698 140.458 176.878 143.049 182.774C145.64 188.67 160.023 208.643 160.023 208.643L133.175 230.166C133.175 230.166 122.036 207.725 119.914 204.094C117.792 200.462 115.242 184.835 122.158 173.635C129.074 162.434 139.03 159.415 141.499 167.698Z" stroke="#263238" stroke-width="1.00396" stroke-miterlimit="10"/>
<path d="M149.823 150.887C148.171 140.687 136.481 119.939 117.936 120.734C105.9 121.265 100.269 123.692 95.0461 126.651C90.7889 129.159 86.8207 132.128 83.2134 135.505C74.1552 146.378 70.9726 149.357 72.7271 157.681C72.5832 161.001 73.1034 164.316 74.2572 167.433C77.0318 174.838 78.9291 179.673 81.3365 183.203C80.602 186.65 78.6843 195.749 78.5823 197.83C78.4803 199.911 84.7027 198.463 87.8444 197.667C93.6792 210.724 104.369 219.782 107.695 220.823C113.489 222.638 122.649 213.111 127.504 205.726C132.36 198.34 128.688 190.037 128.708 186.732C128.728 183.427 139.623 176.164 143.662 173.859C147.702 171.554 151.455 161.067 149.823 150.887Z" fill="white"/>
<mask id="mask3_138_160" style="mask-type:luminance" maskUnits="userSpaceOnUse" x="72" y="120" width="79" height="102">
<path d="M149.824 150.887C148.172 140.687 136.482 119.939 117.937 120.734C105.9 121.265 100.27 123.692 95.047 126.651C90.7898 129.159 86.8217 132.128 83.2143 135.505C74.1562 146.379 70.9736 149.357 72.7281 157.681C72.5842 161.001 73.1044 164.316 74.2582 167.433C77.0328 174.838 78.9301 179.673 81.3374 183.203C80.603 186.651 78.6853 195.75 78.5833 197.83C78.4813 199.911 84.7036 198.463 87.8454 197.667C93.6802 210.724 104.37 219.782 107.696 220.823C113.49 222.638 122.65 213.111 127.505 205.726C132.361 198.34 128.689 190.037 128.709 186.732C128.729 183.427 139.624 176.164 143.663 173.859C147.703 171.554 151.456 161.067 149.824 150.887Z" fill="white"/>
</mask>
<g mask="url(#mask3_138_160)">
<g style="mix-blend-mode:multiply" opacity="0.5">
<path d="M72.8096 157.681C72.6656 161.001 73.1858 164.316 74.3397 167.433C77.1142 174.838 79.0115 179.673 81.4189 183.203C80.6844 186.651 78.7667 195.749 78.6647 197.83C78.5627 199.911 84.7851 198.463 87.9269 197.667C93.7616 210.724 104.452 219.782 107.777 220.823C113.571 222.638 122.731 213.111 127.587 205.726C128.8 203.882 129.587 201.791 129.892 199.605C129.627 198.646 129.443 198.055 129.443 198.055C129.443 198.055 126.71 208.561 121.283 207.195C115.856 205.828 107.553 194.954 102.922 191.2C98.2907 187.446 100.188 182.509 99.2699 176.919C98.3519 171.329 84.6423 166.413 83.7242 163.21C82.8062 160.007 86.0092 146.746 86.0092 146.746C86.0092 146.746 91.2115 139.809 90.0894 142.665C89.2963 145.142 89.0087 147.753 89.2435 150.342C89.4783 152.932 90.2307 155.448 91.4563 157.742C92.3163 159.552 93.6805 161.075 95.385 162.128C97.0896 163.181 99.062 163.719 101.065 163.679L106.043 139.014L95.5365 130.323L83.2958 135.423C74.156 146.379 71.0347 149.357 72.8096 157.681Z" fill="#92E3A9"/>
</g>
</g>
<path d="M149.823 150.887C148.171 140.687 136.481 119.939 117.936 120.734C105.9 121.265 100.269 123.692 95.0461 126.651C90.7889 129.159 86.8207 132.128 83.2134 135.505C74.1552 146.378 70.9726 149.357 72.7271 157.681C72.5832 161.001 73.1034 164.316 74.2572 167.433C77.0318 174.838 78.9291 179.673 81.3365 183.203C80.602 186.65 78.6843 195.749 78.5823 197.83C78.4803 199.911 84.7027 198.463 87.8444 197.667C93.6792 210.724 104.369 219.782 107.695 220.823C113.489 222.638 122.649 213.111 127.504 205.726C132.36 198.34 128.688 190.037 128.708 186.732C128.728 183.427 139.623 176.164 143.662 173.859C147.702 171.554 151.455 161.067 149.823 150.887Z" stroke="#263238" stroke-miterlimit="10"/>
<path d="M83.8657 177.042L85.9058 182.876C85.9058 182.876 90.2921 184.325 95.6372 178.49" stroke="#263238" stroke-miterlimit="10" stroke-linecap="round"/>
<path d="M98.9424 204.297C98.9424 204.297 103.798 203.808 105.756 196.994" stroke="#263238" stroke-miterlimit="10" stroke-linecap="round"/>
<path d="M80.459 172.166C80.459 172.166 81.9075 167.779 90.6596 167.779" stroke="#263238" stroke-miterlimit="10" stroke-linecap="round"/>
<path d="M125.321 112.615C118.962 111.7 112.548 111.209 106.124 111.146C106.124 111.146 86.9058 100.068 68.4427 111.88C49.9796 123.692 58.8542 144.379 58.8542 149.541C58.8542 154.702 52.9378 154.723 56.6304 161.373C60.3231 168.024 72.8086 164.352 72.8086 164.352C72.9405 161.844 73.6034 159.392 74.7535 157.158C75.9035 154.925 77.5144 152.962 79.4798 151.397C86.1306 146.236 91.4349 145.114 93.6382 146.603C93.6382 146.603 92.1693 157.681 94.3727 162.108C94.3727 162.108 101.758 165.8 103.982 165.8C106.205 165.8 102.533 168.922 109.898 171.696C111.24 172.178 112.675 172.343 114.091 172.176C115.507 172.01 116.865 171.517 118.058 170.738C119.14 166.249 121.506 159.496 125.913 161.067C132.38 163.373 138.276 179.286 129.524 184.712C140.051 186.63 152.802 168.004 153.557 151.03C154.311 134.056 136.256 114.532 125.321 112.615Z" fill="#263238"/>
<path d="M93.9644 139.32C93.9644 139.32 99.3911 136.402 106.042 142.645C112.693 148.888 125.627 157.232 142.764 152.642" stroke="white" stroke-width="0.5" stroke-linecap="round" stroke-linejoin="round"/>
<path d="M93.21 134.321C93.21 134.321 96.9434 128.487 103.186 128.487C109.429 128.487 124.016 137.239 135.665 137.239" stroke="white" stroke-width="0.5" stroke-linecap="round" stroke-linejoin="round"/>
<path d="M88.9664 145.562C88.9664 145.562 81.8872 136.831 75.2364 143.91C68.5856 150.989 72.8086 157.681 72.8086 157.681" stroke="white" stroke-width="0.5" stroke-linecap="round" stroke-linejoin="round"/>
<path d="M60.6699 151.397C64.7267 147.739 67.2485 142.68 67.7287 137.239C68.5652 128.079 81.0711 120.163 88.9664 127.671" stroke="white" stroke-width="0.5" stroke-linecap="round" stroke-linejoin="round"/>
<path d="M73.563 118.082C73.563 118.082 86.0689 106.004 96.4735 121.407" stroke="white" stroke-width="0.5" stroke-linecap="round" stroke-linejoin="round"/>
<path d="M175.345 711.9C175.345 711.9 183.036 723.855 182.179 731.546L181.343 739.238C181.343 739.238 153.128 746.97 147.151 746.97C141.173 746.97 109.531 743.971 109.531 743.971L108.164 738.544C108.068 738.143 108.113 737.722 108.292 737.35C108.47 736.979 108.771 736.68 109.143 736.504L137.358 723.345L146.253 713.614L175.345 711.9Z" fill="white" stroke="#263238" stroke-width="1.00396" stroke-miterlimit="10"/>
<path d="M151.436 740.952C159.086 741.543 173.612 736.871 182.037 733.893L181.446 739.238C181.446 739.238 153.129 746.97 147.151 746.97C141.174 746.97 109.532 743.971 109.532 743.971L108.552 740.095C113.612 740.115 141.317 740.176 151.436 740.952Z" fill="#92E3A9" stroke="#263238" stroke-width="1.00396" stroke-miterlimit="10"/>
<path d="M137.399 723.345L96.331 741.217C96.331 741.217 92.822 750.009 96.331 751.764C99.8401 753.518 176.345 751.764 176.345 751.764C176.345 751.764 181.629 737.871 173.284 728.547C164.94 719.224 137.399 723.345 137.399 723.345Z" fill="white" stroke="#263238" stroke-width="1.00396" stroke-miterlimit="10"/>
<path d="M176.344 751.764C176.344 751.764 99.8398 753.519 96.3308 751.764C94.6375 750.907 94.5763 748.439 94.9639 746.093H177.691C177.421 748.021 176.97 749.92 176.344 751.764Z" fill="#92E3A9" stroke="#263238" stroke-width="1.00396" stroke-miterlimit="10"/>
<path d="M117.977 412.818C117.977 412.818 107.246 460.374 103.186 490.119C99.1265 519.864 96.7396 579.456 97.5964 586.29C98.4533 593.124 141.173 707.636 141.173 707.636L145.437 717.837L175.345 711.859C175.345 711.859 161.677 668.282 156.556 644.352C151.435 620.421 140.235 581.108 140.235 574.274C140.235 567.439 166.757 436.912 168.654 428.344C170.551 419.775 179.16 406.616 179.16 406.616L121.894 405.454L117.977 412.818Z" fill="#92E3A9" stroke="#263238" stroke-width="1.00396" stroke-miterlimit="10"/>
<path d="M117.977 412.818C117.977 412.818 111.693 456.253 114.284 486.446C116.875 516.64 122.445 580.924 122.445 590.492C122.445 600.061 137.888 657.204 138.766 675.157C140.133 701.087 138.215 713.92 138.215 713.92L137.297 723.325C137.297 723.325 155.311 725.895 159.248 727.017C163.796 728.189 168.489 728.698 173.182 728.527C173.182 728.527 179.731 699.7 179.731 675.137C179.731 650.574 174.284 600.02 171.571 579.537C168.857 559.054 177.406 480.04 182.261 465.29C187.116 450.54 197.725 419.306 190.585 403.352C183.444 387.398 117.977 412.818 117.977 412.818Z" fill="#92E3A9" stroke="#263238" stroke-width="1.00396" stroke-miterlimit="10"/>
<path d="M198.522 395.355L197.869 414.777C197.869 414.777 186.24 417.082 170.572 419.796C157.638 422.04 125.159 419.204 114.224 418.143C113.227 418.055 112.306 417.577 111.66 416.812C111.015 416.048 110.697 415.06 110.776 414.063L111.837 396.518L198.522 395.355Z" fill="#263238"/>
<path d="M153.067 201.747C153.067 201.747 134.706 221.598 127.79 233.941C120.874 246.283 118.14 265.195 115.549 280.088C112.958 294.981 119.976 329.949 117.997 346.004L111.734 396.579C111.734 396.579 110.388 400.006 114.896 403.76C119.405 407.514 141.418 408.881 161.309 409.881C168.572 410.248 190.258 405.576 193.808 405.351C198.093 405.086 198.235 399.639 198.419 395.355C199.276 375.219 202.907 321.543 205.294 298.164C210.211 250.486 183.302 204.461 153.067 201.747Z" fill="white" stroke="#263238" stroke-width="1.00396" stroke-miterlimit="10"/>
<g style="mix-blend-mode:multiply">
<path d="M203.05 325.277C203.866 314.689 204.683 305.08 205.397 298.164C205.601 296.123 205.723 294.083 205.825 292.043L157.046 300.204L115.142 285.923C115.146 294.594 115.637 303.257 116.61 311.873L157.719 323.379L203.05 325.277Z" fill="#92E3A9"/>
</g>
<g style="mix-blend-mode:multiply">
<path d="M151.252 203.747C148.477 206.827 142.969 213.091 137.726 219.741L168.695 251.22L178.895 247.14L151.252 203.747Z" fill="#92E3A9"/>
</g>
<path d="M153.068 201.747C153.068 201.747 134.707 221.598 127.791 233.941C125.74 237.692 124.079 241.643 122.833 245.732L159.759 203.074C157.578 202.413 155.336 201.968 153.068 201.747Z" fill="#263238"/>
<g style="mix-blend-mode:multiply">
<path d="M116.978 272.05L157.046 285.229L205.702 279.639C204.94 267.518 202.247 255.597 197.726 244.325L158.494 260.054L123.424 244.161C120.557 253.277 118.401 262.601 116.978 272.05Z" fill="#92E3A9"/>
</g>
<g style="mix-blend-mode:multiply">
<path d="M185.953 375.219C165.631 378.631 144.779 376.927 125.28 370.261L115.508 366.916L112.468 391.397L123.607 394.518C144.783 400.439 166.916 402.144 188.748 399.537L197.745 398.456C198.214 397.465 198.477 396.389 198.521 395.294C198.765 389.846 199.194 381.931 199.745 372.852L185.953 375.219Z" fill="#92E3A9"/>
</g>
<g style="mix-blend-mode:multiply">
<path d="M191.4 341.883C171.077 345.309 150.22 343.598 130.727 336.905L118.282 332.642C118.591 337.086 118.53 341.549 118.099 345.984L116.65 357.755L129.054 361.224C150.222 367.151 172.348 368.863 194.175 366.263L200.295 365.528C200.805 357.368 201.397 348.677 202.029 340.088L191.4 341.883Z" fill="#92E3A9"/>
</g>
<path d="M0.000276885 255.611L39.4468 287.327L41.147 285.212L1.70048 253.496L0.000276885 255.611Z" fill="#263238"/>
<path d="M172.061 223.76C172.061 223.76 186.525 233.614 186.852 256.892C186.994 267.092 185.934 276.62 183.587 293.328C181.241 310.037 166.675 364.447 155.332 371.057C143.989 377.667 126.382 365.181 126.382 365.181L41.2278 308.65L20.643 292.023L10.4424 272.764L13.6454 266.644L38.7593 285.902L25.2333 273.396L27.8854 270.03L32.7817 273.437L47.0625 278.782L50.1839 299.184L54.5906 302.203L136.053 331.968C136.053 331.968 135.033 288.126 135.787 279.741C136.542 271.356 137.583 250.282 146.559 235.001" fill="white"/>
<mask id="mask4_138_160" style="mask-type:luminance" maskUnits="userSpaceOnUse" x="10" y="223" width="177" height="150">
<path d="M172.06 223.76C172.06 223.76 186.524 233.614 186.851 256.892C186.993 267.092 185.933 276.62 183.586 293.328C181.24 310.037 166.674 364.447 155.331 371.057C143.988 377.667 126.381 365.181 126.381 365.181L41.2268 308.65L20.642 292.023L10.4414 272.764L13.6444 266.644L38.7583 285.902L25.2323 273.396L27.8844 270.03L32.7807 273.437L47.0616 278.782L50.183 299.184L54.5896 302.203L136.052 331.968C136.052 331.968 135.032 288.126 135.786 279.741C136.541 271.356 137.582 250.282 146.558 235.001" fill="white"/>
</mask>
<g mask="url(#mask4_138_160)">
<g style="mix-blend-mode:multiply" opacity="0.5">
<path d="M135.481 298.837C135.481 313.974 135.991 331.968 135.991 331.968L54.6109 302.325L50.2042 299.306L47.0828 278.905L32.802 273.56L27.9261 270.091L25.2739 273.458L38.7591 285.902L13.6452 266.644L10.6055 272.662L20.8061 291.921L41.3909 308.65L46.5728 312.097L159.085 348.35L135.481 298.837Z" fill="#92E3A9"/>
</g>
</g>
<path d="M172.061 223.76C172.061 223.76 186.525 233.614 186.852 256.892C186.994 267.092 185.934 276.62 183.587 293.328C181.241 310.037 166.675 364.447 155.332 371.057C143.989 377.667 126.382 365.181 126.382 365.181L41.2278 308.65L20.643 292.023L10.4424 272.764L13.6454 266.644L38.7593 285.902L25.2333 273.396L27.8854 270.03L32.7817 273.437L47.0625 278.782L50.1839 299.184L54.5906 302.203L136.053 331.968C136.053 331.968 135.033 288.126 135.787 279.741C136.542 271.356 137.583 250.282 146.559 235.001" stroke="#263238" stroke-width="1.00396" stroke-miterlimit="10"/>
<path d="M136.053 331.968L167.144 354.41L175.203 340.129C175.203 340.129 180.772 335.742 181.589 332.437C182.405 329.132 181.364 323.767 182.201 320.462C183.037 317.157 187.199 314.056 187.586 306.059C187.974 298.061 187.586 291.39 187.586 291.39C187.586 291.39 194.319 263.706 193.584 251.669C192.85 239.632 181.242 218.354 171.939 217.885C162.636 217.415 150.538 218.823 141.153 233.022C131.769 247.222 133.686 288.677 132.218 291.268C130.749 293.859 132.789 306.65 132.789 306.65C131.973 307.258 131.297 308.033 130.805 308.923C130.312 309.813 130.015 310.798 129.933 311.812C129.769 315.137 133.36 323.318 133.36 323.318L136.053 331.968Z" fill="white" stroke="#263238" stroke-width="1.00396" stroke-miterlimit="10"/>
<g style="mix-blend-mode:multiply">
<path d="M133.033 280.619C133.097 284.179 132.83 287.737 132.237 291.248C130.931 293.573 132.421 304.08 132.747 306.222C150.234 311.654 168.726 313.049 186.831 310.302C187.22 308.883 187.452 307.426 187.524 305.957C187.932 297.98 187.524 291.288 187.524 291.288C187.524 291.288 188.116 288.82 188.932 285.066C170.182 286.258 151.358 284.76 133.033 280.619Z" fill="#92E3A9"/>
</g>
<g style="mix-blend-mode:multiply">
<path d="M139.888 235.287C136.97 241.142 135.338 249.935 134.4 258.85C152.92 265.918 172.889 268.349 192.564 265.929C193.349 261.211 193.697 256.431 193.604 251.649C193.251 247.869 192.358 244.159 190.952 240.632C173.772 241.033 156.612 239.237 139.888 235.287Z" fill="#92E3A9"/>
</g>
<path d="M133.359 323.543L135.991 331.968L167.083 354.41L175.141 340.129C175.141 340.129 180.711 335.743 181.527 332.438C181.672 331.863 181.761 331.275 181.792 330.683C165.407 330.4 149.128 328 133.359 323.543Z" fill="#263238"/>
<path d="M155.862 726.752C155.862 726.752 156.556 709.085 159.942 683.257C163.329 657.429 155.189 620.748 153.822 614.627C152.455 608.507 154.516 594.92 153.149 590.146C151.782 585.372 145.172 565.011 149.069 541.387C152.965 517.762 156.127 455.314 156.127 455.314C156.127 455.314 146.314 447.337 143.438 436.953C140.561 426.569 142.765 423.305 142.765 423.305" stroke="#263238" stroke-width="1.00396" stroke-miterlimit="10"/>
<path d="M160.411 424.264L156.637 445.154" stroke="#263238" stroke-width="1.00396" stroke-miterlimit="10"/>
<rect x="222.212" y="83.1881" width="363" height="582" rx="2" fill="white"/>
</svg>
