<?xml version="1.0" encoding="utf-8"?>

<!DOCTYPE svg PUBLIC "-//W3C//DTD SVG 1.1//EN" "http://www.w3.org/Graphics/SVG/1.1/DTD/svg11.dtd">
<!-- Uploaded to: SVG Repo, www.svgrepo.com, Generator: SVG Repo Mixer Tools -->
<svg height="800px" width="800px" version="1.1" id="_x32_" xmlns="http://www.w3.org/2000/svg" xmlns:xlink="http://www.w3.org/1999/xlink" 
	 viewBox="0 0 512 512"  xml:space="preserve">
<style type="text/css">
	.st0{fill:#000000;}
</style>
<g>
	<path class="st0" d="M250,371.255l-3.368,20.676h18.74l-3.368-20.676c3.219-2.012,5.365-5.58,5.365-9.648
		c0-6.277-5.089-11.37-11.366-11.37c-6.28,0-11.373,5.093-11.373,11.37C244.63,365.676,246.778,369.243,250,371.255z"/>
	<polygon class="st0" points="236.109,255.575 263.65,278.358 276.288,274.239 237.481,240.435 	"/>
	<polygon class="st0" points="307.585,261.307 320.099,276.324 325.948,267.976 316.764,257.965 	"/>
	<polygon class="st0" points="295.9,287.17 293.393,299.688 325.112,288.841 314.261,280.494 	"/>
	<polygon class="st0" points="179.892,288.013 197.419,273.818 179.892,267.976 	"/>
	<polygon class="st0" points="218.702,285.5 214.321,294.893 240.61,294.893 237.481,285.5 	"/>
	<path class="st0" d="M211.665,189.98c2.01-9.408,6.056-19.746,11.973-25.667c5.918-5.914,16.252-9.961,25.653-11.98
		c-9.401-2.005-19.736-6.052-25.657-11.973c-5.914-5.914-9.964-16.251-11.973-25.652c-2.012,9.401-6.059,19.739-11.98,25.66
		c-5.914,5.914-16.252,9.961-25.652,11.973c9.404,2.012,19.739,6.058,25.656,11.973C205.599,170.234,209.653,180.572,211.665,189.98
		z"/>
	<path class="st0" d="M334.291,206.37c1.206-5.652,3.64-11.864,7.192-15.424c3.557-3.552,9.76-5.986,15.413-7.199
		c-5.652-1.206-11.856-3.64-15.413-7.192c-3.556-3.553-5.986-9.764-7.196-15.416c-1.206,5.652-3.643,11.864-7.195,15.416
		c-3.557,3.56-9.768,5.986-15.42,7.199c5.652,1.206,11.864,3.64,15.42,7.2C330.644,194.505,333.081,200.717,334.291,206.37z"/>
	<path class="st0" d="M412.568,213.874l27.483-132.426l-22.383-44.76C406.429,14.203,383.443,0,358.306,0H153.702
		c-25.144,0-48.123,14.203-59.366,36.688l-22.383,44.76l27.483,132.426L42.562,317.727V512h426.875V317.727L412.568,213.874z
		 M412.684,265.034c-4.242,0.908-8.906,2.732-11.572,5.405c-2.674,2.666-4.497,7.33-5.406,11.573
		c-0.908-4.243-2.739-8.906-5.405-11.573c-2.673-2.674-7.338-4.497-11.573-5.405c4.235-0.908,8.9-2.738,11.573-5.405
		c2.666-2.674,4.49-7.338,5.405-11.573c0.901,4.235,2.732,8.9,5.406,11.573C403.777,262.296,408.441,264.126,412.684,265.034z
		 M121.794,302.354l15.024-12.83l9.386-14.436h22.532l3.756-12.823l22.532-16.04l30.041,3.204l3.756-16.034l39.431-8.028
		l28.162,24.062l18.78-6.415l24.407,22.456l20.658,9.619l29.314,27.265h-25.602l-13.2-13.716l-2.369,13.716H121.794z
		 M301.504,333.252v74.132H210.5v-74.132H301.504z M114.518,246.341c5.18-1.104,10.876-3.342,14.138-6.596
		c3.258-3.262,5.489-8.95,6.596-14.138c1.108,5.18,3.339,10.876,6.597,14.138c3.262,3.254,8.958,5.485,14.141,6.596
		c-5.183,1.105-10.879,3.342-14.137,6.596c-3.258,3.262-5.489,8.958-6.601,14.138c-1.108-5.18-3.338-10.876-6.596-14.138
		C125.397,249.683,119.702,247.446,114.518,246.341z M117.849,48.444c6.786-13.572,20.669-22.159,35.852-22.159h204.604
		c15.176,0,29.06,8.587,35.845,22.159l12.714,25.413h-98.292V37.372H203.431v36.485h-98.292L117.849,48.444z M293.553,52.395v21.461
		h-75.099V52.395H293.553z M410.875,92.636l-24.156,116.421H125.285L101.122,92.636H410.875z M68.851,330.477H195.48v40.691H68.851
		V330.477z M443.146,485.708H68.851v-34.421h374.296V485.708z M443.146,436.262H68.851v-50.077H195.48V422.4h121.045v-7.505v-28.71
		h126.622V436.262z M443.146,371.168H316.524v-40.691h126.622V371.168z"/>
</g>
</svg>